<svg xmlns="http://www.w3.org/2000/svg" xmlns:xlink="http://www.w3.org/1999/xlink" version="1.1" viewBox="0 0 5066 3338" style="background: #ffffff"><defs><style>@import url(https://fonts.googleapis.com/css?family=Open+Sans:400,700);</style></defs><defs joint-selector="defs"></defs><g  joint-selector="layers" transform="matrix(1,0,0,1,0,0)"><g ></g><g ><!--z-index:1--><!--z-index:2--><!--z-index:3--><!--z-index:4--><!--z-index:5--><!--z-index:6--><!--z-index:7--><!--z-index:8--><!--z-index:9--><!--z-index:10--><!--z-index:11--><!--z-index:12--><!--z-index:13--><!--z-index:14--><!--z-index:15--><!--z-index:16--><!--z-index:17--><!--z-index:18--><!--z-index:19--><!--z-index:20--><!--z-index:21--><!--z-index:22--><!--z-index:23--><!--z-index:24--><!--z-index:25--><!--z-index:26--><!--z-index:27--><!--z-index:28--><!--z-index:29--><!--z-index:30--><!--z-index:31--><!--z-index:32--><!--z-index:33--><!--z-index:34--><!--z-index:35--><!--z-index:36--><!--z-index:37--><!--z-index:38--><!--z-index:39--><!--z-index:40--><!--z-index:41--><!--z-index:42--><!--z-index:43--><!--z-index:44--><!--z-index:45--><!--z-index:46--><!--z-index:47--><!--z-index:48--><!--z-index:49--><!--z-index:50--><!--z-index:51--><g   id="j_1141"  transform="translate(20,3301.6)"><g id="v-20528"><text  id="v-20529" font-size="22px" xml:space="preserve" y="0.8em" font-weight="normal" text-anchor="start" fill="#aaaaaa" pointer-events="none" display="block" font-family="Open Sans"><tspan  dy="0">Wednesday, 16 July 2025 at 12:23 Central European Summer Time</tspan></text></g></g><!--z-index:52--><g   id="j_1140"  transform="translate(20,3258.4)"><g id="v-20526"><text  id="v-20527" font-size="36px" xml:space="preserve" y="0.8em" font-weight="normal" text-anchor="start" fill="#000000" pointer-events="none" display="block" font-family="Open Sans"><tspan  dy="0">[Container] Sustainable Travel System</tspan></text></g></g><!--z-index:53--><g   id="j_1142"  transform="translate(562,330)" style=""><g  id="v-20533" style="opacity: 1;"><rect  x="0" y="160" width="400" height="240" rx="70" id="v-20535" stroke="#073b6f" stroke-width="2" pointer-events="visiblePainted" fill="#08427b" style="fill: rgb(8, 66, 123); stroke: rgb(7, 59, 111);"></rect><circle  cx="200" cy="88.88888888888889" r="88.88888888888889" id="v-20534" stroke="#073b6f" stroke-width="2" pointer-events="visiblePainted" fill="#08427b" style="fill: rgb(8, 66, 123); stroke: rgb(7, 59, 111);"></circle><line  x1="80" y1="266.6666666666667" x2="80" y2="400" id="v-20541" stroke="#073b6f" stroke-width="2" style="stroke: rgb(7, 59, 111);"></line><line  x1="320" y1="266.6666666666667" x2="320" y2="400" id="v-20542" stroke="#073b6f" stroke-width="2" style="stroke: rgb(7, 59, 111);"></line><text  id="v-20536" font-size="34" xml:space="preserve" y="0.8em" font-weight="bold" text-anchor="middle" pointer-events="visible" font-family="Open Sans" fill="#ffffff" transform="matrix(1,0,0,1,200,218.10000610351562)" style="fill: rgb(255, 255, 255);"><tspan  dy="0">Traveller</tspan></text><text  id="v-20537" font-size="17" xml:space="preserve" y="0.8em" text-anchor="middle" font-family="Open Sans" fill="#ffffff" transform="matrix(1,0,0,1,200,258.8999938964844)" style="fill: rgb(255, 255, 255);"><tspan  dy="0">[Person]</tspan></text><text  id="v-20538" font-size="24" xml:space="preserve" y="0.8em" text-anchor="middle" font-family="Open Sans" fill="#ffffff" transform="matrix(1,0,0,1,200,289.29998779296875)" style="fill: rgb(255, 255, 255);"><tspan  dy="0">A person who travels and uses</tspan><tspan dy="1.2em" x="0" >the sustainable travel system.</tspan></text><g  id="v-20539" font-weight="normal" text-anchor="middle" color="#ffffff" transform="matrix(1,0,0,1,197.5,368)" style="fill: rgb(255, 255, 255);" display="none"><g ></g><g ></g><g ></g><g ></g></g><image  id="v-20540"></image></g></g><!--z-index:54--><g   id="j_1143"  transform="translate(542,942)" style=""><g  id="v-20549" style="opacity: 1;"><rect  x="0" y="160" width="400" height="240" rx="70" id="v-20551" stroke="#073b6f" stroke-width="2" pointer-events="visiblePainted" fill="#08427b" style="fill: rgb(8, 66, 123); stroke: rgb(7, 59, 111);"></rect><circle  cx="200" cy="88.88888888888889" r="88.88888888888889" id="v-20550" stroke="#073b6f" stroke-width="2" pointer-events="visiblePainted" fill="#08427b" style="fill: rgb(8, 66, 123); stroke: rgb(7, 59, 111);"></circle><line  x1="80" y1="266.6666666666667" x2="80" y2="400" id="v-20557" stroke="#073b6f" stroke-width="2" style="stroke: rgb(7, 59, 111);"></line><line  x1="320" y1="266.6666666666667" x2="320" y2="400" id="v-20558" stroke="#073b6f" stroke-width="2" style="stroke: rgb(7, 59, 111);"></line><text  id="v-20552" font-size="34" xml:space="preserve" y="0.8em" font-weight="bold" text-anchor="middle" pointer-events="visible" font-family="Open Sans" fill="#ffffff" transform="matrix(1,0,0,1,200,183.3000030517578)" style="fill: rgb(255, 255, 255);"><tspan  dy="0">Sustainable Travel</tspan><tspan dy="1.2em" x="0" >Organization</tspan></text><text  id="v-20553" font-size="17" xml:space="preserve" y="0.8em" text-anchor="middle" font-family="Open Sans" fill="#ffffff" transform="matrix(1,0,0,1,200,264.8999938964844)" style="fill: rgb(255, 255, 255);"><tspan  dy="0">[Software System]</tspan></text><text  id="v-20554" font-size="24" xml:space="preserve" y="0.8em" text-anchor="middle" font-family="Open Sans" fill="#ffffff" transform="matrix(1,0,0,1,200,295.29998779296875)" style="fill: rgb(255, 255, 255);"><tspan  dy="0">An organization that promotes</tspan><tspan dy="1.2em" x="0" >and manages sustainable travel</tspan><tspan dy="1.2em" x="0" >initiatives.</tspan></text><g  id="v-20555" font-weight="normal" text-anchor="middle" color="#ffffff" transform="matrix(1,0,0,1,197.5,368)" style="fill: rgb(255, 255, 255);" display="none"><g ></g><g ></g><g ></g><g ></g></g><image  id="v-20556"></image></g></g><!--z-index:55--><g   id="j_1146"  transform="translate(1822,332)" style=""><g id="v-20574"><rect  id="v-20575" width="1540" height="2805" rx="0" ry="0" fill="#ffffff" stroke="#0f5eaa" stroke-width="1" stroke-dasharray="20,20" pointer-events="none"></rect><text  id="v-20576" font-size="24px" xml:space="preserve" y="2766" font-weight="normal" fill="#0f5eaa" text-anchor="start" pointer-events="visible" font-family="Open Sans" transform="matrix(1,0,0,1,15,0)"><tspan  dy="0">Sustainable Travel System</tspan></text><text  id="v-20577" font-size="17px" xml:space="preserve" y="2790" font-weight="normal" fill="#0f5eaa" text-anchor="start" pointer-events="visible" font-family="Open Sans" transform="matrix(1,0,0,1,15,0)"><tspan  dy="0">[Software System]</tspan></text><image  id="v-20578" pointer-events="visible"></image></g></g><!--z-index:56--><g   id="j_1145"  transform="translate(2822,365)" style=""><g id="v-20569"><rect  id="v-20570" width="490" height="394" rx="0" ry="0" fill="#ffffff" stroke="#444444" stroke-width="1" stroke-dasharray="5,5" pointer-events="none"></rect><text  id="v-20571" font-size="24px" xml:space="preserve" y="379" font-weight="normal" fill="#444444" text-anchor="start" pointer-events="visible" font-family="Open Sans" transform="matrix(1,0,0,1,15,0)"><tspan  dy="0">Booking</tspan></text><text  id="v-20572" font-size="17px" xml:space="preserve" display="none" y="379" font-weight="normal" fill="#444444" text-anchor="start" pointer-events="visible" font-family="Open Sans" transform="matrix(1,0,0,1,15,0)"><tspan style="fill-opacity: 0; stroke-opacity: 0;"  dy="0">-</tspan></text><image  id="v-20573" pointer-events="visible"></image></g></g><!--z-index:57--><g   id="j_1148"  transform="translate(1842,352)" style=""><g id="v-20597"><rect  id="v-20598" width="520" height="2694" rx="0" ry="0" fill="#ffffff" stroke="#444444" stroke-width="1" stroke-dasharray="5,5" pointer-events="none"></rect><text  id="v-20599" font-size="24px" xml:space="preserve" y="2679" font-weight="normal" fill="#444444" text-anchor="start" pointer-events="visible" font-family="Open Sans" transform="matrix(1,0,0,1,15,0)"><tspan  dy="0">Local Organization Services</tspan></text><text  id="v-20600" font-size="17px" xml:space="preserve" display="none" y="2679" font-weight="normal" fill="#444444" text-anchor="start" pointer-events="visible" font-family="Open Sans" transform="matrix(1,0,0,1,15,0)"><tspan style="fill-opacity: 0; stroke-opacity: 0;"  dy="0">-</tspan></text><image  id="v-20601" pointer-events="visible"></image></g></g><!--z-index:58--><g   id="j_1153"  transform="translate(2837,1650)" style=""><g id="v-20659"><rect  id="v-20660" width="505" height="884" rx="0" ry="0" fill="#ffffff" stroke="#444444" stroke-width="1" stroke-dasharray="5,5" pointer-events="none"></rect><text  id="v-20661" font-size="24px" xml:space="preserve" y="869" font-weight="normal" fill="#444444" text-anchor="start" pointer-events="visible" font-family="Open Sans" transform="matrix(1,0,0,1,15,0)"><tspan  dy="0">Transaction Management</tspan></text><text  id="v-20662" font-size="17px" xml:space="preserve" display="none" y="869" font-weight="normal" fill="#444444" text-anchor="start" pointer-events="visible" font-family="Open Sans" transform="matrix(1,0,0,1,15,0)"><tspan style="fill-opacity: 0; stroke-opacity: 0;"  dy="0">-</tspan></text><image  id="v-20663" pointer-events="visible"></image></g></g><!--z-index:59--><g   id="j_1144"  transform="translate(2842,385)" style=""><g  id="v-20562" style="opacity: 1;"><rect  id="v-20563" rx="20" ry="20" stroke="#0f5eaa" stroke-width="2" pointer-events="visiblePainted" fill="#1168bd" width="450" height="300" style="fill: rgb(17, 104, 189); stroke: rgb(15, 94, 170);"></rect><text  id="v-20564" font-size="34" xml:space="preserve" y="0.8em" font-weight="bold" text-anchor="middle" pointer-events="visible" font-family="Open Sans" fill="#ffffff" transform="matrix(1,0,0,1,225,88.0999984741211)" style="fill: rgb(255, 255, 255);"><tspan  dy="0">Booking Service</tspan></text><text  id="v-20565" font-size="17" xml:space="preserve" y="0.8em" text-anchor="middle" font-family="Open Sans" fill="#ffffff" transform="matrix(1,0,0,1,225,128.89999389648438)" style="fill: rgb(255, 255, 255);"><tspan  dy="0">[Container: REST API]</tspan></text><text  id="v-20566" font-size="24" xml:space="preserve" y="0.8em" text-anchor="middle" font-family="Open Sans" fill="#ffffff" transform="matrix(1,0,0,1,225,159.3000030517578)" style="fill: rgb(255, 255, 255);"><tspan  dy="0">A service that manages bookings for</tspan><tspan dy="1.2em" x="0" >sustainable travel activities.</tspan></text><g  id="v-20567" color="#ffffff" transform="matrix(1,0,0,1,222.5,268)" style="fill: rgb(255, 255, 255);" display="none"><g ></g><g ></g><g ></g><g ></g></g><image  id="v-20568"></image></g></g><!--z-index:60--><g   id="j_1147"  transform="translate(1882,1012)" style=""><g  id="v-20585" style="opacity: 1;"><rect  id="v-20586" rx="10" ry="10" stroke="#0f5eaa" stroke-width="2" pointer-events="visiblePainted" fill="#0f5eaa" width="450" height="300" style="fill: rgb(15, 94, 170); stroke: rgb(15, 94, 170);"></rect><rect  id="v-20587" rx="10" ry="10" stroke="#0f5eaa" stroke-width="0" pointer-events="visiblePainted" fill="#1168bd" width="430" height="250" x="10" y="40" style="fill: rgb(17, 104, 189);"></rect><ellipse  id="v-20594" fill="#1168bd" cx="20" cy="20" rx="10" ry="10" style="fill: rgb(17, 104, 189);"></ellipse><ellipse  id="v-20595" fill="#1168bd" cx="50" cy="20" rx="10" ry="10" style="fill: rgb(17, 104, 189);"></ellipse><ellipse  id="v-20596" fill="#1168bd" cx="80" cy="20" rx="10" ry="10" style="fill: rgb(17, 104, 189);"></ellipse><rect  id="v-20588" rx="10" ry="10" stroke="#444444" stroke-width="0" pointer-events="visiblePainted" fill="#1168bd" width="340" height="20" x="100" y="10" style="fill: rgb(17, 104, 189);"></rect><text  id="v-20589" font-size="34" xml:space="preserve" y="0.8em" font-weight="bold" text-anchor="middle" pointer-events="visible" font-family="Open Sans" fill="#ffffff" transform="matrix(1,0,0,1,225,88.69999694824219)" style="fill: rgb(255, 255, 255);"><tspan  dy="0">Organization Portal</tspan></text><text  id="v-20590" font-size="17" xml:space="preserve" y="0.8em" text-anchor="middle" font-family="Open Sans" fill="#ffffff" transform="matrix(1,0,0,1,225,129.5)" style="fill: rgb(255, 255, 255);"><tspan  dy="0">[Container: Web Application]</tspan></text><text  id="v-20591" font-size="24" xml:space="preserve" y="0.8em" text-anchor="middle" font-family="Open Sans" fill="#ffffff" transform="matrix(1,0,0,1,225,159.89999389648438)" style="fill: rgb(255, 255, 255);"><tspan  dy="0">A web portal for the organization to</tspan><tspan dy="1.2em" x="0" >manage sustainable travel</tspan><tspan dy="1.2em" x="0" >initiatives.</tspan></text><g  id="v-20592" font-weight="normal" text-anchor="middle" color="#ffffff" transform="matrix(1,0,0,1,222.5,258)" style="fill: rgb(255, 255, 255);" display="none"><g ></g><g ></g><g ></g><g ></g></g><image  id="v-20593"></image></g></g><!--z-index:61--><g   id="j_1149"  transform="translate(1882,2057)" style=""><g  id="v-20608" style="opacity: 1;"><rect  id="v-20609" rx="20" ry="20" stroke="#0f5eaa" stroke-width="2" pointer-events="visiblePainted" fill="#1168bd" width="450" height="300" style="fill: rgb(17, 104, 189); stroke: rgb(15, 94, 170);"></rect><text  id="v-20610" font-size="34" xml:space="preserve" y="0.8em" font-weight="bold" text-anchor="middle" pointer-events="visible" font-family="Open Sans" fill="#ffffff" transform="matrix(1,0,0,1,225,53.29999923706055)" style="fill: rgb(255, 255, 255);"><tspan  dy="0">Participant Management</tspan><tspan dy="1.2em" x="0" >Service</tspan></text><text  id="v-20611" font-size="17" xml:space="preserve" y="0.8em" text-anchor="middle" font-family="Open Sans" fill="#ffffff" transform="matrix(1,0,0,1,225,134.89999389648438)" style="fill: rgb(255, 255, 255);"><tspan  dy="0">[Container: REST API]</tspan></text><text  id="v-20612" font-size="24" xml:space="preserve" y="0.8em" text-anchor="middle" font-family="Open Sans" fill="#ffffff" transform="matrix(1,0,0,1,225,165.3000030517578)" style="fill: rgb(255, 255, 255);"><tspan  dy="0">Handles participant registration,</tspan><tspan dy="1.2em" x="0" >management, and project progress</tspan><tspan dy="1.2em" x="0" >tracking.</tspan></text><g  id="v-20613" color="#ffffff" transform="matrix(1,0,0,1,222.5,268)" style="fill: rgb(255, 255, 255);" display="none"><g ></g><g ></g><g ></g><g ></g></g><image  id="v-20614"></image></g></g><!--z-index:62--><g   id="j_1150"  transform="translate(1892,2672)" style=""><g  id="v-20624" style="opacity: 1;"><path  d="M 0,30 a 225,30 0,0,0 450 0 a 225,30 0,0,0 -450 0 l 0,240 a 225,30 0,0,0 450 0 l 0,-240" id="v-20625" stroke="#0f5eaa" stroke-width="2" pointer-events="visiblePainted" fill="#1168bd" style="fill: rgb(17, 104, 189); stroke: rgb(15, 94, 170);"></path><rect  id="v-20626" stroke-width="0" pointer-events="visiblePainted" fill="none" stroke="none" width="450" height="270" x="0" y="30"></rect><text  id="v-20627" font-size="34" xml:space="preserve" y="0.8em" font-weight="bold" text-anchor="middle" pointer-events="visible" font-family="Open Sans" fill="#ffffff" transform="matrix(1,0,0,1,225,96.19999694824219)" style="fill: rgb(255, 255, 255);"><tspan  dy="0">Project Database</tspan></text><text  id="v-20628" font-size="17" xml:space="preserve" y="0.8em" text-anchor="middle" font-family="Open Sans" fill="#ffffff" transform="matrix(1,0,0,1,225,137)" style="fill: rgb(255, 255, 255);"><tspan  dy="0">[Container: Relational Database]</tspan></text><text  id="v-20629" font-size="24" xml:space="preserve" y="0.8em" text-anchor="middle" font-family="Open Sans" fill="#ffffff" transform="matrix(1,0,0,1,225,167.39999389648438)" style="fill: rgb(255, 255, 255);"><tspan  dy="0">Stores information about</tspan><tspan dy="1.2em" x="0" >sustainable travel projects and</tspan><tspan dy="1.2em" x="0" >participants.</tspan></text><g  id="v-20630" font-weight="normal" text-anchor="middle" color="#ffffff" transform="matrix(1,0,0,1,222.5,268)" style="fill: rgb(255, 255, 255);" display="none"><g ></g><g ></g><g ></g><g ></g></g><image  id="v-20631"></image></g></g><!--z-index:63--><g   id="j_1151"  transform="translate(1862,372)" style=""><g  id="v-20638" style="opacity: 1;"><path  d="M 30,0 a 30,150 0,0,1 0 300 a 30,150 0,0,1 0 -300 l 390,0 a 30,150 0,0,1 0 300 l -390,0" id="v-20639" stroke="#0f5eaa" stroke-width="2" pointer-events="visiblePainted" fill="#1168bd" style="fill: rgb(17, 104, 189); stroke: rgb(15, 94, 170);"></path><rect  id="v-20640" stroke-width="0" pointer-events="visiblePainted" fill="none" stroke="none" width="420" height="300" x="30" y="0"></rect><text  id="v-20641" font-size="34" xml:space="preserve" y="0.8em" font-weight="bold" text-anchor="middle" pointer-events="visible" font-family="Open Sans" fill="#ffffff" transform="matrix(1,0,0,1,240,73.69999694824219)" style="fill: rgb(255, 255, 255);"><tspan  dy="0">Communication Service</tspan></text><text  id="v-20642" font-size="17" xml:space="preserve" y="0.8em" text-anchor="middle" font-family="Open Sans" fill="#ffffff" transform="matrix(1,0,0,1,240,114.5)" style="fill: rgb(255, 255, 255);"><tspan  dy="0">[Container: Messaging Service]</tspan></text><text  id="v-20643" font-size="24" xml:space="preserve" y="0.8em" text-anchor="middle" font-family="Open Sans" fill="#ffffff" transform="matrix(1,0,0,1,240,144.89999389648438)" style="fill: rgb(255, 255, 255);"><tspan  dy="0">Enables communication between</tspan><tspan dy="1.2em" x="0" >organizations and interested</tspan><tspan dy="1.2em" x="0" >travellers.</tspan></text><g  id="v-20644" font-weight="normal" text-anchor="middle" color="#ffffff" transform="matrix(1,0,0,1,237.5,268)" style="fill: rgb(255, 255, 255);" display="none"><g ></g><g ></g><g ></g><g ></g></g><image  id="v-20645"></image></g></g><!--z-index:64--><g   id="j_1152"  transform="translate(2857,1670)" style=""><g  id="v-20652" style="opacity: 1;"><rect  id="v-20653" rx="20" ry="20" stroke="#0f5eaa" stroke-width="2" pointer-events="visiblePainted" fill="#1168bd" width="450" height="300" style="fill: rgb(17, 104, 189); stroke: rgb(15, 94, 170);"></rect><text  id="v-20654" font-size="34" xml:space="preserve" y="0.8em" font-weight="bold" text-anchor="middle" pointer-events="visible" font-family="Open Sans" fill="#ffffff" transform="matrix(1,0,0,1,225,88.0999984741211)" style="fill: rgb(255, 255, 255);"><tspan  dy="0">Donation Service</tspan></text><text  id="v-20655" font-size="17" xml:space="preserve" y="0.8em" text-anchor="middle" font-family="Open Sans" fill="#ffffff" transform="matrix(1,0,0,1,225,128.89999389648438)" style="fill: rgb(255, 255, 255);"><tspan  dy="0">[Container: REST API]</tspan></text><text  id="v-20656" font-size="24" xml:space="preserve" y="0.8em" text-anchor="middle" font-family="Open Sans" fill="#ffffff" transform="matrix(1,0,0,1,225,159.3000030517578)" style="fill: rgb(255, 255, 255);"><tspan  dy="0">Handles donations for sustainable</tspan><tspan dy="1.2em" x="0" >travel projects.</tspan></text><g  id="v-20657" color="#ffffff" transform="matrix(1,0,0,1,222.5,268)" style="fill: rgb(255, 255, 255);" display="none"><g ></g><g ></g><g ></g><g ></g></g><image  id="v-20658"></image></g></g><!--z-index:65--><g   id="j_1154"  transform="translate(2872,2160)" style=""><g  id="v-20667" style="opacity: 1;"><rect  id="v-20668" rx="20" ry="20" stroke="#0f5eaa" stroke-width="2" pointer-events="visiblePainted" fill="#1168bd" width="450" height="300" style="fill: rgb(17, 104, 189); stroke: rgb(15, 94, 170);"></rect><text  id="v-20669" font-size="34" xml:space="preserve" y="0.8em" font-weight="bold" text-anchor="middle" pointer-events="visible" font-family="Open Sans" fill="#ffffff" transform="matrix(1,0,0,1,225,88.0999984741211)" style="fill: rgb(255, 255, 255);"><tspan  dy="0">Payment Service</tspan></text><text  id="v-20670" font-size="17" xml:space="preserve" y="0.8em" text-anchor="middle" font-family="Open Sans" fill="#ffffff" transform="matrix(1,0,0,1,225,128.89999389648438)" style="fill: rgb(255, 255, 255);"><tspan  dy="0">[Container: REST API]</tspan></text><text  id="v-20671" font-size="24" xml:space="preserve" y="0.8em" text-anchor="middle" font-family="Open Sans" fill="#ffffff" transform="matrix(1,0,0,1,225,159.3000030517578)" style="fill: rgb(255, 255, 255);"><tspan  dy="0">Handles payments and transactions</tspan><tspan dy="1.2em" x="0" >for sustainable travel activities.</tspan></text><g  id="v-20672" color="#ffffff" transform="matrix(1,0,0,1,222.5,268)" style="fill: rgb(255, 255, 255);" display="none"><g ></g><g ></g><g ></g><g ></g></g><image  id="v-20673"></image></g></g><!--z-index:66--><g   id="j_1155"  transform="translate(3812,1930)" style=""><g  id="v-20677" style="opacity: 1;"><rect  id="v-20678" rx="20" ry="20" stroke="#c7c7c7" stroke-width="2" pointer-events="visiblePainted" fill="#dddddd" width="450" height="300" style="fill: rgb(221, 221, 221); stroke: rgb(199, 199, 199);"></rect><text  id="v-20679" font-size="34" xml:space="preserve" y="0.8em" font-weight="bold" text-anchor="middle" pointer-events="visible" font-family="Open Sans" fill="#000000" transform="matrix(1,0,0,1,225,121.9000015258789)" style="fill: rgb(0, 0, 0);"><tspan  dy="0">Payment Service Provider</tspan></text><text  id="v-20680" font-size="17" xml:space="preserve" y="0.8em" text-anchor="middle" font-family="Open Sans" fill="#000000" transform="matrix(1,0,0,1,225,162.6999969482422)" style="fill: rgb(0, 0, 0);"><tspan  dy="0">[Software System]</tspan></text><text  id="v-20681" font-size="24" xml:space="preserve" display="none" y="0.8em" text-anchor="middle" font-family="Open Sans" fill="#000000" transform="matrix(1,0,0,1,225,183.10000610351562)" style="fill: rgb(0, 0, 0);"><tspan style="fill-opacity: 0; stroke-opacity: 0;"  dy="0">-</tspan></text><g  id="v-20682" color="#000000" transform="matrix(1,0,0,1,222.5,268)" style="fill: rgb(0, 0, 0);" display="none"><g ></g><g ></g><g ></g><g ></g></g><image  id="v-20683"></image></g></g><!--z-index:67--><g   id="j_1156" ><path  stroke="#707070" d="M 942 1145 L 1882 1159" id="v-20699" stroke-width="2" stroke-dasharray="30 30" fill="none" style="opacity: 1;"></path><path  fill="black" stroke="black" d="M 0 0 0 0" transform="matrix(0.9998927116394043,0.014647364616394043,-0.014647364616394043,0.9998927116394043,942,1144.9300537109375)"></path><path  fill="#707070" stroke="#707070" d="M 20 0 L 0 10 L 20 20 z" id="v-20701" transform="matrix(-0.9998927116394043,-0.01464739441871643,0.01464739441871643,-0.9998927116394043,1881.853515625,1168.6988525390625)" style="opacity: 1;"></path><path  d="M 942 1145 L 1882 1159" id="v-20700" fill="none" style="cursor: default;"></path><g ><g id="v-20690"  label-idx="0" cursor="move" transform="matrix(1,0,0,1,1412,1152)" style="cursor: default; opacity: 1;"><rect joint-selector="rect" id="v-20694" fill="#ffffff" rx="3" ry="3" pointer-events="none" width="197.28164672851562" height="91.33136749267578" transform="matrix(1,0,0,1,-98.5999984741211,-45.70000076293945)"></rect><text joint-selector="text" id="v-20693" font-size="24px" xml:space="preserve" y="0.8em" fill="#707070" text-anchor="middle" pointer-events="none" font-family="Open Sans" font-weight="normal" transform="matrix(1,0,0,1,0,-39.599998474121094)"><tspan  dy="0">Manages</tspan><tspan dy="1.2em" x="0" >sustainable travel</tspan><tspan dy="1.2em" x="0" >initiatives</tspan></text></g><g id="v-20691"  label-idx="1" cursor="move" transform="matrix(1,0,0,1,1412,1207.199951171875)" style="cursor: default; opacity: 1;"><rect joint-selector="rect" id="v-20696" fill="#ffffff" rx="3" ry="3" pointer-events="none" width="61.90833282470703" height="23.375" transform="matrix(1,0,0,1,-31,-11.699999809265137)"></rect><text joint-selector="text" id="v-20695" font-size="17px" xml:space="preserve" y="0.8em" fill="#707070" text-anchor="middle" pointer-events="none" font-family="Open Sans" font-weight="normal" transform="matrix(1,0,0,1,0,-6.199999809265137)"><tspan  dy="0">[HTTPS]</tspan></text></g><g id="v-20692"  label-idx="2" cursor="move" transform="matrix(1,0,0,1,1402,1215.5999755859375)" style="cursor: default; opacity: 1;"><rect joint-selector="rect" id="v-20698" fill="#ffffff" rx="3" ry="3"  width="0" height="0" transform="matrix(1,0,0,1,0,0)" display="none"></rect><text joint-selector="text" id="v-20697" fill="#000000" font-size="14" text-anchor="middle" pointer-events="none"></text></g></g><g  display="none"></g><g  id="v-20703" display="none"><g  id="v-20688"><path  end="source" d="M 26 0 L 0 13 L 26 26 z"></path></g><g  id="v-20689"><path  end="target" d="M 26 0 L 0 13 L 26 26 z"></path></g></g><g  id="v-20702" display="none"><g  id="v-20687" transform="translate(981.9955643413646, 1145.59567861785) "><g  event="remove"><circle r="11"></circle><path transform="scale(.8) translate(-16, -16)" d="M24.778,21.419 19.276,15.917 24.777,10.415 21.949,7.585 16.447,13.087 10.945,7.585 8.117,10.415 13.618,15.917 8.116,21.419 10.946,24.248 16.447,18.746 21.948,24.248z"></path><title>Remove link.</title></g><g  event="link:options"><circle r="11" transform="translate(25)"></circle><path fill="white" transform="scale(.55) translate(29, -16)" d="M31.229,17.736c0.064-0.571,0.104-1.148,0.104-1.736s-0.04-1.166-0.104-1.737l-4.377-1.557c-0.218-0.716-0.504-1.401-0.851-2.05l1.993-4.192c-0.725-0.91-1.549-1.734-2.458-2.459l-4.193,1.994c-0.647-0.347-1.334-0.632-2.049-0.849l-1.558-4.378C17.165,0.708,16.588,0.667,16,0.667s-1.166,0.041-1.737,0.105L12.707,5.15c-0.716,0.217-1.401,0.502-2.05,0.849L6.464,4.005C5.554,4.73,4.73,5.554,4.005,6.464l1.994,4.192c-0.347,0.648-0.632,1.334-0.849,2.05l-4.378,1.557C0.708,14.834,0.667,15.412,0.667,16s0.041,1.165,0.105,1.736l4.378,1.558c0.217,0.715,0.502,1.401,0.849,2.049l-1.994,4.193c0.725,0.909,1.549,1.733,2.459,2.458l4.192-1.993c0.648,0.347,1.334,0.633,2.05,0.851l1.557,4.377c0.571,0.064,1.148,0.104,1.737,0.104c0.588,0,1.165-0.04,1.736-0.104l1.558-4.377c0.715-0.218,1.399-0.504,2.049-0.851l4.193,1.993c0.909-0.725,1.733-1.549,2.458-2.458l-1.993-4.193c0.347-0.647,0.633-1.334,0.851-2.049L31.229,17.736zM16,20.871c-2.69,0-4.872-2.182-4.872-4.871c0-2.69,2.182-4.872,4.872-4.872c2.689,0,4.871,2.182,4.871,4.872C20.871,18.689,18.689,20.871,16,20.871z"></path><title>Link options.</title></g></g></g></g><!--z-index:68--><g   id="j_1157" ><path  stroke="#707070" d="M 2329 1312 L 2860 1670" id="v-20719" stroke-width="2" stroke-dasharray="30 30" fill="none" style="opacity: 1;"></path><path  fill="black" stroke="black" d="M 0 0 0 0" transform="matrix(0.8289023041725159,0.5593934059143066,-0.5593934059143066,0.8289023041725159,2329.260009765625,1312)"></path><path  fill="#707070" stroke="#707070" d="M 20 0 L 0 10 L 20 20 z" id="v-20721" transform="matrix(-0.8289023041725159,-0.5593933463096619,0.5593933463096619,-0.8289023041725159,2854.14599609375,1678.2889404296875)" style="opacity: 1;"></path><path  d="M 2329 1312 L 2860 1670" id="v-20720" fill="none" style="cursor: default;"></path><g ><g id="v-20710"  label-idx="0" cursor="move" transform="matrix(1,0,0,1,2594.5,1491)" style="cursor: default; opacity: 1;"><rect joint-selector="rect" id="v-20714" fill="#ffffff" rx="3" ry="3" pointer-events="none" width="197.28164672851562" height="120.13136291503906" transform="matrix(1,0,0,1,-98.5999984741211,-60.099998474121094)"></rect><text joint-selector="text" id="v-20713" font-size="24px" xml:space="preserve" y="0.8em" fill="#707070" text-anchor="middle" pointer-events="none" font-family="Open Sans" font-weight="normal" transform="matrix(1,0,0,1,0,-54)"><tspan  dy="0">Handles</tspan><tspan dy="1.2em" x="0" >donations for</tspan><tspan dy="1.2em" x="0" >sustainable travel</tspan><tspan dy="1.2em" x="0" >projects</tspan></text></g><g id="v-20711"  label-idx="1" cursor="move" transform="matrix(1,0,0,1,2594.5,1560.5999755859375)" style="cursor: default; opacity: 1;"><rect joint-selector="rect" id="v-20716" fill="#ffffff" rx="3" ry="3" pointer-events="none" width="49.724998474121094" height="23.375" transform="matrix(1,0,0,1,-24.899999618530273,-11.699999809265137)"></rect><text joint-selector="text" id="v-20715" font-size="17px" xml:space="preserve" y="0.8em" fill="#707070" text-anchor="middle" pointer-events="none" font-family="Open Sans" font-weight="normal" transform="matrix(1,0,0,1,0,-6.199999809265137)"><tspan  dy="0">[REST]</tspan></text></g><g id="v-20712"  label-idx="2" cursor="move" transform="matrix(1,0,0,1,2584.5,1569)" style="cursor: default; opacity: 1;"><rect joint-selector="rect" id="v-20718" fill="#ffffff" rx="3" ry="3"  width="0" height="0" transform="matrix(1,0,0,1,0,0)" display="none"></rect><text joint-selector="text" id="v-20717" fill="#000000" font-size="14" text-anchor="middle" pointer-events="none"></text></g></g><g  display="none"></g><g  id="v-20723" display="none"><g  id="v-20708"><path  end="source" d="M 26 0 L 0 13 L 26 26 z"></path></g><g  id="v-20709"><path  end="target" d="M 26 0 L 0 13 L 26 26 z"></path></g></g><g  id="v-20722" display="none"><g  id="v-20707" transform="translate(2362.166251579401, 1334.3606743228352) "><g  event="remove"><circle r="11"></circle><path transform="scale(.8) translate(-16, -16)" d="M24.778,21.419 19.276,15.917 24.777,10.415 21.949,7.585 16.447,13.087 10.945,7.585 8.117,10.415 13.618,15.917 8.116,21.419 10.946,24.248 16.447,18.746 21.948,24.248z"></path><title>Remove link.</title></g><g  event="link:options"><circle r="11" transform="translate(25)"></circle><path fill="white" transform="scale(.55) translate(29, -16)" d="M31.229,17.736c0.064-0.571,0.104-1.148,0.104-1.736s-0.04-1.166-0.104-1.737l-4.377-1.557c-0.218-0.716-0.504-1.401-0.851-2.05l1.993-4.192c-0.725-0.91-1.549-1.734-2.458-2.459l-4.193,1.994c-0.647-0.347-1.334-0.632-2.049-0.849l-1.558-4.378C17.165,0.708,16.588,0.667,16,0.667s-1.166,0.041-1.737,0.105L12.707,5.15c-0.716,0.217-1.401,0.502-2.05,0.849L6.464,4.005C5.554,4.73,4.73,5.554,4.005,6.464l1.994,4.192c-0.347,0.648-0.632,1.334-0.849,2.05l-4.378,1.557C0.708,14.834,0.667,15.412,0.667,16s0.041,1.165,0.105,1.736l4.378,1.558c0.217,0.715,0.502,1.401,0.849,2.049l-1.994,4.193c0.725,0.909,1.549,1.733,2.459,2.458l4.192-1.993c0.648,0.347,1.334,0.633,2.05,0.851l1.557,4.377c0.571,0.064,1.148,0.104,1.737,0.104c0.588,0,1.165-0.04,1.736-0.104l1.558-4.377c0.715-0.218,1.399-0.504,2.049-0.851l4.193,1.993c0.909-0.725,1.733-1.549,2.458-2.458l-1.993-4.193c0.347-0.647,0.633-1.334,0.851-2.049L31.229,17.736zM16,20.871c-2.69,0-4.872-2.182-4.872-4.871c0-2.69,2.182-4.872,4.872-4.872c2.689,0,4.871,2.182,4.871,4.872C20.871,18.689,18.689,20.871,16,20.871z"></path><title>Link options.</title></g></g></g></g><!--z-index:69--><g   id="j_1158" ><path  stroke="#707070" d="M 3307 1898 L 3503 1967 C 3508.9999999999995 1969 3515.333333333333 1970.6666666666665 3522 1972 L 3812 2033" id="v-20740" stroke-width="2" stroke-dasharray="30 30" fill="none" style="opacity: 1;"></path><path  fill="black" stroke="black" d="M 0 0 0 0" transform="matrix(0.9442025423049927,0.32936546206474304,-0.32936546206474304,0.9442025423049927,3307,1898.489990234375)"></path><path  fill="#707070" stroke="#707070" d="M 20 0 L 0 10 L 20 20 z" id="v-20742" transform="matrix(-0.9787452816963196,-0.20507974922657013,0.20507974922657013,-0.9787452816963196,3809.94921875,2042.6474609375)" style="opacity: 1;"></path><path  d="M 3307 1898 L 3503 1967 C 3508.9999999999995 1969 3515.333333333333 1970.6666666666665 3522 1972 L 3812 2033" id="v-20741" fill="none" style="cursor: default;"></path><g ><g id="v-20731"  label-idx="0" cursor="move" transform="matrix(1,0,0,1,3555.710693359375,1979.0908203125)" style="cursor: default; opacity: 1;"><rect joint-selector="rect" id="v-20735" fill="#ffffff" rx="3" ry="3" pointer-events="none" width="197.28164672851562" height="120.13136291503906" transform="matrix(1,0,0,1,-98.5999984741211,-60.099998474121094)"></rect><text joint-selector="text" id="v-20734" font-size="24px" xml:space="preserve" y="0.8em" fill="#707070" text-anchor="middle" pointer-events="none" font-family="Open Sans" font-weight="normal" transform="matrix(1,0,0,1,0,-54)"><tspan  dy="0">Handles</tspan><tspan dy="1.2em" x="0" >donations for</tspan><tspan dy="1.2em" x="0" >sustainable travel</tspan><tspan dy="1.2em" x="0" >projects</tspan></text></g><g id="v-20732"  label-idx="1" cursor="move" transform="matrix(1,0,0,1,3555.710693359375,2048.69091796875)" style="cursor: default; opacity: 1;"><rect joint-selector="rect" id="v-20737" fill="#ffffff" rx="3" ry="3" pointer-events="none" width="49.724998474121094" height="23.375" transform="matrix(1,0,0,1,-24.899999618530273,-11.699999809265137)"></rect><text joint-selector="text" id="v-20736" font-size="17px" xml:space="preserve" y="0.8em" fill="#707070" text-anchor="middle" pointer-events="none" font-family="Open Sans" font-weight="normal" transform="matrix(1,0,0,1,0,-6.199999809265137)"><tspan  dy="0">[REST]</tspan></text></g><g id="v-20733"  label-idx="2" cursor="move" transform="matrix(1,0,0,1,3545.710693359375,2057.0908203125)" style="cursor: default; opacity: 1;"><rect joint-selector="rect" id="v-20739" fill="#ffffff" rx="3" ry="3"  width="0" height="0" transform="matrix(1,0,0,1,0,0)" display="none"></rect><text joint-selector="text" id="v-20738" fill="#000000" font-size="14" text-anchor="middle" pointer-events="none"></text></g></g><g  display="none"><g  transform="translate(3512, 1970)" id="v-20728"><circle  idx="0" r="10"></circle><path  idx="0" d="M16,5.333c-7.732,0-14,4.701-14,10.5c0,1.982,0.741,3.833,2.016,5.414L2,25.667l5.613-1.441c2.339,1.317,5.237,2.107,8.387,2.107c7.732,0,14-4.701,14-10.5C30,10.034,23.732,5.333,16,5.333z" transform="translate(5, -33)"></path><path  idx="0" transform="scale(.8) translate(9.5, -37)" d="M24.778,21.419 19.276,15.917 24.777,10.415 21.949,7.585 16.447,13.087 10.945,7.585 8.117,10.415 13.618,15.917 8.116,21.419 10.946,24.248 16.447,18.746 21.948,24.248z"><title>Remove vertex.</title></path></g></g><g  id="v-20744" display="none"><g  id="v-20729"><path  end="source" d="M 26 0 L 0 13 L 26 26 z"></path></g><g  id="v-20730"><path  end="target" d="M 26 0 L 0 13 L 26 26 z"></path></g></g><g  id="v-20743" display="none"><g  id="v-20727" transform="translate(3344.7302628599928, 1911.2825925374466) "><g  event="remove"><circle r="11"></circle><path transform="scale(.8) translate(-16, -16)" d="M24.778,21.419 19.276,15.917 24.777,10.415 21.949,7.585 16.447,13.087 10.945,7.585 8.117,10.415 13.618,15.917 8.116,21.419 10.946,24.248 16.447,18.746 21.948,24.248z"></path><title>Remove link.</title></g><g  event="link:options"><circle r="11" transform="translate(25)"></circle><path fill="white" transform="scale(.55) translate(29, -16)" d="M31.229,17.736c0.064-0.571,0.104-1.148,0.104-1.736s-0.04-1.166-0.104-1.737l-4.377-1.557c-0.218-0.716-0.504-1.401-0.851-2.05l1.993-4.192c-0.725-0.91-1.549-1.734-2.458-2.459l-4.193,1.994c-0.647-0.347-1.334-0.632-2.049-0.849l-1.558-4.378C17.165,0.708,16.588,0.667,16,0.667s-1.166,0.041-1.737,0.105L12.707,5.15c-0.716,0.217-1.401,0.502-2.05,0.849L6.464,4.005C5.554,4.73,4.73,5.554,4.005,6.464l1.994,4.192c-0.347,0.648-0.632,1.334-0.849,2.05l-4.378,1.557C0.708,14.834,0.667,15.412,0.667,16s0.041,1.165,0.105,1.736l4.378,1.558c0.217,0.715,0.502,1.401,0.849,2.049l-1.994,4.193c0.725,0.909,1.549,1.733,2.459,2.458l4.192-1.993c0.648,0.347,1.334,0.633,2.05,0.851l1.557,4.377c0.571,0.064,1.148,0.104,1.737,0.104c0.588,0,1.165-0.04,1.736-0.104l1.558-4.377c0.715-0.218,1.399-0.504,2.049-0.851l4.193,1.993c0.909-0.725,1.733-1.549,2.458-2.458l-1.993-4.193c0.347-0.647,0.633-1.334,0.851-2.049L31.229,17.736zM16,20.871c-2.69,0-4.872-2.182-4.872-4.871c0-2.69,2.182-4.872,4.872-4.872c2.689,0,4.871,2.182,4.871,4.872C20.871,18.689,18.689,20.871,16,20.871z"></path><title>Link options.</title></g></g></g></g><!--z-index:70--><g   id="j_1159" ><path  stroke="#707070" d="M 2107 1312 L 2107 2057" id="v-20760" stroke-width="2" stroke-dasharray="30 30" fill="none" style="opacity: 1;"></path><path  fill="black" stroke="black" d="M 0 0 0 0" transform="matrix(6.123234262925839e-17,1,-1,6.123234262925839e-17,2107,1312)"></path><path  fill="#707070" stroke="#707070" d="M 20 0 L 0 10 L 20 20 z" id="v-20762" transform="matrix(-1.8369701465288538e-16,-1,1,-1.8369701465288538e-16,2097,2057)" style="opacity: 1;"></path><path  d="M 2107 1312 L 2107 2057" id="v-20761" fill="none" style="cursor: default;"></path><g ><g id="v-20751"  label-idx="0" cursor="move" transform="matrix(1,0,0,1,2107,1684.5)" style="cursor: default; opacity: 1;"><rect joint-selector="rect" id="v-20755" fill="#ffffff" rx="3" ry="3" pointer-events="none" width="182.75843811035156" height="120.13136291503906" transform="matrix(1,0,0,1,-91.4000015258789,-60.099998474121094)"></rect><text joint-selector="text" id="v-20754" font-size="24px" xml:space="preserve" y="0.8em" fill="#707070" text-anchor="middle" pointer-events="none" font-family="Open Sans" font-weight="normal" transform="matrix(1,0,0,1,0,-54)"><tspan  dy="0">Manages</tspan><tspan dy="1.2em" x="0" >participant</tspan><tspan dy="1.2em" x="0" >registration and</tspan><tspan dy="1.2em" x="0" >project progress</tspan></text></g><g id="v-20752"  label-idx="1" cursor="move" transform="matrix(1,0,0,1,2107,1754.0999755859375)" style="cursor: default; opacity: 1;"><rect joint-selector="rect" id="v-20757" fill="#ffffff" rx="3" ry="3" pointer-events="none" width="49.724998474121094" height="23.375" transform="matrix(1,0,0,1,-24.899999618530273,-11.699999809265137)"></rect><text joint-selector="text" id="v-20756" font-size="17px" xml:space="preserve" y="0.8em" fill="#707070" text-anchor="middle" pointer-events="none" font-family="Open Sans" font-weight="normal" transform="matrix(1,0,0,1,0,-6.199999809265137)"><tspan  dy="0">[REST]</tspan></text></g><g id="v-20753"  label-idx="2" cursor="move" transform="matrix(1,0,0,1,2097,1762.5)" style="cursor: default; opacity: 1;"><rect joint-selector="rect" id="v-20759" fill="#ffffff" rx="3" ry="3"  width="0" height="0" transform="matrix(1,0,0,1,0,0)" display="none"></rect><text joint-selector="text" id="v-20758" fill="#000000" font-size="14" text-anchor="middle" pointer-events="none"></text></g></g><g  display="none"></g><g  id="v-20764" display="none"><g  id="v-20749"><path  end="source" d="M 26 0 L 0 13 L 26 26 z"></path></g><g  id="v-20750"><path  end="target" d="M 26 0 L 0 13 L 26 26 z"></path></g></g><g  id="v-20763" display="none"><g  id="v-20748" transform="translate(2107, 1351.9999999999998) "><g  event="remove"><circle r="11"></circle><path transform="scale(.8) translate(-16, -16)" d="M24.778,21.419 19.276,15.917 24.777,10.415 21.949,7.585 16.447,13.087 10.945,7.585 8.117,10.415 13.618,15.917 8.116,21.419 10.946,24.248 16.447,18.746 21.948,24.248z"></path><title>Remove link.</title></g><g  event="link:options"><circle r="11" transform="translate(25)"></circle><path fill="white" transform="scale(.55) translate(29, -16)" d="M31.229,17.736c0.064-0.571,0.104-1.148,0.104-1.736s-0.04-1.166-0.104-1.737l-4.377-1.557c-0.218-0.716-0.504-1.401-0.851-2.05l1.993-4.192c-0.725-0.91-1.549-1.734-2.458-2.459l-4.193,1.994c-0.647-0.347-1.334-0.632-2.049-0.849l-1.558-4.378C17.165,0.708,16.588,0.667,16,0.667s-1.166,0.041-1.737,0.105L12.707,5.15c-0.716,0.217-1.401,0.502-2.05,0.849L6.464,4.005C5.554,4.73,4.73,5.554,4.005,6.464l1.994,4.192c-0.347,0.648-0.632,1.334-0.849,2.05l-4.378,1.557C0.708,14.834,0.667,15.412,0.667,16s0.041,1.165,0.105,1.736l4.378,1.558c0.217,0.715,0.502,1.401,0.849,2.049l-1.994,4.193c0.725,0.909,1.549,1.733,2.459,2.458l4.192-1.993c0.648,0.347,1.334,0.633,2.05,0.851l1.557,4.377c0.571,0.064,1.148,0.104,1.737,0.104c0.588,0,1.165-0.04,1.736-0.104l1.558-4.377c0.715-0.218,1.399-0.504,2.049-0.851l4.193,1.993c0.909-0.725,1.733-1.549,2.458-2.458l-1.993-4.193c0.347-0.647,0.633-1.334,0.851-2.049L31.229,17.736zM16,20.871c-2.69,0-4.872-2.182-4.872-4.871c0-2.69,2.182-4.872,4.872-4.872c2.689,0,4.871,2.182,4.871,4.872C20.871,18.689,18.689,20.871,16,20.871z"></path><title>Link options.</title></g></g></g></g><!--z-index:71--><g   id="j_1160" ><path  stroke="#707070" d="M 2109 2357 L 2115 2672" id="v-20780" stroke-width="2" stroke-dasharray="30 30" fill="none" style="opacity: 1;"></path><path  fill="black" stroke="black" d="M 0 0 0 0" transform="matrix(0.016251757740974426,0.9998679161071777,-0.9998679161071777,0.016251757740974426,2109.43994140625,2357)"></path><path  fill="#707070" stroke="#707070" d="M 20 0 L 0 10 L 20 20 z" id="v-20782" transform="matrix(-0.016252024099230766,-0.9998679161071777,0.9998679161071777,-0.016252024099230766,2104.561279296875,2672.162353515625)" style="opacity: 1;"></path><path  d="M 2109 2357 L 2115 2672" id="v-20781" fill="none" style="cursor: default;"></path><g ><g id="v-20771"  label-idx="0" cursor="move" transform="matrix(1,0,0,1,2112,2514.5)" style="cursor: default; opacity: 1;"><rect joint-selector="rect" id="v-20775" fill="#ffffff" rx="3" ry="3" pointer-events="none" width="199.7646484375" height="148.93136596679688" transform="matrix(1,0,0,1,-99.9000015258789,-74.5)"></rect><text joint-selector="text" id="v-20774" font-size="24px" xml:space="preserve" y="0.8em" fill="#707070" text-anchor="middle" pointer-events="none" font-family="Open Sans" font-weight="normal" transform="matrix(1,0,0,1,0,-68.4000015258789)"><tspan  dy="0">Stores</tspan><tspan dy="1.2em" x="0" >information</tspan><tspan dy="1.2em" x="0" >about sustainable</tspan><tspan dy="1.2em" x="0" >travel projects</tspan><tspan dy="1.2em" x="0" >and participants</tspan></text></g><g id="v-20772"  label-idx="1" cursor="move" transform="matrix(1,0,0,1,2112,2598.5)" style="cursor: default; opacity: 1;"><rect joint-selector="rect" id="v-20777" fill="#ffffff" rx="3" ry="3" pointer-events="none" width="49.68958282470703" height="23.375" transform="matrix(1,0,0,1,-24.799999237060547,-11.699999809265137)"></rect><text joint-selector="text" id="v-20776" font-size="17px" xml:space="preserve" y="0.8em" fill="#707070" text-anchor="middle" pointer-events="none" font-family="Open Sans" font-weight="normal" transform="matrix(1,0,0,1,0,-6.199999809265137)"><tspan  dy="0">[JDBC]</tspan></text></g><g id="v-20773"  label-idx="2" cursor="move" transform="matrix(1,0,0,1,2102,2606.89990234375)" style="cursor: default; opacity: 1;"><rect joint-selector="rect" id="v-20779" fill="#ffffff" rx="3" ry="3"  width="0" height="0" transform="matrix(1,0,0,1,0,0)" display="none"></rect><text joint-selector="text" id="v-20778" fill="#000000" font-size="14" text-anchor="middle" pointer-events="none"></text></g></g><g  display="none"></g><g  id="v-20784" display="none"><g  id="v-20769"><path  end="source" d="M 26 0 L 0 13 L 26 26 z"></path></g><g  id="v-20770"><path  end="target" d="M 26 0 L 0 13 L 26 26 z"></path></g></g><g  id="v-20783" display="none"><g  id="v-20768" transform="translate(2109.761766585487, 2396.9927457380613) "><g  event="remove"><circle r="11"></circle><path transform="scale(.8) translate(-16, -16)" d="M24.778,21.419 19.276,15.917 24.777,10.415 21.949,7.585 16.447,13.087 10.945,7.585 8.117,10.415 13.618,15.917 8.116,21.419 10.946,24.248 16.447,18.746 21.948,24.248z"></path><title>Remove link.</title></g><g  event="link:options"><circle r="11" transform="translate(25)"></circle><path fill="white" transform="scale(.55) translate(29, -16)" d="M31.229,17.736c0.064-0.571,0.104-1.148,0.104-1.736s-0.04-1.166-0.104-1.737l-4.377-1.557c-0.218-0.716-0.504-1.401-0.851-2.05l1.993-4.192c-0.725-0.91-1.549-1.734-2.458-2.459l-4.193,1.994c-0.647-0.347-1.334-0.632-2.049-0.849l-1.558-4.378C17.165,0.708,16.588,0.667,16,0.667s-1.166,0.041-1.737,0.105L12.707,5.15c-0.716,0.217-1.401,0.502-2.05,0.849L6.464,4.005C5.554,4.73,4.73,5.554,4.005,6.464l1.994,4.192c-0.347,0.648-0.632,1.334-0.849,2.05l-4.378,1.557C0.708,14.834,0.667,15.412,0.667,16s0.041,1.165,0.105,1.736l4.378,1.558c0.217,0.715,0.502,1.401,0.849,2.049l-1.994,4.193c0.725,0.909,1.549,1.733,2.459,2.458l4.192-1.993c0.648,0.347,1.334,0.633,2.05,0.851l1.557,4.377c0.571,0.064,1.148,0.104,1.737,0.104c0.588,0,1.165-0.04,1.736-0.104l1.558-4.377c0.715-0.218,1.399-0.504,2.049-0.851l4.193,1.993c0.909-0.725,1.733-1.549,2.458-2.458l-1.993-4.193c0.347-0.647,0.633-1.334,0.851-2.049L31.229,17.736zM16,20.871c-2.69,0-4.872-2.182-4.872-4.871c0-2.69,2.182-4.872,4.872-4.872c2.689,0,4.871,2.182,4.871,4.872C20.871,18.689,18.689,20.871,16,20.871z"></path><title>Link options.</title></g></g></g></g><!--z-index:72--><g   id="j_1161" ><path  stroke="#707070" d="M 1862 626 L 942 1050" id="v-20800" stroke-width="2" stroke-dasharray="30 30" fill="none" style="opacity: 1;"></path><path  fill="black" stroke="black" d="M 0 0 0 0" transform="matrix(-0.90815669298172,0.4186304807662964,-0.4186304807662964,-0.90815669298172,1862,625.719970703125)"></path><path  fill="#707070" stroke="#707070" d="M 20 0 L 0 10 L 20 20 z" id="v-20802" transform="matrix(0.9081565737724304,-0.4186307191848755,0.4186307191848755,0.9081565737724304,937.8136596679688,1040.7283935546875)" style="opacity: 1;"></path><path  d="M 1862 626 L 942 1050" id="v-20801" fill="none" style="cursor: default;"></path><g ><g id="v-20791"  label-idx="0" cursor="move" transform="matrix(1,0,0,1,1402,838)" style="cursor: default; opacity: 1;"><rect joint-selector="rect" id="v-20795" fill="#ffffff" rx="3" ry="3" pointer-events="none" width="174.37242126464844" height="177.7313690185547" transform="matrix(1,0,0,1,-87.19999694824219,-88.9000015258789)"></rect><text joint-selector="text" id="v-20794" font-size="24px" xml:space="preserve" y="0.8em" fill="#707070" text-anchor="middle" pointer-events="none" font-family="Open Sans" font-weight="normal" transform="matrix(1,0,0,1,0,-82.80000305175781)"><tspan  dy="0">Enables</tspan><tspan dy="1.2em" x="0" >communication</tspan><tspan dy="1.2em" x="0" >between</tspan><tspan dy="1.2em" x="0" >organizations</tspan><tspan dy="1.2em" x="0" >and interested</tspan><tspan dy="1.2em" x="0" >travellers</tspan></text></g><g id="v-20792"  label-idx="1" cursor="move" transform="matrix(1,0,0,1,1402,936.4000244140625)" style="cursor: default; opacity: 1;"><rect joint-selector="rect" id="v-20797" fill="#ffffff" rx="3" ry="3" pointer-events="none" width="94.84584045410156" height="23.375" transform="matrix(1,0,0,1,-47.400001525878906,-11.699999809265137)"></rect><text joint-selector="text" id="v-20796" font-size="17px" xml:space="preserve" y="0.8em" fill="#707070" text-anchor="middle" pointer-events="none" font-family="Open Sans" font-weight="normal" transform="matrix(1,0,0,1,0,-6.199999809265137)"><tspan  dy="0">[Messaging]</tspan></text></g><g id="v-20793"  label-idx="2" cursor="move" transform="matrix(1,0,0,1,1392,944.7999877929688)" style="cursor: default; opacity: 1;"><rect joint-selector="rect" id="v-20799" fill="#ffffff" rx="3" ry="3"  width="0" height="0" transform="matrix(1,0,0,1,0,0)" display="none"></rect><text joint-selector="text" id="v-20798" fill="#000000" font-size="14" text-anchor="middle" pointer-events="none"></text></g></g><g  display="none"></g><g  id="v-20804" display="none"><g  id="v-20789"><path  end="source" d="M 26 0 L 0 13 L 26 26 z"></path></g><g  id="v-20790"><path  end="target" d="M 26 0 L 0 13 L 26 26 z"></path></g></g><g  id="v-20803" display="none"><g  id="v-20788" transform="translate(1825.6723845160373, 642.7422923534784) "><g  event="remove"><circle r="11"></circle><path transform="scale(.8) translate(-16, -16)" d="M24.778,21.419 19.276,15.917 24.777,10.415 21.949,7.585 16.447,13.087 10.945,7.585 8.117,10.415 13.618,15.917 8.116,21.419 10.946,24.248 16.447,18.746 21.948,24.248z"></path><title>Remove link.</title></g><g  event="link:options"><circle r="11" transform="translate(25)"></circle><path fill="white" transform="scale(.55) translate(29, -16)" d="M31.229,17.736c0.064-0.571,0.104-1.148,0.104-1.736s-0.04-1.166-0.104-1.737l-4.377-1.557c-0.218-0.716-0.504-1.401-0.851-2.05l1.993-4.192c-0.725-0.91-1.549-1.734-2.458-2.459l-4.193,1.994c-0.647-0.347-1.334-0.632-2.049-0.849l-1.558-4.378C17.165,0.708,16.588,0.667,16,0.667s-1.166,0.041-1.737,0.105L12.707,5.15c-0.716,0.217-1.401,0.502-2.05,0.849L6.464,4.005C5.554,4.73,4.73,5.554,4.005,6.464l1.994,4.192c-0.347,0.648-0.632,1.334-0.849,2.05l-4.378,1.557C0.708,14.834,0.667,15.412,0.667,16s0.041,1.165,0.105,1.736l4.378,1.558c0.217,0.715,0.502,1.401,0.849,2.049l-1.994,4.193c0.725,0.909,1.549,1.733,2.459,2.458l4.192-1.993c0.648,0.347,1.334,0.633,2.05,0.851l1.557,4.377c0.571,0.064,1.148,0.104,1.737,0.104c0.588,0,1.165-0.04,1.736-0.104l1.558-4.377c0.715-0.218,1.399-0.504,2.049-0.851l4.193,1.993c0.909-0.725,1.733-1.549,2.458-2.458l-1.993-4.193c0.347-0.647,0.633-1.334,0.851-2.049L31.229,17.736zM16,20.871c-2.69,0-4.872-2.182-4.872-4.871c0-2.69,2.182-4.872,4.872-4.872c2.689,0,4.871,2.182,4.871,4.872C20.871,18.689,18.689,20.871,16,20.871z"></path><title>Link options.</title></g></g></g></g><!--z-index:73--><g   id="j_1162" ><path  stroke="#707070" d="M 1862 523 L 962 529" id="v-20820" stroke-width="2" stroke-dasharray="30 30" fill="none" style="opacity: 1;"></path><path  fill="black" stroke="black" d="M 0 0 0 0" transform="matrix(-0.9999818205833435,0.00603335490450263,-0.00603335490450263,-0.9999818205833435,1862,523.3599853515625)"></path><path  fill="#707070" stroke="#707070" d="M 20 0 L 0 10 L 20 20 z" id="v-20822" transform="matrix(0.9999818205833435,-0.00603308854624629,0.00603308854624629,0.9999818205833435,961.939697265625,518.7901611328125)" style="opacity: 1;"></path><path  d="M 1862 523 L 962 529" id="v-20821" fill="none" style="cursor: default;"></path><g ><g id="v-20811"  label-idx="0" cursor="move" transform="matrix(1,0,0,1,1412,526)" style="cursor: default; opacity: 1;"><rect joint-selector="rect" id="v-20815" fill="#ffffff" rx="3" ry="3" pointer-events="none" width="174.37242126464844" height="177.7313690185547" transform="matrix(1,0,0,1,-87.19999694824219,-88.9000015258789)"></rect><text joint-selector="text" id="v-20814" font-size="24px" xml:space="preserve" y="0.8em" fill="#707070" text-anchor="middle" pointer-events="none" font-family="Open Sans" font-weight="normal" transform="matrix(1,0,0,1,0,-82.80000305175781)"><tspan  dy="0">Enables</tspan><tspan dy="1.2em" x="0" >communication</tspan><tspan dy="1.2em" x="0" >between</tspan><tspan dy="1.2em" x="0" >organizations</tspan><tspan dy="1.2em" x="0" >and interested</tspan><tspan dy="1.2em" x="0" >travellers</tspan></text></g><g id="v-20812"  label-idx="1" cursor="move" transform="matrix(1,0,0,1,1412,624.4000244140625)" style="cursor: default; opacity: 1;"><rect joint-selector="rect" id="v-20817" fill="#ffffff" rx="3" ry="3" pointer-events="none" width="94.84584045410156" height="23.375" transform="matrix(1,0,0,1,-47.400001525878906,-11.699999809265137)"></rect><text joint-selector="text" id="v-20816" font-size="17px" xml:space="preserve" y="0.8em" fill="#707070" text-anchor="middle" pointer-events="none" font-family="Open Sans" font-weight="normal" transform="matrix(1,0,0,1,0,-6.199999809265137)"><tspan  dy="0">[Messaging]</tspan></text></g><g id="v-20813"  label-idx="2" cursor="move" transform="matrix(1,0,0,1,1402,632.7999877929688)" style="cursor: default; opacity: 1;"><rect joint-selector="rect" id="v-20819" fill="#ffffff" rx="3" ry="3"  width="0" height="0" transform="matrix(1,0,0,1,0,0)" display="none"></rect><text joint-selector="text" id="v-20818" fill="#000000" font-size="14" text-anchor="middle" pointer-events="none"></text></g></g><g  display="none"></g><g  id="v-20824" display="none"><g  id="v-20809"><path  end="source" d="M 26 0 L 0 13 L 26 26 z"></path></g><g  id="v-20810"><path  end="target" d="M 26 0 L 0 13 L 26 26 z"></path></g></g><g  id="v-20823" display="none"><g  id="v-20808" transform="translate(1822.0008888592604, 523.2666607409383) "><g  event="remove"><circle r="11"></circle><path transform="scale(.8) translate(-16, -16)" d="M24.778,21.419 19.276,15.917 24.777,10.415 21.949,7.585 16.447,13.087 10.945,7.585 8.117,10.415 13.618,15.917 8.116,21.419 10.946,24.248 16.447,18.746 21.948,24.248z"></path><title>Remove link.</title></g><g  event="link:options"><circle r="11" transform="translate(25)"></circle><path fill="white" transform="scale(.55) translate(29, -16)" d="M31.229,17.736c0.064-0.571,0.104-1.148,0.104-1.736s-0.04-1.166-0.104-1.737l-4.377-1.557c-0.218-0.716-0.504-1.401-0.851-2.05l1.993-4.192c-0.725-0.91-1.549-1.734-2.458-2.459l-4.193,1.994c-0.647-0.347-1.334-0.632-2.049-0.849l-1.558-4.378C17.165,0.708,16.588,0.667,16,0.667s-1.166,0.041-1.737,0.105L12.707,5.15c-0.716,0.217-1.401,0.502-2.05,0.849L6.464,4.005C5.554,4.73,4.73,5.554,4.005,6.464l1.994,4.192c-0.347,0.648-0.632,1.334-0.849,2.05l-4.378,1.557C0.708,14.834,0.667,15.412,0.667,16s0.041,1.165,0.105,1.736l4.378,1.558c0.217,0.715,0.502,1.401,0.849,2.049l-1.994,4.193c0.725,0.909,1.549,1.733,2.459,2.458l4.192-1.993c0.648,0.347,1.334,0.633,2.05,0.851l1.557,4.377c0.571,0.064,1.148,0.104,1.737,0.104c0.588,0,1.165-0.04,1.736-0.104l1.558-4.377c0.715-0.218,1.399-0.504,2.049-0.851l4.193,1.993c0.909-0.725,1.733-1.549,2.458-2.458l-1.993-4.193c0.347-0.647,0.633-1.334,0.851-2.049L31.229,17.736zM16,20.871c-2.69,0-4.872-2.182-4.872-4.871c0-2.69,2.182-4.872,4.872-4.872c2.689,0,4.871,2.182,4.871,4.872C20.871,18.689,18.689,20.871,16,20.871z"></path><title>Link options.</title></g></g></g></g><!--z-index:74--><g   id="j_1163" ><path  stroke="#707070" d="M 2243 2357 L 2690 2853 C 2694.6666666666665 2857.6666666666665 2700.333333333333 2860 2707 2860 L 4762 2865 C 4768.666666666666 2865 4772 2861.6666666666665 4772 2855 L 4747 535 C 4747 528.3333333333333 4743.666666666666 525 4737 525 L 3292 534" id="v-20843" stroke-width="2" stroke-dasharray="30 30" fill="none" style="opacity: 1;"></path><path  fill="black" stroke="black" d="M 0 0 0 0" transform="matrix(0.6704059839248657,0.7419945001602173,-0.7419945001602173,0.6704059839248657,2242.530029296875,2357)"></path><path  fill="#707070" stroke="#707070" d="M 20 0 L 0 10 L 20 20 z" id="v-20845" transform="matrix(0.9999822974205017,-0.0059515973553061485,0.0059515973553061485,0.9999822974205017,3291.9404296875,523.66015625)" style="opacity: 1;"></path><path  d="M 2243 2357 L 2690 2853 C 2694.6666666666665 2857.6666666666665 2700.333333333333 2860 2707 2860 L 4762 2865 C 4768.666666666666 2865 4772 2861.6666666666665 4772 2855 L 4747 535 C 4747 528.3333333333333 4743.666666666666 525 4737 525 L 3292 534" id="v-20844" fill="none" style="cursor: default;"></path><g ><g id="v-20834"  label-idx="0" cursor="move" transform="matrix(1,0,0,1,4766.4853515625,2343.25)" style="cursor: default; opacity: 1;"><rect joint-selector="rect" id="v-20838" fill="#ffffff" rx="3" ry="3" pointer-events="none" width="197.28164672851562" height="120.13136291503906" transform="matrix(1,0,0,1,-98.5999984741211,-60.099998474121094)"></rect><text joint-selector="text" id="v-20837" font-size="24px" xml:space="preserve" y="0.8em" fill="#707070" text-anchor="middle" pointer-events="none" font-family="Open Sans" font-weight="normal" transform="matrix(1,0,0,1,0,-54)"><tspan  dy="0">Manages</tspan><tspan dy="1.2em" x="0" >bookings for</tspan><tspan dy="1.2em" x="0" >sustainable travel</tspan><tspan dy="1.2em" x="0" >activities</tspan></text></g><g id="v-20835"  label-idx="1" cursor="move" transform="matrix(1,0,0,1,4766.4853515625,2412.849853515625)" style="cursor: default; opacity: 1;"><rect joint-selector="rect" id="v-20840" fill="#ffffff" rx="3" ry="3" pointer-events="none" width="49.724998474121094" height="23.375" transform="matrix(1,0,0,1,-24.899999618530273,-11.699999809265137)"></rect><text joint-selector="text" id="v-20839" font-size="17px" xml:space="preserve" y="0.8em" fill="#707070" text-anchor="middle" pointer-events="none" font-family="Open Sans" font-weight="normal" transform="matrix(1,0,0,1,0,-6.199999809265137)"><tspan  dy="0">[REST]</tspan></text></g><g id="v-20836"  label-idx="2" cursor="move" transform="matrix(1,0,0,1,4756.4853515625,2421.25)" style="cursor: default; opacity: 1;"><rect joint-selector="rect" id="v-20842" fill="#ffffff" rx="3" ry="3"  width="0" height="0" transform="matrix(1,0,0,1,0,0)" display="none"></rect><text joint-selector="text" id="v-20841" fill="#000000" font-size="14" text-anchor="middle" pointer-events="none"></text></g></g><g  display="none"><g  transform="translate(2697, 2860)" id="v-20829"><circle  idx="0" r="10"></circle><path  idx="0" d="M16,5.333c-7.732,0-14,4.701-14,10.5c0,1.982,0.741,3.833,2.016,5.414L2,25.667l5.613-1.441c2.339,1.317,5.237,2.107,8.387,2.107c7.732,0,14-4.701,14-10.5C30,10.034,23.732,5.333,16,5.333z" transform="translate(5, -33)"></path><path  idx="0" transform="scale(.8) translate(9.5, -37)" d="M24.778,21.419 19.276,15.917 24.777,10.415 21.949,7.585 16.447,13.087 10.945,7.585 8.117,10.415 13.618,15.917 8.116,21.419 10.946,24.248 16.447,18.746 21.948,24.248z"><title>Remove vertex.</title></path></g><g  transform="translate(4772, 2865)" id="v-20830"><circle  idx="1" r="10"></circle><path  idx="1" d="M16,5.333c-7.732,0-14,4.701-14,10.5c0,1.982,0.741,3.833,2.016,5.414L2,25.667l5.613-1.441c2.339,1.317,5.237,2.107,8.387,2.107c7.732,0,14-4.701,14-10.5C30,10.034,23.732,5.333,16,5.333z" transform="translate(5, -33)"></path><path  idx="1" transform="scale(.8) translate(9.5, -37)" d="M24.778,21.419 19.276,15.917 24.777,10.415 21.949,7.585 16.447,13.087 10.945,7.585 8.117,10.415 13.618,15.917 8.116,21.419 10.946,24.248 16.447,18.746 21.948,24.248z"><title>Remove vertex.</title></path></g><g  transform="translate(4747, 525)" id="v-20831"><circle  idx="2" r="10"></circle><path  idx="2" d="M16,5.333c-7.732,0-14,4.701-14,10.5c0,1.982,0.741,3.833,2.016,5.414L2,25.667l5.613-1.441c2.339,1.317,5.237,2.107,8.387,2.107c7.732,0,14-4.701,14-10.5C30,10.034,23.732,5.333,16,5.333z" transform="translate(5, -33)"></path><path  idx="2" transform="scale(.8) translate(9.5, -37)" d="M24.778,21.419 19.276,15.917 24.777,10.415 21.949,7.585 16.447,13.087 10.945,7.585 8.117,10.415 13.618,15.917 8.116,21.419 10.946,24.248 16.447,18.746 21.948,24.248z"><title>Remove vertex.</title></path></g></g><g  id="v-20847" display="none"><g  id="v-20832"><path  end="source" d="M 26 0 L 0 13 L 26 26 z"></path></g><g  id="v-20833"><path  end="target" d="M 26 0 L 0 13 L 26 26 z"></path></g></g><g  id="v-20846" display="none"><g  id="v-20828" transform="translate(2269.7784419796776, 2386.713886402506) "><g  event="remove"><circle r="11"></circle><path transform="scale(.8) translate(-16, -16)" d="M24.778,21.419 19.276,15.917 24.777,10.415 21.949,7.585 16.447,13.087 10.945,7.585 8.117,10.415 13.618,15.917 8.116,21.419 10.946,24.248 16.447,18.746 21.948,24.248z"></path><title>Remove link.</title></g><g  event="link:options"><circle r="11" transform="translate(25)"></circle><path fill="white" transform="scale(.55) translate(29, -16)" d="M31.229,17.736c0.064-0.571,0.104-1.148,0.104-1.736s-0.04-1.166-0.104-1.737l-4.377-1.557c-0.218-0.716-0.504-1.401-0.851-2.05l1.993-4.192c-0.725-0.91-1.549-1.734-2.458-2.459l-4.193,1.994c-0.647-0.347-1.334-0.632-2.049-0.849l-1.558-4.378C17.165,0.708,16.588,0.667,16,0.667s-1.166,0.041-1.737,0.105L12.707,5.15c-0.716,0.217-1.401,0.502-2.05,0.849L6.464,4.005C5.554,4.73,4.73,5.554,4.005,6.464l1.994,4.192c-0.347,0.648-0.632,1.334-0.849,2.05l-4.378,1.557C0.708,14.834,0.667,15.412,0.667,16s0.041,1.165,0.105,1.736l4.378,1.558c0.217,0.715,0.502,1.401,0.849,2.049l-1.994,4.193c0.725,0.909,1.549,1.733,2.459,2.458l4.192-1.993c0.648,0.347,1.334,0.633,2.05,0.851l1.557,4.377c0.571,0.064,1.148,0.104,1.737,0.104c0.588,0,1.165-0.04,1.736-0.104l1.558-4.377c0.715-0.218,1.399-0.504,2.049-0.851l4.193,1.993c0.909-0.725,1.733-1.549,2.458-2.458l-1.993-4.193c0.347-0.647,0.633-1.334,0.851-2.049L31.229,17.736zM16,20.871c-2.69,0-4.872-2.182-4.872-4.871c0-2.69,2.182-4.872,4.872-4.872c2.689,0,4.871,2.182,4.871,4.872C20.871,18.689,18.689,20.871,16,20.871z"></path><title>Link options.</title></g></g></g></g><!--z-index:75--><g   id="j_1164" ><path  stroke="#707070" d="M 3322 2324 L 3593 2340 C 3599.4336436264466 2340.467934821131 3605.4336436264466 2339.1346014877977 3611 2336 L 3812 2215" id="v-20864" stroke-width="2" stroke-dasharray="30 30" fill="none" style="opacity: 1;"></path><path  fill="black" stroke="black" d="M 0 0 0 0" transform="matrix(0.9981614351272583,0.06061123311519623,-0.06061123311519623,0.9981614351272583,3322,2323.659912109375)"></path><path  fill="#707070" stroke="#707070" d="M 20 0 L 0 10 L 20 20 z" id="v-20866" transform="matrix(-0.8574166893959045,0.5146228075027466,-0.5146228075027466,-0.8574166893959045,3817.146240234375,2223.624267578125)" style="opacity: 1;"></path><path  d="M 3322 2324 L 3593 2340 C 3599.4336436264466 2340.467934821131 3605.4336436264466 2339.1346014877977 3611 2336 L 3812 2215" id="v-20865" fill="none" style="cursor: default;"></path><g ><g id="v-20855"  label-idx="0" cursor="move" transform="matrix(1,0,0,1,3583.940185546875,2339.465087890625)" style="cursor: default; opacity: 1;"><rect joint-selector="rect" id="v-20859" fill="#ffffff" rx="3" ry="3" pointer-events="none" width="159.38070678710938" height="91.33136749267578" transform="matrix(1,0,0,1,-79.69999694824219,-45.70000076293945)"></rect><text joint-selector="text" id="v-20858" font-size="24px" xml:space="preserve" y="0.8em" fill="#707070" text-anchor="middle" pointer-events="none" font-family="Open Sans" font-weight="normal" transform="matrix(1,0,0,1,0,-39.599998474121094)"><tspan  dy="0">Processes</tspan><tspan dy="1.2em" x="0" >payments and</tspan><tspan dy="1.2em" x="0" >transactions</tspan></text></g><g id="v-20856"  label-idx="1" cursor="move" transform="matrix(1,0,0,1,3583.940185546875,2394.6650390625)" style="cursor: default; opacity: 1;"><rect joint-selector="rect" id="v-20861" fill="#ffffff" rx="3" ry="3" pointer-events="none" width="49.724998474121094" height="23.375" transform="matrix(1,0,0,1,-24.899999618530273,-11.699999809265137)"></rect><text joint-selector="text" id="v-20860" font-size="17px" xml:space="preserve" y="0.8em" fill="#707070" text-anchor="middle" pointer-events="none" font-family="Open Sans" font-weight="normal" transform="matrix(1,0,0,1,0,-6.199999809265137)"><tspan  dy="0">[REST]</tspan></text></g><g id="v-20857"  label-idx="2" cursor="move" transform="matrix(1,0,0,1,3573.940185546875,2403.065185546875)" style="cursor: default; opacity: 1;"><rect joint-selector="rect" id="v-20863" fill="#ffffff" rx="3" ry="3"  width="0" height="0" transform="matrix(1,0,0,1,0,0)" display="none"></rect><text joint-selector="text" id="v-20862" fill="#000000" font-size="14" text-anchor="middle" pointer-events="none"></text></g></g><g  display="none"><g  transform="translate(3602.6504654396704, 2340.7019022316967)" id="v-20852"><circle  idx="0" r="10"></circle><path  idx="0" d="M16,5.333c-7.732,0-14,4.701-14,10.5c0,1.982,0.741,3.833,2.016,5.414L2,25.667l5.613-1.441c2.339,1.317,5.237,2.107,8.387,2.107c7.732,0,14-4.701,14-10.5C30,10.034,23.732,5.333,16,5.333z" transform="translate(5, -33)"></path><path  idx="0" transform="scale(.8) translate(9.5, -37)" d="M24.778,21.419 19.276,15.917 24.777,10.415 21.949,7.585 16.447,13.087 10.945,7.585 8.117,10.415 13.618,15.917 8.116,21.419 10.946,24.248 16.447,18.746 21.948,24.248z"><title>Remove vertex.</title></path></g></g><g  id="v-20868" display="none"><g  id="v-20853"><path  end="source" d="M 26 0 L 0 13 L 26 26 z"></path></g><g  id="v-20854"><path  end="target" d="M 26 0 L 0 13 L 26 26 z"></path></g></g><g  id="v-20867" display="none"><g  id="v-20851" transform="translate(3361.9304659069794, 2326.357518282331) "><g  event="remove"><circle r="11"></circle><path transform="scale(.8) translate(-16, -16)" d="M24.778,21.419 19.276,15.917 24.777,10.415 21.949,7.585 16.447,13.087 10.945,7.585 8.117,10.415 13.618,15.917 8.116,21.419 10.946,24.248 16.447,18.746 21.948,24.248z"></path><title>Remove link.</title></g><g  event="link:options"><circle r="11" transform="translate(25)"></circle><path fill="white" transform="scale(.55) translate(29, -16)" d="M31.229,17.736c0.064-0.571,0.104-1.148,0.104-1.736s-0.04-1.166-0.104-1.737l-4.377-1.557c-0.218-0.716-0.504-1.401-0.851-2.05l1.993-4.192c-0.725-0.91-1.549-1.734-2.458-2.459l-4.193,1.994c-0.647-0.347-1.334-0.632-2.049-0.849l-1.558-4.378C17.165,0.708,16.588,0.667,16,0.667s-1.166,0.041-1.737,0.105L12.707,5.15c-0.716,0.217-1.401,0.502-2.05,0.849L6.464,4.005C5.554,4.73,4.73,5.554,4.005,6.464l1.994,4.192c-0.347,0.648-0.632,1.334-0.849,2.05l-4.378,1.557C0.708,14.834,0.667,15.412,0.667,16s0.041,1.165,0.105,1.736l4.378,1.558c0.217,0.715,0.502,1.401,0.849,2.049l-1.994,4.193c0.725,0.909,1.549,1.733,2.459,2.458l4.192-1.993c0.648,0.347,1.334,0.633,2.05,0.851l1.557,4.377c0.571,0.064,1.148,0.104,1.737,0.104c0.588,0,1.165-0.04,1.736-0.104l1.558-4.377c0.715-0.218,1.399-0.504,2.049-0.851l4.193,1.993c0.909-0.725,1.733-1.549,2.458-2.458l-1.993-4.193c0.347-0.647,0.633-1.334,0.851-2.049L31.229,17.736zM16,20.871c-2.69,0-4.872-2.182-4.872-4.871c0-2.69,2.182-4.872,4.872-4.872c2.689,0,4.871,2.182,4.871,4.872C20.871,18.689,18.689,20.871,16,20.871z"></path><title>Link options.</title></g></g></g></g><!--z-index:76--><g   id="j_1165" ><path  stroke="#707070" d="M 3812 2082 L 3537 2085 C 3530.333333333333 2085 3523.9999999999995 2086.6666666666665 3518 2090 L 3322 2192" id="v-20882" stroke-width="2" stroke-dasharray="30 30" fill="none" style="opacity: 1;"></path><path  fill="black" stroke="black" d="M 0 0 0 0" transform="matrix(-0.9999520778656006,0.009789091534912586,-0.009789091534912586,-0.9999520778656006,3812,2082.2099609375)"></path><path  fill="#707070" stroke="#707070" d="M 20 0 L 0 10 L 20 20 z" id="v-20884" transform="matrix(0.886028528213501,-0.4636307656764984,0.4636307656764984,0.886028528213501,3317.36376953125,2183.409912109375)" style="opacity: 1;"></path><path  d="M 3812 2082 L 3537 2085 C 3530.333333333333 2085 3523.9999999999995 2086.6666666666665 3518 2090 L 3322 2192" id="v-20883" fill="none" style="cursor: default;"></path><g ><g id="v-20873"  label-idx="0" cursor="move" transform="matrix(1,0,0,1,3554.100341796875,2084.8134765625)" style="cursor: default; opacity: 1;"><rect joint-selector="rect" id="v-20877" fill="#ffffff" rx="3" ry="3" pointer-events="none" width="92.66756439208984" height="33.73136520385742" transform="matrix(1,0,0,1,-46.29999923706055,-16.899999618530273)"></rect><text joint-selector="text" id="v-20876" font-size="24px" xml:space="preserve" y="0.8em" fill="#707070" text-anchor="middle" pointer-events="none" font-family="Open Sans" font-weight="normal" transform="matrix(1,0,0,1,0,-10.800000190734863)"><tspan  dy="0">Callback</tspan></text></g><g id="v-20874"  label-idx="1" cursor="move" transform="matrix(1,0,0,1,3554.100341796875,2111.21337890625)" style="cursor: default; opacity: 1;"><rect joint-selector="rect" id="v-20879" fill="#ffffff" rx="3" ry="3" pointer-events="none" width="49.724998474121094" height="23.375" transform="matrix(1,0,0,1,-24.899999618530273,-11.699999809265137)"></rect><text joint-selector="text" id="v-20878" font-size="17px" xml:space="preserve" y="0.8em" fill="#707070" text-anchor="middle" pointer-events="none" font-family="Open Sans" font-weight="normal" transform="matrix(1,0,0,1,0,-6.199999809265137)"><tspan  dy="0">[REST]</tspan></text></g><g id="v-20875"  label-idx="2" cursor="move" transform="matrix(1,0,0,1,3544.100341796875,2119.613525390625)" style="cursor: default; opacity: 1;"><rect joint-selector="rect" id="v-20881" fill="#ffffff" rx="3" ry="3"  width="0" height="0" transform="matrix(1,0,0,1,0,0)" display="none"></rect><text joint-selector="text" id="v-20880" fill="#000000" font-size="14" text-anchor="middle" pointer-events="none"></text></g></g><g  display="none"><g  transform="translate(3527, 2085)" id="v-20870"><circle  idx="0" r="10"></circle><path  idx="0" d="M16,5.333c-7.732,0-14,4.701-14,10.5c0,1.982,0.741,3.833,2.016,5.414L2,25.667l5.613-1.441c2.339,1.317,5.237,2.107,8.387,2.107c7.732,0,14-4.701,14-10.5C30,10.034,23.732,5.333,16,5.333z" transform="translate(5, -33)"></path><path  idx="0" transform="scale(.8) translate(9.5, -37)" d="M24.778,21.419 19.276,15.917 24.777,10.415 21.949,7.585 16.447,13.087 10.945,7.585 8.117,10.415 13.618,15.917 8.116,21.419 10.946,24.248 16.447,18.746 21.948,24.248z"><title>Remove vertex.</title></path></g></g><g  id="v-20886" display="none"><g  id="v-20871"><path  end="source" d="M 26 0 L 0 13 L 26 26 z"></path></g><g  id="v-20872"><path  end="target" d="M 26 0 L 0 13 L 26 26 z"></path></g></g><g  id="v-20885" display="none"><g  id="v-20869" transform="translate(3772.002379952866, 2082.4363376732417) "><g  event="remove"><circle r="11"></circle><path transform="scale(.8) translate(-16, -16)" d="M24.778,21.419 19.276,15.917 24.777,10.415 21.949,7.585 16.447,13.087 10.945,7.585 8.117,10.415 13.618,15.917 8.116,21.419 10.946,24.248 16.447,18.746 21.948,24.248z"></path><title>Remove link.</title></g><g  event="link:options"><circle r="11" transform="translate(25)"></circle><path fill="white" transform="scale(.55) translate(29, -16)" d="M31.229,17.736c0.064-0.571,0.104-1.148,0.104-1.736s-0.04-1.166-0.104-1.737l-4.377-1.557c-0.218-0.716-0.504-1.401-0.851-2.05l1.993-4.192c-0.725-0.91-1.549-1.734-2.458-2.459l-4.193,1.994c-0.647-0.347-1.334-0.632-2.049-0.849l-1.558-4.378C17.165,0.708,16.588,0.667,16,0.667s-1.166,0.041-1.737,0.105L12.707,5.15c-0.716,0.217-1.401,0.502-2.05,0.849L6.464,4.005C5.554,4.73,4.73,5.554,4.005,6.464l1.994,4.192c-0.347,0.648-0.632,1.334-0.849,2.05l-4.378,1.557C0.708,14.834,0.667,15.412,0.667,16s0.041,1.165,0.105,1.736l4.378,1.558c0.217,0.715,0.502,1.401,0.849,2.049l-1.994,4.193c0.725,0.909,1.549,1.733,2.459,2.458l4.192-1.993c0.648,0.347,1.334,0.633,2.05,0.851l1.557,4.377c0.571,0.064,1.148,0.104,1.737,0.104c0.588,0,1.165-0.04,1.736-0.104l1.558-4.377c0.715-0.218,1.399-0.504,2.049-0.851l4.193,1.993c0.909-0.725,1.733-1.549,2.458-2.458l-1.993-4.193c0.347-0.647,0.633-1.334,0.851-2.049L31.229,17.736zM16,20.871c-2.69,0-4.872-2.182-4.872-4.871c0-2.69,2.182-4.872,4.872-4.872c2.689,0,4.871,2.182,4.871,4.872C20.871,18.689,18.689,20.871,16,20.871z"></path><title>Link options.</title></g></g></g></g><!--z-index:77--><g   id="j_1166" ><path  stroke="#707070" d="M 3812 1939 L 3607 1811 C 3601.602325927797 1807.1786361754603 3595.602325927797 1805.5119695087935 3589 1806 L 3307 1814" id="v-20900" stroke-width="2" stroke-dasharray="30 30" fill="none" style="opacity: 1;"></path><path  fill="black" stroke="black" d="M 0 0 0 0" transform="matrix(-0.8471991419792175,-0.5312755107879639,0.5312755107879639,-0.8471991419792175,3812,1938.9000244140625)"></path><path  fill="#707070" stroke="#707070" d="M 20 0 L 0 10 L 20 20 z" id="v-20902" transform="matrix(0.9995938539505005,-0.02849782444536686,0.02849782444536686,0.9995938539505005,3306.71484375,1803.5941162109375)" style="opacity: 1;"></path><path  d="M 3812 1939 L 3607 1811 C 3601.602325927797 1807.1786361754603 3595.602325927797 1805.5119695087935 3589 1806 L 3307 1814" id="v-20901" fill="none" style="cursor: default;"></path><g ><g id="v-20891"  label-idx="0" cursor="move" transform="matrix(1,0,0,1,3578.322265625,1806.3028564453125)" style="cursor: default; opacity: 1;"><rect joint-selector="rect" id="v-20895" fill="#ffffff" rx="3" ry="3" pointer-events="none" width="92.66756439208984" height="33.73136520385742" transform="matrix(1,0,0,1,-46.29999923706055,-16.899999618530273)"></rect><text joint-selector="text" id="v-20894" font-size="24px" xml:space="preserve" y="0.8em" fill="#707070" text-anchor="middle" pointer-events="none" font-family="Open Sans" font-weight="normal" transform="matrix(1,0,0,1,0,-10.800000190734863)"><tspan  dy="0">Callback</tspan></text></g><g id="v-20892"  label-idx="1" cursor="move" transform="matrix(1,0,0,1,3578.322265625,1832.702880859375)" style="cursor: default; opacity: 1;"><rect joint-selector="rect" id="v-20897" fill="#ffffff" rx="3" ry="3" pointer-events="none" width="49.724998474121094" height="23.375" transform="matrix(1,0,0,1,-24.899999618530273,-11.699999809265137)"></rect><text joint-selector="text" id="v-20896" font-size="17px" xml:space="preserve" y="0.8em" fill="#707070" text-anchor="middle" pointer-events="none" font-family="Open Sans" font-weight="normal" transform="matrix(1,0,0,1,0,-6.199999809265137)"><tspan  dy="0">[REST]</tspan></text></g><g id="v-20893"  label-idx="2" cursor="move" transform="matrix(1,0,0,1,3568.322265625,1841.1029052734375)" style="cursor: default; opacity: 1;"><rect joint-selector="rect" id="v-20899" fill="#ffffff" rx="3" ry="3"  width="0" height="0" transform="matrix(1,0,0,1,0,0)" display="none"></rect><text joint-selector="text" id="v-20898" fill="#000000" font-size="14" text-anchor="middle" pointer-events="none"></text></g></g><g  display="none"><g  transform="translate(3598.9034888916967, 1805.2679542631904)" id="v-20888"><circle  idx="0" r="10"></circle><path  idx="0" d="M16,5.333c-7.732,0-14,4.701-14,10.5c0,1.982,0.741,3.833,2.016,5.414L2,25.667l5.613-1.441c2.339,1.317,5.237,2.107,8.387,2.107c7.732,0,14-4.701,14-10.5C30,10.034,23.732,5.333,16,5.333z" transform="translate(5, -33)"></path><path  idx="0" transform="scale(.8) translate(9.5, -37)" d="M24.778,21.419 19.276,15.917 24.777,10.415 21.949,7.585 16.447,13.087 10.945,7.585 8.117,10.415 13.618,15.917 8.116,21.419 10.946,24.248 16.447,18.746 21.948,24.248z"><title>Remove vertex.</title></path></g></g><g  id="v-20904" display="none"><g  id="v-20889"><path  end="source" d="M 26 0 L 0 13 L 26 26 z"></path></g><g  id="v-20890"><path  end="target" d="M 26 0 L 0 13 L 26 26 z"></path></g></g><g  id="v-20903" display="none"><g  id="v-20887" transform="translate(3778.0707728762086, 1917.8149216007546) "><g  event="remove"><circle r="11"></circle><path transform="scale(.8) translate(-16, -16)" d="M24.778,21.419 19.276,15.917 24.777,10.415 21.949,7.585 16.447,13.087 10.945,7.585 8.117,10.415 13.618,15.917 8.116,21.419 10.946,24.248 16.447,18.746 21.948,24.248z"></path><title>Remove link.</title></g><g  event="link:options"><circle r="11" transform="translate(25)"></circle><path fill="white" transform="scale(.55) translate(29, -16)" d="M31.229,17.736c0.064-0.571,0.104-1.148,0.104-1.736s-0.04-1.166-0.104-1.737l-4.377-1.557c-0.218-0.716-0.504-1.401-0.851-2.05l1.993-4.192c-0.725-0.91-1.549-1.734-2.458-2.459l-4.193,1.994c-0.647-0.347-1.334-0.632-2.049-0.849l-1.558-4.378C17.165,0.708,16.588,0.667,16,0.667s-1.166,0.041-1.737,0.105L12.707,5.15c-0.716,0.217-1.401,0.502-2.05,0.849L6.464,4.005C5.554,4.73,4.73,5.554,4.005,6.464l1.994,4.192c-0.347,0.648-0.632,1.334-0.849,2.05l-4.378,1.557C0.708,14.834,0.667,15.412,0.667,16s0.041,1.165,0.105,1.736l4.378,1.558c0.217,0.715,0.502,1.401,0.849,2.049l-1.994,4.193c0.725,0.909,1.549,1.733,2.459,2.458l4.192-1.993c0.648,0.347,1.334,0.633,2.05,0.851l1.557,4.377c0.571,0.064,1.148,0.104,1.737,0.104c0.588,0,1.165-0.04,1.736-0.104l1.558-4.377c0.715-0.218,1.399-0.504,2.049-0.851l4.193,1.993c0.909-0.725,1.733-1.549,2.458-2.458l-1.993-4.193c0.347-0.647,0.633-1.334,0.851-2.049L31.229,17.736zM16,20.871c-2.69,0-4.872-2.182-4.872-4.871c0-2.69,2.182-4.872,4.872-4.872c2.689,0,4.871,2.182,4.871,4.872C20.871,18.689,18.689,20.871,16,20.871z"></path><title>Link options.</title></g></g></g></g><!--z-index:78--><g   id="j_1167" ><path  stroke="#707070" d="M 3094 2160 L 3070 685" id="v-20920" stroke-width="2" stroke-dasharray="30 30" fill="none" style="opacity: 1;"></path><path  fill="black" stroke="black" d="M 0 0 0 0" transform="matrix(-0.01689269207417965,-0.9998573064804077,0.9998573064804077,-0.01689269207417965,3094.4599609375,2160)"></path><path  fill="#707070" stroke="#707070" d="M 20 0 L 0 10 L 20 20 z" id="v-20922" transform="matrix(0.016892559826374054,0.9998573064804077,-0.9998573064804077,0.016892559826374054,3079.53857421875,684.8311157226562)" style="opacity: 1;"></path><path  d="M 3094 2160 L 3070 685" id="v-20921" fill="none" style="cursor: default;"></path><g ><g id="v-20911"  label-idx="0" cursor="move" transform="matrix(1,0,0,1,3082,1422.5)" style="cursor: default; opacity: 1;"><rect joint-selector="rect" id="v-20915" fill="#ffffff" rx="3" ry="3" pointer-events="none" width="197.93753051757812" height="62.5313663482666" transform="matrix(1,0,0,1,-99,-31.299999237060547)"></rect><text joint-selector="text" id="v-20914" font-size="24px" xml:space="preserve" y="0.8em" fill="#707070" text-anchor="middle" pointer-events="none" font-family="Open Sans" font-weight="normal" transform="matrix(1,0,0,1,0,-25.200000762939453)"><tspan  dy="0">Confirm bookings</tspan><tspan dy="1.2em" x="0" >and transactions</tspan></text></g><g id="v-20912"  label-idx="1" cursor="move" transform="matrix(1,0,0,1,3082,1463.300048828125)" style="cursor: default; opacity: 1;"><rect joint-selector="rect" id="v-20917" fill="#ffffff" rx="3" ry="3" pointer-events="none" width="49.724998474121094" height="23.375" transform="matrix(1,0,0,1,-24.899999618530273,-11.699999809265137)"></rect><text joint-selector="text" id="v-20916" font-size="17px" xml:space="preserve" y="0.8em" fill="#707070" text-anchor="middle" pointer-events="none" font-family="Open Sans" font-weight="normal" transform="matrix(1,0,0,1,0,-6.199999809265137)"><tspan  dy="0">[REST]</tspan></text></g><g id="v-20913"  label-idx="2" cursor="move" transform="matrix(1,0,0,1,3072,1471.699951171875)" style="cursor: default; opacity: 1;"><rect joint-selector="rect" id="v-20919" fill="#ffffff" rx="3" ry="3"  width="0" height="0" transform="matrix(1,0,0,1,0,0)" display="none"></rect><text joint-selector="text" id="v-20918" fill="#000000" font-size="14" text-anchor="middle" pointer-events="none"></text></g></g><g  display="none"></g><g  id="v-20924" display="none"><g  id="v-20909"><path  end="source" d="M 26 0 L 0 13 L 26 26 z"></path></g><g  id="v-20910"><path  end="target" d="M 26 0 L 0 13 L 26 26 z"></path></g></g><g  id="v-20923" display="none"><g  id="v-20908" transform="translate(3093.3492386816924, 2120.0052939789953) "><g  event="remove"><circle r="11"></circle><path transform="scale(.8) translate(-16, -16)" d="M24.778,21.419 19.276,15.917 24.777,10.415 21.949,7.585 16.447,13.087 10.945,7.585 8.117,10.415 13.618,15.917 8.116,21.419 10.946,24.248 16.447,18.746 21.948,24.248z"></path><title>Remove link.</title></g><g  event="link:options"><circle r="11" transform="translate(25)"></circle><path fill="white" transform="scale(.55) translate(29, -16)" d="M31.229,17.736c0.064-0.571,0.104-1.148,0.104-1.736s-0.04-1.166-0.104-1.737l-4.377-1.557c-0.218-0.716-0.504-1.401-0.851-2.05l1.993-4.192c-0.725-0.91-1.549-1.734-2.458-2.459l-4.193,1.994c-0.647-0.347-1.334-0.632-2.049-0.849l-1.558-4.378C17.165,0.708,16.588,0.667,16,0.667s-1.166,0.041-1.737,0.105L12.707,5.15c-0.716,0.217-1.401,0.502-2.05,0.849L6.464,4.005C5.554,4.73,4.73,5.554,4.005,6.464l1.994,4.192c-0.347,0.648-0.632,1.334-0.849,2.05l-4.378,1.557C0.708,14.834,0.667,15.412,0.667,16s0.041,1.165,0.105,1.736l4.378,1.558c0.217,0.715,0.502,1.401,0.849,2.049l-1.994,4.193c0.725,0.909,1.549,1.733,2.459,2.458l4.192-1.993c0.648,0.347,1.334,0.633,2.05,0.851l1.557,4.377c0.571,0.064,1.148,0.104,1.737,0.104c0.588,0,1.165-0.04,1.736-0.104l1.558-4.377c0.715-0.218,1.399-0.504,2.049-0.851l4.193,1.993c0.909-0.725,1.733-1.549,2.458-2.458l-1.993-4.193c0.347-0.647,0.633-1.334,0.851-2.049L31.229,17.736zM16,20.871c-2.69,0-4.872-2.182-4.872-4.871c0-2.69,2.182-4.872,4.872-4.872c2.689,0,4.871,2.182,4.871,4.872C20.871,18.689,18.689,20.871,16,20.871z"></path><title>Link options.</title></g></g></g></g><!--z-index:79--><g   id="j_1168" ><path  stroke="#707070" d="M 1882 2207 L 294 2205 C 287.3333333333333 2205 284 2201.6666666666665 284 2195 L 282 240 C 282 233.33333333333331 285.3333333333333 229.99999999999997 292 230 L 1462 227 C 1468.6666666666665 226.99999999999997 1475 228.33333333333331 1481 231 L 1862 414" id="v-20943" stroke-width="2" stroke-dasharray="30 30" fill="none" style="opacity: 1;"></path><path  fill="black" stroke="black" d="M 0 0 0 0" transform="matrix(-0.9999994039535522,-0.0010950915748253465,0.0010950915748253465,-0.9999994039535522,1882,2206.75)"></path><path  fill="#707070" stroke="#707070" d="M 20 0 L 0 10 L 20 20 z" id="v-20945" transform="matrix(-0.9016402363777161,-0.432486891746521,0.432486891746521,-0.9016402363777161,1857.6751708984375,423.0863952636719)" style="opacity: 1;"></path><path  d="M 1882 2207 L 294 2205 C 287.3333333333333 2205 284 2201.6666666666665 284 2195 L 282 240 C 282 233.33333333333331 285.3333333333333 229.99999999999997 292 230 L 1462 227 C 1468.6666666666665 226.99999999999997 1475 228.33333333333331 1481 231 L 1862 414" id="v-20944" fill="none" style="cursor: default;"></path><g ><g id="v-20934"  label-idx="0" cursor="move" transform="matrix(1,0,0,1,282.98760986328125,1205.3841552734375)" style="cursor: default; opacity: 1;"><rect joint-selector="rect" id="v-20938" fill="#ffffff" rx="3" ry="3" pointer-events="none" width="167.11080932617188" height="91.33136749267578" transform="matrix(1,0,0,1,-83.5999984741211,-45.70000076293945)"></rect><text joint-selector="text" id="v-20937" font-size="24px" xml:space="preserve" y="0.8em" fill="#707070" text-anchor="middle" pointer-events="none" font-family="Open Sans" font-weight="normal" transform="matrix(1,0,0,1,0,-39.599998474121094)"><tspan  dy="0">Sends</tspan><tspan dy="1.2em" x="0" >notifications to</tspan><tspan dy="1.2em" x="0" >participants</tspan></text></g><g id="v-20935"  label-idx="1" cursor="move" transform="matrix(1,0,0,1,282.98760986328125,1260.5841064453125)" style="cursor: default; opacity: 1;"><rect joint-selector="rect" id="v-20940" fill="#ffffff" rx="3" ry="3" pointer-events="none" width="94.84584045410156" height="23.375" transform="matrix(1,0,0,1,-47.400001525878906,-11.699999809265137)"></rect><text joint-selector="text" id="v-20939" font-size="17px" xml:space="preserve" y="0.8em" fill="#707070" text-anchor="middle" pointer-events="none" font-family="Open Sans" font-weight="normal" transform="matrix(1,0,0,1,0,-6.199999809265137)"><tspan  dy="0">[Messaging]</tspan></text></g><g id="v-20936"  label-idx="2" cursor="move" transform="matrix(1,0,0,1,272.98760986328125,1268.984130859375)" style="cursor: default; opacity: 1;"><rect joint-selector="rect" id="v-20942" fill="#ffffff" rx="3" ry="3"  width="0" height="0" transform="matrix(1,0,0,1,0,0)" display="none"></rect><text joint-selector="text" id="v-20941" fill="#000000" font-size="14" text-anchor="middle" pointer-events="none"></text></g></g><g  display="none"><g  transform="translate(284, 2205)" id="v-20929"><circle  idx="0" r="10"></circle><path  idx="0" d="M16,5.333c-7.732,0-14,4.701-14,10.5c0,1.982,0.741,3.833,2.016,5.414L2,25.667l5.613-1.441c2.339,1.317,5.237,2.107,8.387,2.107c7.732,0,14-4.701,14-10.5C30,10.034,23.732,5.333,16,5.333z" transform="translate(5, -33)"></path><path  idx="0" transform="scale(.8) translate(9.5, -37)" d="M24.778,21.419 19.276,15.917 24.777,10.415 21.949,7.585 16.447,13.087 10.945,7.585 8.117,10.415 13.618,15.917 8.116,21.419 10.946,24.248 16.447,18.746 21.948,24.248z"><title>Remove vertex.</title></path></g><g  transform="translate(282, 230)" id="v-20930"><circle  idx="1" r="10"></circle><path  idx="1" d="M16,5.333c-7.732,0-14,4.701-14,10.5c0,1.982,0.741,3.833,2.016,5.414L2,25.667l5.613-1.441c2.339,1.317,5.237,2.107,8.387,2.107c7.732,0,14-4.701,14-10.5C30,10.034,23.732,5.333,16,5.333z" transform="translate(5, -33)"></path><path  idx="1" transform="scale(.8) translate(9.5, -37)" d="M24.778,21.419 19.276,15.917 24.777,10.415 21.949,7.585 16.447,13.087 10.945,7.585 8.117,10.415 13.618,15.917 8.116,21.419 10.946,24.248 16.447,18.746 21.948,24.248z"><title>Remove vertex.</title></path></g><g  transform="translate(1472, 227)" id="v-20931"><circle  idx="2" r="10"></circle><path  idx="2" d="M16,5.333c-7.732,0-14,4.701-14,10.5c0,1.982,0.741,3.833,2.016,5.414L2,25.667l5.613-1.441c2.339,1.317,5.237,2.107,8.387,2.107c7.732,0,14-4.701,14-10.5C30,10.034,23.732,5.333,16,5.333z" transform="translate(5, -33)"></path><path  idx="2" transform="scale(.8) translate(9.5, -37)" d="M24.778,21.419 19.276,15.917 24.777,10.415 21.949,7.585 16.447,13.087 10.945,7.585 8.117,10.415 13.618,15.917 8.116,21.419 10.946,24.248 16.447,18.746 21.948,24.248z"><title>Remove vertex.</title></path></g></g><g  id="v-20947" display="none"><g  id="v-20932"><path  end="source" d="M 26 0 L 0 13 L 26 26 z"></path></g><g  id="v-20933"><path  end="target" d="M 26 0 L 0 13 L 26 26 z"></path></g></g><g  id="v-20946" display="none"><g  id="v-20928" transform="translate(1842.0000317240392, 2206.9496222062016) "><g  event="remove"><circle r="11"></circle><path transform="scale(.8) translate(-16, -16)" d="M24.778,21.419 19.276,15.917 24.777,10.415 21.949,7.585 16.447,13.087 10.945,7.585 8.117,10.415 13.618,15.917 8.116,21.419 10.946,24.248 16.447,18.746 21.948,24.248z"></path><title>Remove link.</title></g><g  event="link:options"><circle r="11" transform="translate(25)"></circle><path fill="white" transform="scale(.55) translate(29, -16)" d="M31.229,17.736c0.064-0.571,0.104-1.148,0.104-1.736s-0.04-1.166-0.104-1.737l-4.377-1.557c-0.218-0.716-0.504-1.401-0.851-2.05l1.993-4.192c-0.725-0.91-1.549-1.734-2.458-2.459l-4.193,1.994c-0.647-0.347-1.334-0.632-2.049-0.849l-1.558-4.378C17.165,0.708,16.588,0.667,16,0.667s-1.166,0.041-1.737,0.105L12.707,5.15c-0.716,0.217-1.401,0.502-2.05,0.849L6.464,4.005C5.554,4.73,4.73,5.554,4.005,6.464l1.994,4.192c-0.347,0.648-0.632,1.334-0.849,2.05l-4.378,1.557C0.708,14.834,0.667,15.412,0.667,16s0.041,1.165,0.105,1.736l4.378,1.558c0.217,0.715,0.502,1.401,0.849,2.049l-1.994,4.193c0.725,0.909,1.549,1.733,2.459,2.458l4.192-1.993c0.648,0.347,1.334,0.633,2.05,0.851l1.557,4.377c0.571,0.064,1.148,0.104,1.737,0.104c0.588,0,1.165-0.04,1.736-0.104l1.558-4.377c0.715-0.218,1.399-0.504,2.049-0.851l4.193,1.993c0.909-0.725,1.733-1.549,2.458-2.458l-1.993-4.193c0.347-0.647,0.633-1.334,0.851-2.049L31.229,17.736zM16,20.871c-2.69,0-4.872-2.182-4.872-4.871c0-2.69,2.182-4.872,4.872-4.872c2.689,0,4.871,2.182,4.871,4.872C20.871,18.689,18.689,20.871,16,20.871z"></path><title>Link options.</title></g></g></g></g><!--z-index:80--><g   id="j_1169" ><path  stroke="#707070" d="M 2842 532 L 2312 525" id="v-20963" stroke-width="2" stroke-dasharray="30 30" fill="none" style="opacity: 1;"></path><path  fill="black" stroke="black" d="M 0 0 0 0" transform="matrix(-0.9999117851257324,-0.013281859457492828,0.013281859457492828,-0.9999117851257324,2842,532.02001953125)"></path><path  fill="#707070" stroke="#707070" d="M 20 0 L 0 10 L 20 20 z" id="v-20965" transform="matrix(0.9999117851257324,0.013281847350299358,-0.013281847350299358,0.9999117851257324,2312.1328125,514.9808349609375)" style="opacity: 1;"></path><path  d="M 2842 532 L 2312 525" id="v-20964" fill="none" style="cursor: default;"></path><g ><g id="v-20954"  label-idx="0" cursor="move" transform="matrix(1,0,0,1,2577,528.5)" style="cursor: default; opacity: 1;"><rect joint-selector="rect" id="v-20958" fill="#ffffff" rx="3" ry="3" pointer-events="none" width="163.59713745117188" height="91.33136749267578" transform="matrix(1,0,0,1,-81.80000305175781,-45.70000076293945)"></rect><text joint-selector="text" id="v-20957" font-size="24px" xml:space="preserve" y="0.8em" fill="#707070" text-anchor="middle" pointer-events="none" font-family="Open Sans" font-weight="normal" transform="matrix(1,0,0,1,0,-39.599998474121094)"><tspan  dy="0">Sends booking</tspan><tspan dy="1.2em" x="0" >confirmations</tspan><tspan dy="1.2em" x="0" >and updates</tspan></text></g><g id="v-20955"  label-idx="1" cursor="move" transform="matrix(1,0,0,1,2577,583.7000122070312)" style="cursor: default; opacity: 1;"><rect joint-selector="rect" id="v-20960" fill="#ffffff" rx="3" ry="3" pointer-events="none" width="94.84584045410156" height="23.375" transform="matrix(1,0,0,1,-47.400001525878906,-11.699999809265137)"></rect><text joint-selector="text" id="v-20959" font-size="17px" xml:space="preserve" y="0.8em" fill="#707070" text-anchor="middle" pointer-events="none" font-family="Open Sans" font-weight="normal" transform="matrix(1,0,0,1,0,-6.199999809265137)"><tspan  dy="0">[Messaging]</tspan></text></g><g id="v-20956"  label-idx="2" cursor="move" transform="matrix(1,0,0,1,2567,592.0999755859375)" style="cursor: default; opacity: 1;"><rect joint-selector="rect" id="v-20962" fill="#ffffff" rx="3" ry="3"  width="0" height="0" transform="matrix(1,0,0,1,0,0)" display="none"></rect><text joint-selector="text" id="v-20961" fill="#000000" font-size="14" text-anchor="middle" pointer-events="none"></text></g></g><g  display="none"></g><g  id="v-20967" display="none"><g  id="v-20952"><path  end="source" d="M 26 0 L 0 13 L 26 26 z"></path></g><g  id="v-20953"><path  end="target" d="M 26 0 L 0 13 L 26 26 z"></path></g></g><g  id="v-20966" display="none"><g  id="v-20951" transform="translate(2802.0034883296753, 531.4717441854863) "><g  event="remove"><circle r="11"></circle><path transform="scale(.8) translate(-16, -16)" d="M24.778,21.419 19.276,15.917 24.777,10.415 21.949,7.585 16.447,13.087 10.945,7.585 8.117,10.415 13.618,15.917 8.116,21.419 10.946,24.248 16.447,18.746 21.948,24.248z"></path><title>Remove link.</title></g><g  event="link:options"><circle r="11" transform="translate(25)"></circle><path fill="white" transform="scale(.55) translate(29, -16)" d="M31.229,17.736c0.064-0.571,0.104-1.148,0.104-1.736s-0.04-1.166-0.104-1.737l-4.377-1.557c-0.218-0.716-0.504-1.401-0.851-2.05l1.993-4.192c-0.725-0.91-1.549-1.734-2.458-2.459l-4.193,1.994c-0.647-0.347-1.334-0.632-2.049-0.849l-1.558-4.378C17.165,0.708,16.588,0.667,16,0.667s-1.166,0.041-1.737,0.105L12.707,5.15c-0.716,0.217-1.401,0.502-2.05,0.849L6.464,4.005C5.554,4.73,4.73,5.554,4.005,6.464l1.994,4.192c-0.347,0.648-0.632,1.334-0.849,2.05l-4.378,1.557C0.708,14.834,0.667,15.412,0.667,16s0.041,1.165,0.105,1.736l4.378,1.558c0.217,0.715,0.502,1.401,0.849,2.049l-1.994,4.193c0.725,0.909,1.549,1.733,2.459,2.458l4.192-1.993c0.648,0.347,1.334,0.633,2.05,0.851l1.557,4.377c0.571,0.064,1.148,0.104,1.737,0.104c0.588,0,1.165-0.04,1.736-0.104l1.558-4.377c0.715-0.218,1.399-0.504,2.049-0.851l4.193,1.993c0.909-0.725,1.733-1.549,2.458-2.458l-1.993-4.193c0.347-0.647,0.633-1.334,0.851-2.049L31.229,17.736zM16,20.871c-2.69,0-4.872-2.182-4.872-4.871c0-2.69,2.182-4.872,4.872-4.872c2.689,0,4.871,2.182,4.871,4.872C20.871,18.689,18.689,20.871,16,20.871z"></path><title>Link options.</title></g></g></g></g><!--z-index:81--><!--z-index:82--><!--z-index:83--><!--z-index:84--><!--z-index:85--><!--z-index:86--><!--z-index:87--><!--z-index:88--><!--z-index:89--><!--z-index:90--><!--z-index:91--><!--z-index:92--><!--z-index:93--><!--z-index:94--><!--z-index:95--><!--z-index:96--><!--z-index:97--><!--z-index:98--><!--z-index:99--><!--z-index:100--><!--z-index:101--><!--z-index:102--><!--z-index:103--><!--z-index:104--><!--z-index:105--><!--z-index:106--><!--z-index:107--><!--z-index:108--><!--z-index:109--><!--z-index:110--><!--z-index:111--><!--z-index:112--><!--z-index:113--><!--z-index:114--><!--z-index:115--><!--z-index:116--><!--z-index:117--><!--z-index:118--><!--z-index:119--><!--z-index:120--><!--z-index:121--><!--z-index:122--><!--z-index:123--><!--z-index:124--><!--z-index:125--><!--z-index:126--><!--z-index:127--><!--z-index:128--><!--z-index:129--><!--z-index:130--><!--z-index:131--><!--z-index:132--><!--z-index:133--><!--z-index:134--><!--z-index:135--><!--z-index:136--><!--z-index:137--><!--z-index:138--><!--z-index:139--><!--z-index:140--><!--z-index:141--><!--z-index:142--><!--z-index:143--><!--z-index:144--><!--z-index:145--><!--z-index:146--><!--z-index:147--><!--z-index:148--><!--z-index:149--><!--z-index:150--><!--z-index:151--><!--z-index:152--><!--z-index:153--><!--z-index:154--><!--z-index:155--><!--z-index:156--><!--z-index:157--><!--z-index:158--><!--z-index:159--><!--z-index:160--><!--z-index:161--><!--z-index:162--><!--z-index:163--><!--z-index:164--><!--z-index:165--><!--z-index:166--><!--z-index:167--><!--z-index:168--><!--z-index:169--><!--z-index:170--><!--z-index:171--><!--z-index:172--><!--z-index:173--><!--z-index:174--><!--z-index:175--><!--z-index:176--><!--z-index:177--><!--z-index:178--><!--z-index:179--><!--z-index:180--><!--z-index:181--><!--z-index:182--><!--z-index:183--><!--z-index:184--><!--z-index:185--><!--z-index:186--><!--z-index:187--><!--z-index:188--><!--z-index:189--><!--z-index:190--><!--z-index:191--><!--z-index:192--><!--z-index:193--><!--z-index:194--><!--z-index:195--><!--z-index:196--><!--z-index:197--><!--z-index:198--><!--z-index:199--><!--z-index:200--><!--z-index:201--><!--z-index:202--><!--z-index:203--><!--z-index:204--><!--z-index:205--><!--z-index:206--><!--z-index:207--><!--z-index:208--><!--z-index:209--><!--z-index:210--><!--z-index:211--><!--z-index:212--><!--z-index:213--><!--z-index:214--><!--z-index:215--><!--z-index:216--><!--z-index:217--><!--z-index:218--><!--z-index:219--><!--z-index:220--><!--z-index:221--><!--z-index:222--><!--z-index:223--><!--z-index:224--><!--z-index:225--><!--z-index:226--><!--z-index:227--><!--z-index:228--><!--z-index:229--><!--z-index:230--><!--z-index:231--><!--z-index:232--><!--z-index:233--><!--z-index:234--><!--z-index:235--><!--z-index:236--><!--z-index:237--><!--z-index:238--><!--z-index:239--><!--z-index:240--><!--z-index:241--><!--z-index:242--><!--z-index:243--><!--z-index:244--><!--z-index:245--><!--z-index:246--><!--z-index:247--><!--z-index:248--><!--z-index:249--></g><g ></g><g ></g><g ></g></g></svg>