<svg xmlns="http://www.w3.org/2000/svg" xmlns:xlink="http://www.w3.org/1999/xlink" version="1.1" viewBox="0 0 2442 2406" style="background: #ffffff"><defs><style>@import url(https://fonts.googleapis.com/css?family=Open+Sans:400,700);</style></defs><defs joint-selector="defs"></defs><g  joint-selector="layers" transform="matrix(1,0,0,1,0,0)"><g ></g><g ><!--z-index:1--><!--z-index:2--><!--z-index:3--><!--z-index:4--><!--z-index:5--><!--z-index:6--><!--z-index:7--><!--z-index:8--><!--z-index:9--><!--z-index:10--><!--z-index:11--><!--z-index:12--><!--z-index:13--><!--z-index:14--><!--z-index:15--><!--z-index:16--><!--z-index:17--><g   id="j_1444"  transform="translate(20,2369.6)"><g id="v-24871"><text  id="v-24872" font-size="22px" xml:space="preserve" y="0.8em" font-weight="normal" text-anchor="start" fill="#aaaaaa" pointer-events="none" display="block" font-family="Open Sans"><tspan  dy="0" display="none">Wednesday, 16 July 2025 at 12:23 Central European Summer Time</tspan></text></g></g><!--z-index:18--><g   id="j_1443"  transform="translate(20,2326.4)"><g id="v-24869"><text  id="v-24870" font-size="36px" xml:space="preserve" y="0.8em" font-weight="normal" text-anchor="start" fill="#000000" pointer-events="none" display="block" font-family="Open Sans"><tspan  dy="0" display="none">[Container] Sustainable Travel System</tspan></text></g></g><!--z-index:19--><g   id="j_1445"  transform="translate(200,1229)" style=""><g  id="v-24876" style="opacity: 1;"><rect  id="v-24877" rx="20" ry="20" stroke="#c7c7c7" stroke-width="2" pointer-events="visiblePainted" fill="#dddddd" width="450" height="300" style="fill: rgb(221, 221, 221); stroke: rgb(199, 199, 199);"></rect><text  id="v-24878" font-size="34" xml:space="preserve" y="0.8em" font-weight="bold" text-anchor="middle" pointer-events="visible" font-family="Open Sans" fill="#000000" transform="matrix(1,0,0,1,225,88.0999984741211)" style="fill: rgb(0, 0, 0);"><tspan  dy="0">IoT Device</tspan></text><text  id="v-24879" font-size="17" xml:space="preserve" y="0.8em" text-anchor="middle" font-family="Open Sans" fill="#000000" transform="matrix(1,0,0,1,225,128.89999389648438)" style="fill: rgb(0, 0, 0);"><tspan  dy="0">[Software System]</tspan></text><text  id="v-24880" font-size="24" xml:space="preserve" y="0.8em" text-anchor="middle" font-family="Open Sans" fill="#000000" transform="matrix(1,0,0,1,225,159.3000030517578)" style="fill: rgb(0, 0, 0);"><tspan  dy="0">An IoT device that provides</tspan><tspan dy="1.2em" x="0" >real-time data related to travel.</tspan></text><g  id="v-24881" color="#000000" transform="matrix(1,0,0,1,222.5,268)" style="fill: rgb(0, 0, 0);" display="none"><g ></g><g ></g><g ></g><g ></g></g><image  id="v-24882"></image></g></g><!--z-index:20--><g   id="j_1448"  transform="translate(955,199)" style=""><g id="v-24899"><rect  id="v-24900" width="1287" height="2006" rx="0" ry="0" fill="#ffffff" stroke="#0f5eaa" stroke-width="1" stroke-dasharray="20,20" pointer-events="none"></rect><text  id="v-24901" font-size="24px" xml:space="preserve" y="1967" font-weight="normal" fill="#0f5eaa" text-anchor="start" pointer-events="visible" font-family="Open Sans" transform="matrix(1,0,0,1,15,0)"><tspan  dy="0">Sustainable Travel System</tspan></text><text  id="v-24902" font-size="17px" xml:space="preserve" y="1991" font-weight="normal" fill="#0f5eaa" text-anchor="start" pointer-events="visible" font-family="Open Sans" transform="matrix(1,0,0,1,15,0)"><tspan  dy="0">[Software System]</tspan></text><image  id="v-24903" pointer-events="visible"></image></g></g><!--z-index:21--><g   id="j_1447"  transform="translate(975,219)" style=""><g id="v-24894"><rect  id="v-24895" width="1247" height="1895" rx="0" ry="0" fill="#ffffff" stroke="#444444" stroke-width="1" stroke-dasharray="5,5" pointer-events="none"></rect><text  id="v-24896" font-size="24px" xml:space="preserve" y="1880" font-weight="normal" fill="#444444" text-anchor="start" pointer-events="visible" font-family="Open Sans" transform="matrix(1,0,0,1,15,0)"><tspan  dy="0">Carbon Footprint Monitoring</tspan></text><text  id="v-24897" font-size="17px" xml:space="preserve" display="none" y="1880" font-weight="normal" fill="#444444" text-anchor="start" pointer-events="visible" font-family="Open Sans" transform="matrix(1,0,0,1,15,0)"><tspan style="fill-opacity: 0; stroke-opacity: 0;"  dy="0">-</tspan></text><image  id="v-24898" pointer-events="visible"></image></g></g><!--z-index:22--><g   id="j_1446"  transform="translate(1001,1207)" style=""><g  id="v-24886" style="opacity: 1;"><path  d="M 30,0 a 30,150 0,0,1 0 300 a 30,150 0,0,1 0 -300 l 390,0 a 30,150 0,0,1 0 300 l -390,0" id="v-24887" stroke="#0f5eaa" stroke-width="2" pointer-events="visiblePainted" fill="#1168bd" style="fill: rgb(17, 104, 189); stroke: rgb(15, 94, 170);"></path><rect  id="v-24888" stroke-width="0" pointer-events="visiblePainted" fill="none" stroke="none" width="420" height="300" x="30" y="0"></rect><text  id="v-24889" font-size="34" xml:space="preserve" y="0.8em" font-weight="bold" text-anchor="middle" pointer-events="visible" font-family="Open Sans" fill="#ffffff" transform="matrix(1,0,0,1,240,102.5)" style="fill: rgb(255, 255, 255);"><tspan  dy="0">IoT Device Gateway</tspan></text><text  id="v-24890" font-size="17" xml:space="preserve" y="0.8em" text-anchor="middle" font-family="Open Sans" fill="#ffffff" transform="matrix(1,0,0,1,240,143.3000030517578)" style="fill: rgb(255, 255, 255);"><tspan  dy="0">[Container: MQTT]</tspan></text><text  id="v-24891" font-size="24" xml:space="preserve" y="0.8em" text-anchor="middle" font-family="Open Sans" fill="#ffffff" transform="matrix(1,0,0,1,240,173.6999969482422)" style="fill: rgb(255, 255, 255);"><tspan  dy="0">An IoT device gateway.</tspan></text><g  id="v-24892" font-weight="normal" text-anchor="middle" color="#ffffff" transform="matrix(1,0,0,1,237.5,268)" style="fill: rgb(255, 255, 255);" display="none"><g ></g><g ></g><g ></g><g ></g></g><image  id="v-24893"></image></g></g><!--z-index:23--><g   id="j_1449"  transform="translate(995,239)" style=""><g  id="v-24910" style="opacity: 1;"><rect  id="v-24911" rx="20" ry="20" stroke="#0f5eaa" stroke-width="2" pointer-events="visiblePainted" fill="#1168bd" width="450" height="300" style="fill: rgb(17, 104, 189); stroke: rgb(15, 94, 170);"></rect><text  id="v-24912" font-size="34" xml:space="preserve" y="0.8em" font-weight="bold" text-anchor="middle" pointer-events="visible" font-family="Open Sans" fill="#ffffff" transform="matrix(1,0,0,1,225,88.0999984741211)" style="fill: rgb(255, 255, 255);"><tspan  dy="0">IoT Device Statistics</tspan></text><text  id="v-24913" font-size="17" xml:space="preserve" y="0.8em" text-anchor="middle" font-family="Open Sans" fill="#ffffff" transform="matrix(1,0,0,1,225,128.89999389648438)" style="fill: rgb(255, 255, 255);"><tspan  dy="0">[Container: Stream Processing]</tspan></text><text  id="v-24914" font-size="24" xml:space="preserve" y="0.8em" text-anchor="middle" font-family="Open Sans" fill="#ffffff" transform="matrix(1,0,0,1,225,159.3000030517578)" style="fill: rgb(255, 255, 255);"><tspan  dy="0">A service that processes and</tspan><tspan dy="1.2em" x="0" >analyzes data from IoT devices.</tspan></text><g  id="v-24915" color="#ffffff" transform="matrix(1,0,0,1,222.5,268)" style="fill: rgb(255, 255, 255);" display="none"><g ></g><g ></g><g ></g><g ></g></g><image  id="v-24916"></image></g></g><!--z-index:24--><g   id="j_1450"  transform="translate(1752,1740)" style=""><g  id="v-24923" style="opacity: 1;"><rect  id="v-24924" rx="20" ry="20" stroke="#0f5eaa" stroke-width="2" pointer-events="visiblePainted" fill="#1168bd" width="450" height="300" style="fill: rgb(17, 104, 189); stroke: rgb(15, 94, 170);"></rect><text  id="v-24925" font-size="34" xml:space="preserve" y="0.8em" font-weight="bold" text-anchor="middle" pointer-events="visible" font-family="Open Sans" fill="#ffffff" transform="matrix(1,0,0,1,225,88.0999984741211)" style="fill: rgb(255, 255, 255);"><tspan  dy="0">Carbon Efficiency Service</tspan></text><text  id="v-24926" font-size="17" xml:space="preserve" y="0.8em" text-anchor="middle" font-family="Open Sans" fill="#ffffff" transform="matrix(1,0,0,1,225,128.89999389648438)" style="fill: rgb(255, 255, 255);"><tspan  dy="0">[Container: REST API]</tspan></text><text  id="v-24927" font-size="24" xml:space="preserve" y="0.8em" text-anchor="middle" font-family="Open Sans" fill="#ffffff" transform="matrix(1,0,0,1,225,159.3000030517578)" style="fill: rgb(255, 255, 255);"><tspan  dy="0">A service that calculates and</tspan><tspan dy="1.2em" x="0" >provides carbon efficiency metrics.</tspan></text><g  id="v-24928" color="#ffffff" transform="matrix(1,0,0,1,222.5,268)" style="fill: rgb(255, 255, 255);" display="none"><g ></g><g ></g><g ></g><g ></g></g><image  id="v-24929"></image></g></g><!--z-index:25--><g   id="j_1451"  transform="translate(1751,1207)" style=""><g  id="v-24939" style="opacity: 1;"><path  d="M 0,30 a 225,30 0,0,0 450 0 a 225,30 0,0,0 -450 0 l 0,240 a 225,30 0,0,0 450 0 l 0,-240" id="v-24940" stroke="#0f5eaa" stroke-width="2" pointer-events="visiblePainted" fill="#1168bd" style="fill: rgb(17, 104, 189); stroke: rgb(15, 94, 170);"></path><rect  id="v-24941" stroke-width="0" pointer-events="visiblePainted" fill="none" stroke="none" width="450" height="270" x="0" y="30"></rect><text  id="v-24942" font-size="34" xml:space="preserve" y="0.8em" font-weight="bold" text-anchor="middle" pointer-events="visible" font-family="Open Sans" fill="#ffffff" transform="matrix(1,0,0,1,225,110.5999984741211)" style="fill: rgb(255, 255, 255);"><tspan  dy="0">IoT Device Database</tspan></text><text  id="v-24943" font-size="17" xml:space="preserve" y="0.8em" text-anchor="middle" font-family="Open Sans" fill="#ffffff" transform="matrix(1,0,0,1,225,151.39999389648438)" style="fill: rgb(255, 255, 255);"><tspan  dy="0">[Container: Relational Database]</tspan></text><text  id="v-24944" font-size="24" xml:space="preserve" y="0.8em" text-anchor="middle" font-family="Open Sans" fill="#ffffff" transform="matrix(1,0,0,1,225,181.8000030517578)" style="fill: rgb(255, 255, 255);"><tspan  dy="0">A database that stores IoT device</tspan><tspan dy="1.2em" x="0" >data.</tspan></text><g  id="v-24945" font-weight="normal" text-anchor="middle" color="#ffffff" transform="matrix(1,0,0,1,222.5,268)" style="fill: rgb(255, 255, 255);" display="none"><g ></g><g ></g><g ></g><g ></g></g><image  id="v-24946"></image></g></g><!--z-index:26--><g   id="j_1452" ><path  stroke="#707070" d="M 650 1373 L 1001 1363" id="v-24959" stroke-width="2" stroke-dasharray="30 30" fill="none" style="opacity: 1;"></path><path  fill="black" stroke="black" d="M 0 0 0 0" transform="matrix(0.9996230602264404,-0.027454273775219917,0.027454273775219917,0.9996230602264404,650,1372.8199462890625)"></path><path  fill="#707070" stroke="#707070" d="M 20 0 L 0 10 L 20 20 z" id="v-24961" transform="matrix(-0.9996230602264404,0.027454007416963577,-0.027454007416963577,-0.9996230602264404,1001.2745361328125,1373.17626953125)" style="opacity: 1;"></path><path  d="M 650 1373 L 1001 1363" id="v-24960" fill="none" style="cursor: default;"></path><g ><g id="v-24953"  label-idx="0" cursor="move" transform="matrix(1,0,0,1,825.5,1368)" style="cursor: default; opacity: 1;"><rect joint-selector="rect" id="v-24956" fill="#ffffff" rx="3" ry="3" pointer-events="none" width="192.31114196777344" height="147.61768341064453" transform="matrix(1,0,0,1,-96.19999694824219,-73.80000305175781)"></rect><text joint-selector="text" id="v-24955" font-size="24px" xml:space="preserve" y="0.8em" fill="#707070" text-anchor="middle" pointer-events="none" font-family="Open Sans" font-weight="normal" transform="matrix(1,0,0,1,0,-66.69999694824219)"><tspan  dy="0">Provides</tspan><tspan dy="1.2em" x="0" >real-time data on</tspan><tspan dy="1.2em" x="0" >travel conditions,</tspan><tspan dy="1.2em" x="0" >environmental</tspan><tspan dy="1.2em" x="0" >impact, etc.</tspan></text></g><g id="v-24954"  label-idx="1" cursor="move" transform="matrix(1,0,0,1,815.5,1452)" style="cursor: default; opacity: 1;"><rect joint-selector="rect" id="v-24958" fill="#ffffff" rx="3" ry="3"  width="0" height="0" transform="matrix(1,0,0,1,0,0)" display="none"></rect><text joint-selector="text" id="v-24957" fill="#000000" font-size="14" text-anchor="middle" pointer-events="none"></text></g></g><g  display="none"></g><g  id="v-24963" display="none"><g  id="v-24951"><path  end="source" d="M 26 0 L 0 13 L 26 26 z"></path></g><g  id="v-24952"><path  end="target" d="M 26 0 L 0 13 L 26 26 z"></path></g></g><g  id="v-24962" display="none"><g  id="v-24950" transform="translate(689.9837762412614, 1371.8608610757474) "><g  event="remove"><circle r="11"></circle><path transform="scale(.8) translate(-16, -16)" d="M24.778,21.419 19.276,15.917 24.777,10.415 21.949,7.585 16.447,13.087 10.945,7.585 8.117,10.415 13.618,15.917 8.116,21.419 10.946,24.248 16.447,18.746 21.948,24.248z"></path><title>Remove link.</title></g><g  event="link:options"><circle r="11" transform="translate(25)"></circle><path fill="white" transform="scale(.55) translate(29, -16)" d="M31.229,17.736c0.064-0.571,0.104-1.148,0.104-1.736s-0.04-1.166-0.104-1.737l-4.377-1.557c-0.218-0.716-0.504-1.401-0.851-2.05l1.993-4.192c-0.725-0.91-1.549-1.734-2.458-2.459l-4.193,1.994c-0.647-0.347-1.334-0.632-2.049-0.849l-1.558-4.378C17.165,0.708,16.588,0.667,16,0.667s-1.166,0.041-1.737,0.105L12.707,5.15c-0.716,0.217-1.401,0.502-2.05,0.849L6.464,4.005C5.554,4.73,4.73,5.554,4.005,6.464l1.994,4.192c-0.347,0.648-0.632,1.334-0.849,2.05l-4.378,1.557C0.708,14.834,0.667,15.412,0.667,16s0.041,1.165,0.105,1.736l4.378,1.558c0.217,0.715,0.502,1.401,0.849,2.049l-1.994,4.193c0.725,0.909,1.549,1.733,2.459,2.458l4.192-1.993c0.648,0.347,1.334,0.633,2.05,0.851l1.557,4.377c0.571,0.064,1.148,0.104,1.737,0.104c0.588,0,1.165-0.04,1.736-0.104l1.558-4.377c0.715-0.218,1.399-0.504,2.049-0.851l4.193,1.993c0.909-0.725,1.733-1.549,2.458-2.458l-1.993-4.193c0.347-0.647,0.633-1.334,0.851-2.049L31.229,17.736zM16,20.871c-2.69,0-4.872-2.182-4.872-4.871c0-2.69,2.182-4.872,4.872-4.872c2.689,0,4.871,2.182,4.871,4.872C20.871,18.689,18.689,20.871,16,20.871z"></path><title>Link options.</title></g></g></g></g><!--z-index:27--><g   id="j_1453" ><path  stroke="#707070" d="M 1221 539 L 1225 1207" id="v-24979" stroke-width="2" stroke-dasharray="30 30" fill="none" style="opacity: 1;"></path><path  fill="black" stroke="black" d="M 0 0 0 0" transform="matrix(0.006197535432875156,0.9999808073043823,-0.9999808073043823,0.006197535432875156,1220.9300537109375,539)"></path><path  fill="#707070" stroke="#707070" d="M 20 0 L 0 10 L 20 20 z" id="v-24981" transform="matrix(-0.006197668612003326,-0.9999808073043823,0.9999808073043823,-0.006197668612003326,1215.0701904296875,1207.06201171875)" style="opacity: 1;"></path><path  d="M 1221 539 L 1225 1207" id="v-24980" fill="none" style="cursor: default;"></path><g ><g id="v-24970"  label-idx="0" cursor="move" transform="matrix(1,0,0,1,1223,873)" style="cursor: default; opacity: 1;"><rect joint-selector="rect" id="v-24974" fill="#ffffff" rx="3" ry="3" pointer-events="none" width="169.85516357421875" height="90.01768493652344" transform="matrix(1,0,0,1,-84.9000015258789,-45)"></rect><text joint-selector="text" id="v-24973" font-size="24px" xml:space="preserve" y="0.8em" fill="#707070" text-anchor="middle" pointer-events="none" font-family="Open Sans" font-weight="normal" transform="matrix(1,0,0,1,0,-37.900001525878906)"><tspan  dy="0">Gets real-time</tspan><tspan dy="1.2em" x="0" >data to the IoT</tspan><tspan dy="1.2em" x="0" >device gateway</tspan></text></g><g id="v-24971"  label-idx="1" cursor="move" transform="matrix(1,0,0,1,1223,928.2000122070312)" style="cursor: default; opacity: 1;"><rect joint-selector="rect" id="v-24976" fill="#ffffff" rx="3" ry="3" pointer-events="none" width="58.31806182861328" height="22.28715705871582" transform="matrix(1,0,0,1,-29.200000762939453,-11.100000381469727)"></rect><text joint-selector="text" id="v-24975" font-size="17px" xml:space="preserve" y="0.8em" fill="#707070" text-anchor="middle" pointer-events="none" font-family="Open Sans" font-weight="normal" transform="matrix(1,0,0,1,0,-6.5)"><tspan  dy="0">[MQTT]</tspan></text></g><g id="v-24972"  label-idx="2" cursor="move" transform="matrix(1,0,0,1,1213,936.5999755859375)" style="cursor: default; opacity: 1;"><rect joint-selector="rect" id="v-24978" fill="#ffffff" rx="3" ry="3"  width="0" height="0" transform="matrix(1,0,0,1,0,0)" display="none"></rect><text joint-selector="text" id="v-24977" fill="#000000" font-size="14" text-anchor="middle" pointer-events="none"></text></g></g><g  display="none"></g><g  id="v-24983" display="none"><g  id="v-24968"><path  end="source" d="M 26 0 L 0 13 L 26 26 z"></path></g><g  id="v-24969"><path  end="target" d="M 26 0 L 0 13 L 26 26 z"></path></g></g><g  id="v-24982" display="none"><g  id="v-24967" transform="translate(1221.239516664016, 578.9992828906677) "><g  event="remove"><circle r="11"></circle><path transform="scale(.8) translate(-16, -16)" d="M24.778,21.419 19.276,15.917 24.777,10.415 21.949,7.585 16.447,13.087 10.945,7.585 8.117,10.415 13.618,15.917 8.116,21.419 10.946,24.248 16.447,18.746 21.948,24.248z"></path><title>Remove link.</title></g><g  event="link:options"><circle r="11" transform="translate(25)"></circle><path fill="white" transform="scale(.55) translate(29, -16)" d="M31.229,17.736c0.064-0.571,0.104-1.148,0.104-1.736s-0.04-1.166-0.104-1.737l-4.377-1.557c-0.218-0.716-0.504-1.401-0.851-2.05l1.993-4.192c-0.725-0.91-1.549-1.734-2.458-2.459l-4.193,1.994c-0.647-0.347-1.334-0.632-2.049-0.849l-1.558-4.378C17.165,0.708,16.588,0.667,16,0.667s-1.166,0.041-1.737,0.105L12.707,5.15c-0.716,0.217-1.401,0.502-2.05,0.849L6.464,4.005C5.554,4.73,4.73,5.554,4.005,6.464l1.994,4.192c-0.347,0.648-0.632,1.334-0.849,2.05l-4.378,1.557C0.708,14.834,0.667,15.412,0.667,16s0.041,1.165,0.105,1.736l4.378,1.558c0.217,0.715,0.502,1.401,0.849,2.049l-1.994,4.193c0.725,0.909,1.549,1.733,2.459,2.458l4.192-1.993c0.648,0.347,1.334,0.633,2.05,0.851l1.557,4.377c0.571,0.064,1.148,0.104,1.737,0.104c0.588,0,1.165-0.04,1.736-0.104l1.558-4.377c0.715-0.218,1.399-0.504,2.049-0.851l4.193,1.993c0.909-0.725,1.733-1.549,2.458-2.458l-1.993-4.193c0.347-0.647,0.633-1.334,0.851-2.049L31.229,17.736zM16,20.871c-2.69,0-4.872-2.182-4.872-4.871c0-2.69,2.182-4.872,4.872-4.872c2.689,0,4.871,2.182,4.871,4.872C20.871,18.689,18.689,20.871,16,20.871z"></path><title>Link options.</title></g></g></g></g><!--z-index:28--><g   id="j_1454" ><path  stroke="#707070" d="M 1337 539 L 1859 1207" id="v-24999" stroke-width="2" stroke-dasharray="30 30" fill="none" style="opacity: 1;"></path><path  fill="black" stroke="black" d="M 0 0 0 0" transform="matrix(0.6155158281326294,0.7881245017051697,-0.7881245017051697,0.6155158281326294,1337.1500244140625,539)"></path><path  fill="#707070" stroke="#707070" d="M 20 0 L 0 10 L 20 20 z" id="v-25001" transform="matrix(-0.6155158281326294,-0.7881245017051697,0.7881245017051697,-0.6155158281326294,1850.96875,1213.1551513671875)" style="opacity: 1;"></path><path  d="M 1337 539 L 1859 1207" id="v-25000" fill="none" style="cursor: default;"></path><g ><g id="v-24990"  label-idx="0" cursor="move" transform="matrix(1,0,0,1,1598,873)" style="cursor: default; opacity: 1;"><rect joint-selector="rect" id="v-24994" fill="#ffffff" rx="3" ry="3" pointer-events="none" width="189.00184631347656" height="61.217681884765625" transform="matrix(1,0,0,1,-94.5,-30.600000381469727)"></rect><text joint-selector="text" id="v-24993" font-size="24px" xml:space="preserve" y="0.8em" fill="#707070" text-anchor="middle" pointer-events="none" font-family="Open Sans" font-weight="normal" transform="matrix(1,0,0,1,0,-23.5)"><tspan  dy="0">Stores IoT device</tspan><tspan dy="1.2em" x="0" >statistics</tspan></text></g><g id="v-24991"  label-idx="1" cursor="move" transform="matrix(1,0,0,1,1598,913.7999877929688)" style="cursor: default; opacity: 1;"><rect joint-selector="rect" id="v-24996" fill="#ffffff" rx="3" ry="3" pointer-events="none" width="49.707115173339844" height="22.28715705871582" transform="matrix(1,0,0,1,-24.899999618530273,-11.100000381469727)"></rect><text joint-selector="text" id="v-24995" font-size="17px" xml:space="preserve" y="0.8em" fill="#707070" text-anchor="middle" pointer-events="none" font-family="Open Sans" font-weight="normal" transform="matrix(1,0,0,1,0,-6.5)"><tspan  dy="0">[JDBC]</tspan></text></g><g id="v-24992"  label-idx="2" cursor="move" transform="matrix(1,0,0,1,1588,922.2000122070312)" style="cursor: default; opacity: 1;"><rect joint-selector="rect" id="v-24998" fill="#ffffff" rx="3" ry="3"  width="0" height="0" transform="matrix(1,0,0,1,0,0)" display="none"></rect><text joint-selector="text" id="v-24997" fill="#000000" font-size="14" text-anchor="middle" pointer-events="none"></text></g></g><g  display="none"></g><g  id="v-25003" display="none"><g  id="v-24988"><path  end="source" d="M 26 0 L 0 13 L 26 26 z"></path></g><g  id="v-24989"><path  end="target" d="M 26 0 L 0 13 L 26 26 z"></path></g></g><g  id="v-25002" display="none"><g  id="v-24987" transform="translate(1361.6294239741446, 570.5181134381775) "><g  event="remove"><circle r="11"></circle><path transform="scale(.8) translate(-16, -16)" d="M24.778,21.419 19.276,15.917 24.777,10.415 21.949,7.585 16.447,13.087 10.945,7.585 8.117,10.415 13.618,15.917 8.116,21.419 10.946,24.248 16.447,18.746 21.948,24.248z"></path><title>Remove link.</title></g><g  event="link:options"><circle r="11" transform="translate(25)"></circle><path fill="white" transform="scale(.55) translate(29, -16)" d="M31.229,17.736c0.064-0.571,0.104-1.148,0.104-1.736s-0.04-1.166-0.104-1.737l-4.377-1.557c-0.218-0.716-0.504-1.401-0.851-2.05l1.993-4.192c-0.725-0.91-1.549-1.734-2.458-2.459l-4.193,1.994c-0.647-0.347-1.334-0.632-2.049-0.849l-1.558-4.378C17.165,0.708,16.588,0.667,16,0.667s-1.166,0.041-1.737,0.105L12.707,5.15c-0.716,0.217-1.401,0.502-2.05,0.849L6.464,4.005C5.554,4.73,4.73,5.554,4.005,6.464l1.994,4.192c-0.347,0.648-0.632,1.334-0.849,2.05l-4.378,1.557C0.708,14.834,0.667,15.412,0.667,16s0.041,1.165,0.105,1.736l4.378,1.558c0.217,0.715,0.502,1.401,0.849,2.049l-1.994,4.193c0.725,0.909,1.549,1.733,2.459,2.458l4.192-1.993c0.648,0.347,1.334,0.633,2.05,0.851l1.557,4.377c0.571,0.064,1.148,0.104,1.737,0.104c0.588,0,1.165-0.04,1.736-0.104l1.558-4.377c0.715-0.218,1.399-0.504,2.049-0.851l4.193,1.993c0.909-0.725,1.733-1.549,2.458-2.458l-1.993-4.193c0.347-0.647,0.633-1.334,0.851-2.049L31.229,17.736zM16,20.871c-2.69,0-4.872-2.182-4.872-4.871c0-2.69,2.182-4.872,4.872-4.872c2.689,0,4.871,2.182,4.871,4.872C20.871,18.689,18.689,20.871,16,20.871z"></path><title>Link options.</title></g></g></g></g><!--z-index:29--><g   id="j_1455" ><path  stroke="#707070" d="M 1977 1740 L 1976 1507" id="v-25019" stroke-width="2" stroke-dasharray="30 30" fill="none" style="opacity: 1;"></path><path  fill="black" stroke="black" d="M 0 0 0 0" transform="matrix(-0.0018881800351664424,-0.9999982118606567,0.9999982118606567,-0.0018881800351664424,1976.719970703125,1740)"></path><path  fill="#707070" stroke="#707070" d="M 20 0 L 0 10 L 20 20 z" id="v-25021" transform="matrix(0.0018884463934227824,0.9999982118606567,-0.9999982118606567,0.0018884463934227824,1986.2799072265625,1506.9810791015625)" style="opacity: 1;"></path><path  d="M 1977 1740 L 1976 1507" id="v-25020" fill="none" style="cursor: default;"></path><g ><g id="v-25010"  label-idx="0" cursor="move" transform="matrix(1,0,0,1,1976.5,1623.5)" style="cursor: default; opacity: 1;"><rect joint-selector="rect" id="v-25014" fill="#ffffff" rx="3" ry="3" pointer-events="none" width="189.84605407714844" height="118.81768035888672" transform="matrix(1,0,0,1,-94.9000015258789,-59.400001525878906)"></rect><text joint-selector="text" id="v-25013" font-size="24px" xml:space="preserve" y="0.8em" fill="#707070" text-anchor="middle" pointer-events="none" font-family="Open Sans" font-weight="normal" transform="matrix(1,0,0,1,0,-52.29999923706055)"><tspan  dy="0">Accesses IoT</tspan><tspan dy="1.2em" x="0" >device data for</tspan><tspan dy="1.2em" x="0" >carbon efficiency</tspan><tspan dy="1.2em" x="0" >metrics</tspan></text></g><g id="v-25011"  label-idx="1" cursor="move" transform="matrix(1,0,0,1,1976.5,1693.0999755859375)" style="cursor: default; opacity: 1;"><rect joint-selector="rect" id="v-25016" fill="#ffffff" rx="3" ry="3" pointer-events="none" width="49.707115173339844" height="22.28715705871582" transform="matrix(1,0,0,1,-24.899999618530273,-11.100000381469727)"></rect><text joint-selector="text" id="v-25015" font-size="17px" xml:space="preserve" y="0.8em" fill="#707070" text-anchor="middle" pointer-events="none" font-family="Open Sans" font-weight="normal" transform="matrix(1,0,0,1,0,-6.5)"><tspan  dy="0">[JDBC]</tspan></text></g><g id="v-25012"  label-idx="2" cursor="move" transform="matrix(1,0,0,1,1966.5,1701.5)" style="cursor: default; opacity: 1;"><rect joint-selector="rect" id="v-25018" fill="#ffffff" rx="3" ry="3"  width="0" height="0" transform="matrix(1,0,0,1,0,0)" display="none"></rect><text joint-selector="text" id="v-25017" fill="#000000" font-size="14" text-anchor="middle" pointer-events="none"></text></g></g><g  display="none"></g><g  id="v-25023" display="none"><g  id="v-25008"><path  end="source" d="M 26 0 L 0 13 L 26 26 z"></path></g><g  id="v-25009"><path  end="target" d="M 26 0 L 0 13 L 26 26 z"></path></g></g><g  id="v-25022" display="none"><g  id="v-25007" transform="translate(1976.8283277613464, 1700.0003683936654) "><g  event="remove"><circle r="11"></circle><path transform="scale(.8) translate(-16, -16)" d="M24.778,21.419 19.276,15.917 24.777,10.415 21.949,7.585 16.447,13.087 10.945,7.585 8.117,10.415 13.618,15.917 8.116,21.419 10.946,24.248 16.447,18.746 21.948,24.248z"></path><title>Remove link.</title></g><g  event="link:options"><circle r="11" transform="translate(25)"></circle><path fill="white" transform="scale(.55) translate(29, -16)" d="M31.229,17.736c0.064-0.571,0.104-1.148,0.104-1.736s-0.04-1.166-0.104-1.737l-4.377-1.557c-0.218-0.716-0.504-1.401-0.851-2.05l1.993-4.192c-0.725-0.91-1.549-1.734-2.458-2.459l-4.193,1.994c-0.647-0.347-1.334-0.632-2.049-0.849l-1.558-4.378C17.165,0.708,16.588,0.667,16,0.667s-1.166,0.041-1.737,0.105L12.707,5.15c-0.716,0.217-1.401,0.502-2.05,0.849L6.464,4.005C5.554,4.73,4.73,5.554,4.005,6.464l1.994,4.192c-0.347,0.648-0.632,1.334-0.849,2.05l-4.378,1.557C0.708,14.834,0.667,15.412,0.667,16s0.041,1.165,0.105,1.736l4.378,1.558c0.217,0.715,0.502,1.401,0.849,2.049l-1.994,4.193c0.725,0.909,1.549,1.733,2.459,2.458l4.192-1.993c0.648,0.347,1.334,0.633,2.05,0.851l1.557,4.377c0.571,0.064,1.148,0.104,1.737,0.104c0.588,0,1.165-0.04,1.736-0.104l1.558-4.377c0.715-0.218,1.399-0.504,2.049-0.851l4.193,1.993c0.909-0.725,1.733-1.549,2.458-2.458l-1.993-4.193c0.347-0.647,0.633-1.334,0.851-2.049L31.229,17.736zM16,20.871c-2.69,0-4.872-2.182-4.872-4.871c0-2.69,2.182-4.872,4.872-4.872c2.689,0,4.871,2.182,4.871,4.872C20.871,18.689,18.689,20.871,16,20.871z"></path><title>Link options.</title></g></g></g></g><!--z-index:30--><!--z-index:31--><!--z-index:32--><!--z-index:33--><!--z-index:34--><!--z-index:35--><!--z-index:36--><!--z-index:37--><!--z-index:38--><!--z-index:39--><!--z-index:40--><!--z-index:41--><!--z-index:42--><!--z-index:43--><!--z-index:44--><!--z-index:45--><!--z-index:46--><!--z-index:47--><!--z-index:48--><!--z-index:49--><!--z-index:50--><!--z-index:51--><!--z-index:52--><!--z-index:53--><!--z-index:54--><!--z-index:55--><!--z-index:56--><!--z-index:57--><!--z-index:58--><!--z-index:59--><!--z-index:60--><!--z-index:61--><!--z-index:62--><!--z-index:63--><!--z-index:64--><!--z-index:65--><!--z-index:66--><!--z-index:67--><!--z-index:68--><!--z-index:69--><!--z-index:70--><!--z-index:71--><!--z-index:72--><!--z-index:73--><!--z-index:74--><!--z-index:75--><!--z-index:76--><!--z-index:77--><!--z-index:78--><!--z-index:79--><!--z-index:80--><!--z-index:81--><!--z-index:82--><!--z-index:83--><!--z-index:84--><!--z-index:85--><!--z-index:86--><!--z-index:87--><!--z-index:88--><!--z-index:89--><!--z-index:90--><!--z-index:91--><!--z-index:92--><!--z-index:93--><!--z-index:94--><!--z-index:95--><!--z-index:96--><!--z-index:97--><!--z-index:98--><!--z-index:99--><!--z-index:100--><!--z-index:101--><!--z-index:102--><!--z-index:103--><!--z-index:104--><!--z-index:105--><!--z-index:106--><!--z-index:107--><!--z-index:108--><!--z-index:109--><!--z-index:110--><!--z-index:111--><!--z-index:112--><!--z-index:113--><!--z-index:114--><!--z-index:115--><!--z-index:116--><!--z-index:117--><!--z-index:118--><!--z-index:119--><!--z-index:120--><!--z-index:121--><!--z-index:122--><!--z-index:123--><!--z-index:124--><!--z-index:125--><!--z-index:126--><!--z-index:127--><!--z-index:128--><!--z-index:129--><!--z-index:130--><!--z-index:131--><!--z-index:132--><!--z-index:133--><!--z-index:134--><!--z-index:135--><!--z-index:136--><!--z-index:137--><!--z-index:138--><!--z-index:139--><!--z-index:140--><!--z-index:141--><!--z-index:142--><!--z-index:143--><!--z-index:144--><!--z-index:145--><!--z-index:146--><!--z-index:147--><!--z-index:148--><!--z-index:149--><!--z-index:150--><!--z-index:151--><!--z-index:152--><!--z-index:153--><!--z-index:154--><!--z-index:155--><!--z-index:156--><!--z-index:157--><!--z-index:158--><!--z-index:159--><!--z-index:160--><!--z-index:161--><!--z-index:162--><!--z-index:163--><!--z-index:164--><!--z-index:165--><!--z-index:166--><!--z-index:167--><!--z-index:168--><!--z-index:169--><!--z-index:170--><!--z-index:171--><!--z-index:172--><!--z-index:173--><!--z-index:174--><!--z-index:175--><!--z-index:176--><!--z-index:177--><!--z-index:178--><!--z-index:179--><!--z-index:180--><!--z-index:181--><!--z-index:182--><!--z-index:183--><!--z-index:184--><!--z-index:185--><!--z-index:186--><!--z-index:187--><!--z-index:188--><!--z-index:189--><!--z-index:190--><!--z-index:191--><!--z-index:192--><!--z-index:193--><!--z-index:194--><!--z-index:195--><!--z-index:196--><!--z-index:197--><!--z-index:198--><!--z-index:199--><!--z-index:200--><!--z-index:201--><!--z-index:202--><!--z-index:203--><!--z-index:204--><!--z-index:205--><!--z-index:206--><!--z-index:207--><!--z-index:208--><!--z-index:209--><!--z-index:210--><!--z-index:211--><!--z-index:212--><!--z-index:213--><!--z-index:214--><!--z-index:215--><!--z-index:216--><!--z-index:217--><!--z-index:218--><!--z-index:219--><!--z-index:220--><!--z-index:221--><!--z-index:222--><!--z-index:223--><!--z-index:224--><!--z-index:225--><!--z-index:226--><!--z-index:227--><!--z-index:228--><!--z-index:229--><!--z-index:230--><!--z-index:231--><!--z-index:232--><!--z-index:233--><!--z-index:234--><!--z-index:235--><!--z-index:236--><!--z-index:237--><!--z-index:238--><!--z-index:239--><!--z-index:240--><!--z-index:241--><!--z-index:242--><!--z-index:243--><!--z-index:244--><!--z-index:245--><!--z-index:246--><!--z-index:247--><!--z-index:248--><!--z-index:249--></g><g ></g><g ></g><g ></g></g></svg>