<svg xmlns="http://www.w3.org/2000/svg" xmlns:xlink="http://www.w3.org/1999/xlink" version="1.1" viewBox="0 0 2470 2350" style="background: #ffffff"><defs><style>@import url(https://fonts.googleapis.com/css?family=Open+Sans:400,700);</style></defs><defs joint-selector="defs"></defs><g  joint-selector="layers" transform="matrix(1,0,0,1,0,0)"><g ></g><g ><!--z-index:1--><!--z-index:2--><!--z-index:3--><!--z-index:4--><!--z-index:5--><!--z-index:6--><!--z-index:7--><!--z-index:8--><!--z-index:9--><!--z-index:10--><!--z-index:11--><!--z-index:12--><!--z-index:13--><!--z-index:14--><!--z-index:15--><!--z-index:16--><g   id="j_422"  transform="translate(20,2313.6)"><g id="v-9302"><text  id="v-9303" font-size="22px" xml:space="preserve" y="0.8em" font-weight="normal" text-anchor="start" fill="#aaaaaa" pointer-events="none" display="block" font-family="Open Sans"><tspan  dy="0">Wednesday, 16 July 2025 at 12:23 Central European Summer Time</tspan></text></g></g><!--z-index:17--><g   id="j_421"  transform="translate(20,2270.4)"><g id="v-9300"><text  id="v-9301" font-size="36px" xml:space="preserve" y="0.8em" font-weight="normal" text-anchor="start" fill="#000000" pointer-events="none" display="block" font-family="Open Sans"><tspan  dy="0">[System Context] Sustainable Travel System</tspan></text></g></g><!--z-index:18--><g   id="j_423"  transform="translate(1029,259)" style=""><g  id="v-9307" style="opacity: 1;"><rect  x="0" y="160" width="400" height="240" rx="70" id="v-9309" stroke="#073b6f" stroke-width="2" pointer-events="visiblePainted" fill="#08427b" style="fill: rgb(8, 66, 123); stroke: rgb(7, 59, 111);"></rect><circle  cx="200" cy="88.88888888888889" r="88.88888888888889" id="v-9308" stroke="#073b6f" stroke-width="2" pointer-events="visiblePainted" fill="#08427b" style="fill: rgb(8, 66, 123); stroke: rgb(7, 59, 111);"></circle><line  x1="80" y1="266.6666666666667" x2="80" y2="400" id="v-9315" stroke="#073b6f" stroke-width="2" style="stroke: rgb(7, 59, 111);"></line><line  x1="320" y1="266.6666666666667" x2="320" y2="400" id="v-9316" stroke="#073b6f" stroke-width="2" style="stroke: rgb(7, 59, 111);"></line><text  id="v-9310" font-size="34" xml:space="preserve" y="0.8em" font-weight="bold" text-anchor="middle" pointer-events="visible" font-family="Open Sans" fill="#ffffff" transform="matrix(1,0,0,1,200,218.10000610351562)" style="fill: rgb(255, 255, 255);"><tspan  dy="0">Traveller</tspan></text><text  id="v-9311" font-size="17" xml:space="preserve" y="0.8em" text-anchor="middle" font-family="Open Sans" fill="#ffffff" transform="matrix(1,0,0,1,200,258.8999938964844)" style="fill: rgb(255, 255, 255);"><tspan  dy="0">[Person]</tspan></text><text  id="v-9312" font-size="24" xml:space="preserve" y="0.8em" text-anchor="middle" font-family="Open Sans" fill="#ffffff" transform="matrix(1,0,0,1,200,289.29998779296875)" style="fill: rgb(255, 255, 255);"><tspan  dy="0">A person who travels and uses</tspan><tspan dy="1.2em" x="0" >the sustainable travel system.</tspan></text><g  id="v-9313" font-weight="normal" text-anchor="middle" color="#ffffff" transform="matrix(1,0,0,1,197.5,368)" style="fill: rgb(255, 255, 255);" display="none"><g ></g><g ></g><g ></g><g ></g></g><image  id="v-9314"></image></g></g><!--z-index:19--><g   id="j_424"  transform="translate(219,1044)" style=""><g  id="v-9323" style="opacity: 1;"><rect  x="0" y="160" width="400" height="240" rx="70" id="v-9325" stroke="#073b6f" stroke-width="2" pointer-events="visiblePainted" fill="#08427b" style="fill: rgb(8, 66, 123); stroke: rgb(7, 59, 111);"></rect><circle  cx="200" cy="88.88888888888889" r="88.88888888888889" id="v-9324" stroke="#073b6f" stroke-width="2" pointer-events="visiblePainted" fill="#08427b" style="fill: rgb(8, 66, 123); stroke: rgb(7, 59, 111);"></circle><line  x1="80" y1="266.6666666666667" x2="80" y2="400" id="v-9331" stroke="#073b6f" stroke-width="2" style="stroke: rgb(7, 59, 111);"></line><line  x1="320" y1="266.6666666666667" x2="320" y2="400" id="v-9332" stroke="#073b6f" stroke-width="2" style="stroke: rgb(7, 59, 111);"></line><text  id="v-9326" font-size="34" xml:space="preserve" y="0.8em" font-weight="bold" text-anchor="middle" pointer-events="visible" font-family="Open Sans" fill="#ffffff" transform="matrix(1,0,0,1,200,183.3000030517578)" style="fill: rgb(255, 255, 255);"><tspan  dy="0">Sustainable Travel</tspan><tspan dy="1.2em" x="0" >Organization</tspan></text><text  id="v-9327" font-size="17" xml:space="preserve" y="0.8em" text-anchor="middle" font-family="Open Sans" fill="#ffffff" transform="matrix(1,0,0,1,200,264.8999938964844)" style="fill: rgb(255, 255, 255);"><tspan  dy="0">[Software System]</tspan></text><text  id="v-9328" font-size="24" xml:space="preserve" y="0.8em" text-anchor="middle" font-family="Open Sans" fill="#ffffff" transform="matrix(1,0,0,1,200,295.29998779296875)" style="fill: rgb(255, 255, 255);"><tspan  dy="0">An organization that promotes</tspan><tspan dy="1.2em" x="0" >and manages sustainable travel</tspan><tspan dy="1.2em" x="0" >initiatives.</tspan></text><g  id="v-9329" font-weight="normal" text-anchor="middle" color="#ffffff" transform="matrix(1,0,0,1,197.5,368)" style="fill: rgb(255, 255, 255);" display="none"><g ></g><g ></g><g ></g><g ></g></g><image  id="v-9330"></image></g></g><!--z-index:20--><g   id="j_425"  transform="translate(199,199)" style=""><g  id="v-9339" style="opacity: 1;"><rect  x="0" y="160" width="400" height="240" rx="70" id="v-9341" stroke="#073b6f" stroke-width="2" pointer-events="visiblePainted" fill="#08427b" style="fill: rgb(8, 66, 123); stroke: rgb(7, 59, 111);"></rect><circle  cx="200" cy="88.88888888888889" r="88.88888888888889" id="v-9340" stroke="#073b6f" stroke-width="2" pointer-events="visiblePainted" fill="#08427b" style="fill: rgb(8, 66, 123); stroke: rgb(7, 59, 111);"></circle><line  x1="80" y1="266.6666666666667" x2="80" y2="400" id="v-9347" stroke="#073b6f" stroke-width="2" style="stroke: rgb(7, 59, 111);"></line><line  x1="320" y1="266.6666666666667" x2="320" y2="400" id="v-9348" stroke="#073b6f" stroke-width="2" style="stroke: rgb(7, 59, 111);"></line><text  id="v-9342" font-size="34" xml:space="preserve" y="0.8em" font-weight="bold" text-anchor="middle" pointer-events="visible" font-family="Open Sans" fill="#ffffff" transform="matrix(1,0,0,1,200,183.3000030517578)" style="fill: rgb(255, 255, 255);"><tspan  dy="0">Sustainable Travel</tspan><tspan dy="1.2em" x="0" >Service Provider</tspan></text><text  id="v-9343" font-size="17" xml:space="preserve" y="0.8em" text-anchor="middle" font-family="Open Sans" fill="#ffffff" transform="matrix(1,0,0,1,200,264.8999938964844)" style="fill: rgb(255, 255, 255);"><tspan  dy="0">[Software System]</tspan></text><text  id="v-9344" font-size="24" xml:space="preserve" y="0.8em" text-anchor="middle" font-family="Open Sans" fill="#ffffff" transform="matrix(1,0,0,1,200,295.29998779296875)" style="fill: rgb(255, 255, 255);"><tspan  dy="0">A service provider that offers</tspan><tspan dy="1.2em" x="0" >sustainable travel options and</tspan><tspan dy="1.2em" x="0" >services.</tspan></text><g  id="v-9345" font-weight="normal" text-anchor="middle" color="#ffffff" transform="matrix(1,0,0,1,197.5,368)" style="fill: rgb(255, 255, 255);" display="none"><g ></g><g ></g><g ></g><g ></g></g><image  id="v-9346"></image></g></g><!--z-index:21--><g   id="j_426"  transform="translate(1819,1084)" style=""><g  id="v-9352" style="opacity: 1;"><rect  id="v-9353" rx="20" ry="20" stroke="#c7c7c7" stroke-width="2" pointer-events="visiblePainted" fill="#dddddd" width="450" height="300" style="fill: rgb(221, 221, 221); stroke: rgb(199, 199, 199);"></rect><text  id="v-9354" font-size="34" xml:space="preserve" y="0.8em" font-weight="bold" text-anchor="middle" pointer-events="visible" font-family="Open Sans" fill="#000000" transform="matrix(1,0,0,1,225,88.0999984741211)" style="fill: rgb(0, 0, 0);"><tspan  dy="0">IoT Device</tspan></text><text  id="v-9355" font-size="17" xml:space="preserve" y="0.8em" text-anchor="middle" font-family="Open Sans" fill="#000000" transform="matrix(1,0,0,1,225,128.89999389648438)" style="fill: rgb(0, 0, 0);"><tspan  dy="0">[Software System]</tspan></text><text  id="v-9356" font-size="24" xml:space="preserve" y="0.8em" text-anchor="middle" font-family="Open Sans" fill="#000000" transform="matrix(1,0,0,1,225,159.3000030517578)" style="fill: rgb(0, 0, 0);"><tspan  dy="0">An IoT device that provides</tspan><tspan dy="1.2em" x="0" >real-time data related to travel.</tspan></text><g  id="v-9357" color="#000000" transform="matrix(1,0,0,1,222.5,268)" style="fill: rgb(0, 0, 0);" display="none"><g ></g><g ></g><g ></g><g ></g></g><image  id="v-9358"></image></g></g><!--z-index:22--><g   id="j_427"  transform="translate(1003,1088)" style=""><g  id="v-9365" style="opacity: 1;"><rect  id="v-9366" rx="20" ry="20" stroke="#0f5eaa" stroke-width="2" pointer-events="visiblePainted" fill="#1168bd" width="450" height="300" style="fill: rgb(17, 104, 189); stroke: rgb(15, 94, 170);"></rect><text  id="v-9367" font-size="34" xml:space="preserve" y="0.8em" font-weight="bold" text-anchor="middle" pointer-events="visible" font-family="Open Sans" fill="#ffffff" transform="matrix(1,0,0,1,225,53.29999923706055)" style="fill: rgb(255, 255, 255);"><tspan  dy="0">Sustainable Travel</tspan><tspan dy="1.2em" x="0" >System</tspan></text><text  id="v-9368" font-size="17" xml:space="preserve" y="0.8em" text-anchor="middle" font-family="Open Sans" fill="#ffffff" transform="matrix(1,0,0,1,225,134.89999389648438)" style="fill: rgb(255, 255, 255);"><tspan  dy="0">[Software System]</tspan></text><text  id="v-9369" font-size="24" xml:space="preserve" y="0.8em" text-anchor="middle" font-family="Open Sans" fill="#ffffff" transform="matrix(1,0,0,1,225,165.3000030517578)" style="fill: rgb(255, 255, 255);"><tspan  dy="0">A system that provides information</tspan><tspan dy="1.2em" x="0" >and services related to sustainable</tspan><tspan dy="1.2em" x="0" >travel.</tspan></text><g  id="v-9370" color="#ffffff" transform="matrix(1,0,0,1,210,268)" style="fill: rgb(255, 255, 255);" display="none"><g  transform="translate(5 0)"><svg xmlns="http://www.w3.org/2000/svg" width="20" height="20" fill="currentColor" viewBox="0 0 16 16"><path fill-rule="evenodd" d="M6.5 12a5.5 5.5 0 1 0 0-11 5.5 5.5 0 0 0 0 11zM13 6.5a6.5 6.5 0 1 1-13 0 6.5 6.5 0 0 1 13 0z"></path><path d="M10.344 11.742c.03.04.062.078.098.115l3.85 3.85a1 1 0 0 0 1.415-1.414l-3.85-3.85a1.007 1.007 0 0 0-.115-.1 6.538 6.538 0 0 1-1.398 1.4z"></path><path fill-rule="evenodd" d="M6.5 3a.5.5 0 0 1 .5.5V6h2.5a.5.5 0 0 1 0 1H7v2.5a.5.5 0 0 1-1 0V7H3.5a.5.5 0 0 1 0-1H6V3.5a.5.5 0 0 1 .5-.5z"></path></svg></g><g ></g><g ></g><g ></g></g><image  id="v-9371"></image></g></g><!--z-index:23--><g   id="j_428"  transform="translate(1019,1849)" style=""><g  id="v-9375" style="opacity: 1;"><rect  id="v-9376" rx="20" ry="20" stroke="#c7c7c7" stroke-width="2" pointer-events="visiblePainted" fill="#dddddd" width="450" height="300" style="fill: rgb(221, 221, 221); stroke: rgb(199, 199, 199);"></rect><text  id="v-9377" font-size="34" xml:space="preserve" y="0.8em" font-weight="bold" text-anchor="middle" pointer-events="visible" font-family="Open Sans" fill="#000000" transform="matrix(1,0,0,1,225,121.9000015258789)" style="fill: rgb(0, 0, 0);"><tspan  dy="0">Payment Service Provider</tspan></text><text  id="v-9378" font-size="17" xml:space="preserve" y="0.8em" text-anchor="middle" font-family="Open Sans" fill="#000000" transform="matrix(1,0,0,1,225,162.6999969482422)" style="fill: rgb(0, 0, 0);"><tspan  dy="0">[Software System]</tspan></text><text  id="v-9379" font-size="24" xml:space="preserve" display="none" y="0.8em" text-anchor="middle" font-family="Open Sans" fill="#000000" transform="matrix(1,0,0,1,225,183.10000610351562)" style="fill: rgb(0, 0, 0);"><tspan style="fill-opacity: 0; stroke-opacity: 0;"  dy="0">-</tspan></text><g  id="v-9380" color="#000000" transform="matrix(1,0,0,1,222.5,268)" style="fill: rgb(0, 0, 0);" display="none"><g ></g><g ></g><g ></g><g ></g></g><image  id="v-9381"></image></g></g><!--z-index:24--><g   id="j_429" ><path  stroke="#707070" d="M 1316 659 L 1370 785 C 1372.6666666666665 790.9999999999999 1373 796.9999999999999 1371 803 L 1277 1088" id="v-9398" stroke-width="2" stroke-dasharray="30 30" fill="none" style="opacity: 1;"></path><path  fill="black" stroke="black" d="M 0 0 0 0" transform="matrix(0.3972068130970001,0.9177291393280029,-0.9177291393280029,0.3972068130970001,1315.5699462890625,659)"></path><path  fill="#707070" stroke="#707070" d="M 20 0 L 0 10 L 20 20 z" id="v-9400" transform="matrix(0.31238672137260437,-0.9499549865722656,0.9499549865722656,0.31238672137260437,1267.8204345703125,1084.876220703125)" style="opacity: 1;"></path><path  d="M 1316 659 L 1370 785 C 1372.6666666666665 790.9999999999999 1373 796.9999999999999 1371 803 L 1277 1088" id="v-9399" fill="none" style="cursor: default;"></path><g ><g id="v-9389"  label-idx="0" cursor="move" transform="matrix(1,0,0,1,1348.361572265625,871.6378173828125)" style="cursor: default; opacity: 1;"><rect joint-selector="rect" id="v-9393" fill="#ffffff" rx="3" ry="3" pointer-events="none" width="198.22454833984375" height="148.84210968017578" transform="matrix(1,0,0,1,-99.0999984741211,-74.4000015258789)"></rect><text joint-selector="text" id="v-9392" font-size="24px" xml:space="preserve" y="0.8em" fill="#707070" text-anchor="middle" pointer-events="none" font-family="Open Sans" font-weight="normal" transform="matrix(1,0,0,1,0,-67.9000015258789)"><tspan  dy="0">Searches for</tspan><tspan dy="1.2em" x="0" >sustainable</tspan><tspan dy="1.2em" x="0" >travel, Proposes</tspan><tspan dy="1.2em" x="0" >activities, browse,</tspan><tspan dy="1.2em" x="0" >update options</tspan></text></g><g id="v-9390"  label-idx="1" cursor="move" transform="matrix(1,0,0,1,1348.361572265625,955.6378173828125)" style="cursor: default; opacity: 1;"><rect joint-selector="rect" id="v-9395" fill="#ffffff" rx="3" ry="3" pointer-events="none" width="61.875083923339844" height="23.747366905212402" transform="matrix(1,0,0,1,-30.899999618530273,-11.899999618530273)"></rect><text joint-selector="text" id="v-9394" font-size="17px" xml:space="preserve" y="0.8em" fill="#707070" text-anchor="middle" pointer-events="none" font-family="Open Sans" font-weight="normal" transform="matrix(1,0,0,1,0,-7.699999809265137)"><tspan  dy="0">[HTTPS]</tspan></text></g><g id="v-9391"  label-idx="2" cursor="move" transform="matrix(1,0,0,1,1338.361572265625,964.0377807617188)" style="cursor: default; opacity: 1;"><rect joint-selector="rect" id="v-9397" fill="#ffffff" rx="3" ry="3"  width="0" height="0" transform="matrix(1,0,0,1,0,0)" display="none"></rect><text joint-selector="text" id="v-9396" fill="#000000" font-size="14" text-anchor="middle" pointer-events="none"></text></g></g><g  display="none"><g  transform="translate(1374, 794)" id="v-9386"><circle  idx="0" r="10"></circle><path  idx="0" d="M16,5.333c-7.732,0-14,4.701-14,10.5c0,1.982,0.741,3.833,2.016,5.414L2,25.667l5.613-1.441c2.339,1.317,5.237,2.107,8.387,2.107c7.732,0,14-4.701,14-10.5C30,10.034,23.732,5.333,16,5.333z" transform="translate(5, -33)"></path><path  idx="0" transform="scale(.8) translate(9.5, -37)" d="M24.778,21.419 19.276,15.917 24.777,10.415 21.949,7.585 16.447,13.087 10.945,7.585 8.117,10.415 13.618,15.917 8.116,21.419 10.946,24.248 16.447,18.746 21.948,24.248z"><title>Remove vertex.</title></path></g></g><g  id="v-9402" display="none"><g  id="v-9387"><path  end="source" d="M 26 0 L 0 13 L 26 26 z"></path></g><g  id="v-9388"><path  end="target" d="M 26 0 L 0 13 L 26 26 z"></path></g></g><g  id="v-9401" display="none"><g  id="v-9385" transform="translate(1331.7567719431668, 695.7658012007223) "><g  event="remove"><circle r="11"></circle><path transform="scale(.8) translate(-16, -16)" d="M24.778,21.419 19.276,15.917 24.777,10.415 21.949,7.585 16.447,13.087 10.945,7.585 8.117,10.415 13.618,15.917 8.116,21.419 10.946,24.248 16.447,18.746 21.948,24.248z"></path><title>Remove link.</title></g><g  event="link:options"><circle r="11" transform="translate(25)"></circle><path fill="white" transform="scale(.55) translate(29, -16)" d="M31.229,17.736c0.064-0.571,0.104-1.148,0.104-1.736s-0.04-1.166-0.104-1.737l-4.377-1.557c-0.218-0.716-0.504-1.401-0.851-2.05l1.993-4.192c-0.725-0.91-1.549-1.734-2.458-2.459l-4.193,1.994c-0.647-0.347-1.334-0.632-2.049-0.849l-1.558-4.378C17.165,0.708,16.588,0.667,16,0.667s-1.166,0.041-1.737,0.105L12.707,5.15c-0.716,0.217-1.401,0.502-2.05,0.849L6.464,4.005C5.554,4.73,4.73,5.554,4.005,6.464l1.994,4.192c-0.347,0.648-0.632,1.334-0.849,2.05l-4.378,1.557C0.708,14.834,0.667,15.412,0.667,16s0.041,1.165,0.105,1.736l4.378,1.558c0.217,0.715,0.502,1.401,0.849,2.049l-1.994,4.193c0.725,0.909,1.549,1.733,2.459,2.458l4.192-1.993c0.648,0.347,1.334,0.633,2.05,0.851l1.557,4.377c0.571,0.064,1.148,0.104,1.737,0.104c0.588,0,1.165-0.04,1.736-0.104l1.558-4.377c0.715-0.218,1.399-0.504,2.049-0.851l4.193,1.993c0.909-0.725,1.733-1.549,2.458-2.458l-1.993-4.193c0.347-0.647,0.633-1.334,0.851-2.049L31.229,17.736zM16,20.871c-2.69,0-4.872-2.182-4.872-4.871c0-2.69,2.182-4.872,4.872-4.872c2.689,0,4.871,2.182,4.871,4.872C20.871,18.689,18.689,20.871,16,20.871z"></path><title>Link options.</title></g></g></g></g><!--z-index:25--><g   id="j_430" ><path  stroke="#707070" d="M 619 1165 L 765 1108 C 771 1105.3333333333333 777.3333333333333 1105 784 1107 L 1003 1172" id="v-9416" stroke-width="2" stroke-dasharray="30 30" fill="none" style="opacity: 1;"></path><path  fill="black" stroke="black" d="M 0 0 0 0" transform="matrix(0.9302662014961243,-0.3668852746486664,0.3668852746486664,0.9302662014961243,619,1165.1300048828125)"></path><path  fill="#707070" stroke="#707070" d="M 20 0 L 0 10 L 20 20 z" id="v-9418" transform="matrix(-0.9590962529182434,-0.283080130815506,0.283080130815506,-0.9590962529182434,1000.169189453125,1181.180908203125)" style="opacity: 1;"></path><path  d="M 619 1165 L 765 1108 C 771 1105.3333333333333 777.3333333333333 1105 784 1107 L 1003 1172" id="v-9417" fill="none" style="cursor: default;"></path><g ><g id="v-9410"  label-idx="0" cursor="move" transform="matrix(1,0,0,1,809.0519409179688,1114.435546875)" style="cursor: default; opacity: 1;"><rect joint-selector="rect" id="v-9413" fill="#ffffff" rx="3" ry="3" pointer-events="none" width="199.08209228515625" height="148.84210968017578" transform="matrix(1,0,0,1,-99.5,-74.4000015258789)"></rect><text joint-selector="text" id="v-9412" font-size="24px" xml:space="preserve" y="0.8em" fill="#707070" text-anchor="middle" pointer-events="none" font-family="Open Sans" font-weight="normal" transform="matrix(1,0,0,1,0,-67.9000015258789)"><tspan  dy="0">Publish Probono</tspan><tspan dy="1.2em" x="0" >activities, Manage</tspan><tspan dy="1.2em" x="0" >participants,</tspan><tspan dy="1.2em" x="0" >Communication</tspan><tspan dy="1.2em" x="0" >with travellers</tspan></text></g><g id="v-9411"  label-idx="1" cursor="move" transform="matrix(1,0,0,1,799.0519409179688,1198.435546875)" style="cursor: default; opacity: 1;"><rect joint-selector="rect" id="v-9415" fill="#ffffff" rx="3" ry="3"  width="0" height="0" transform="matrix(1,0,0,1,0,0)" display="none"></rect><text joint-selector="text" id="v-9414" fill="#000000" font-size="14" text-anchor="middle" pointer-events="none"></text></g></g><g  display="none"><g  transform="translate(774, 1104)" id="v-9407"><circle  idx="0" r="10"></circle><path  idx="0" d="M16,5.333c-7.732,0-14,4.701-14,10.5c0,1.982,0.741,3.833,2.016,5.414L2,25.667l5.613-1.441c2.339,1.317,5.237,2.107,8.387,2.107c7.732,0,14-4.701,14-10.5C30,10.034,23.732,5.333,16,5.333z" transform="translate(5, -33)"></path><path  idx="0" transform="scale(.8) translate(9.5, -37)" d="M24.778,21.419 19.276,15.917 24.777,10.415 21.949,7.585 16.447,13.087 10.945,7.585 8.117,10.415 13.618,15.917 8.116,21.419 10.946,24.248 16.447,18.746 21.948,24.248z"><title>Remove vertex.</title></path></g></g><g  id="v-9420" display="none"><g  id="v-9408"><path  end="source" d="M 26 0 L 0 13 L 26 26 z"></path></g><g  id="v-9409"><path  end="target" d="M 26 0 L 0 13 L 26 26 z"></path></g></g><g  id="v-9419" display="none"><g  id="v-9406" transform="translate(656.2609962841457, 1150.4528987109843) "><g  event="remove"><circle r="11"></circle><path transform="scale(.8) translate(-16, -16)" d="M24.778,21.419 19.276,15.917 24.777,10.415 21.949,7.585 16.447,13.087 10.945,7.585 8.117,10.415 13.618,15.917 8.116,21.419 10.946,24.248 16.447,18.746 21.948,24.248z"></path><title>Remove link.</title></g><g  event="link:options"><circle r="11" transform="translate(25)"></circle><path fill="white" transform="scale(.55) translate(29, -16)" d="M31.229,17.736c0.064-0.571,0.104-1.148,0.104-1.736s-0.04-1.166-0.104-1.737l-4.377-1.557c-0.218-0.716-0.504-1.401-0.851-2.05l1.993-4.192c-0.725-0.91-1.549-1.734-2.458-2.459l-4.193,1.994c-0.647-0.347-1.334-0.632-2.049-0.849l-1.558-4.378C17.165,0.708,16.588,0.667,16,0.667s-1.166,0.041-1.737,0.105L12.707,5.15c-0.716,0.217-1.401,0.502-2.05,0.849L6.464,4.005C5.554,4.73,4.73,5.554,4.005,6.464l1.994,4.192c-0.347,0.648-0.632,1.334-0.849,2.05l-4.378,1.557C0.708,14.834,0.667,15.412,0.667,16s0.041,1.165,0.105,1.736l4.378,1.558c0.217,0.715,0.502,1.401,0.849,2.049l-1.994,4.193c0.725,0.909,1.549,1.733,2.459,2.458l4.192-1.993c0.648,0.347,1.334,0.633,2.05,0.851l1.557,4.377c0.571,0.064,1.148,0.104,1.737,0.104c0.588,0,1.165-0.04,1.736-0.104l1.558-4.377c0.715-0.218,1.399-0.504,2.049-0.851l4.193,1.993c0.909-0.725,1.733-1.549,2.458-2.458l-1.993-4.193c0.347-0.647,0.633-1.334,0.851-2.049L31.229,17.736zM16,20.871c-2.69,0-4.872-2.182-4.872-4.871c0-2.69,2.182-4.872,4.872-4.872c2.689,0,4.871,2.182,4.871,4.872C20.871,18.689,18.689,20.871,16,20.871z"></path><title>Link options.</title></g></g></g></g><!--z-index:26--><g   id="j_431" ><path  stroke="#707070" d="M 597 599 L 1080 1088" id="v-9433" stroke-width="2" stroke-dasharray="30 30" fill="none" style="opacity: 1;"></path><path  fill="black" stroke="black" d="M 0 0 0 0" transform="matrix(0.7028536796569824,0.7113344669342041,-0.7113344669342041,0.7028536796569824,596.6199951171875,599)"></path><path  fill="#707070" stroke="#707070" d="M 20 0 L 0 10 L 20 20 z" id="v-9435" transform="matrix(-0.7028536200523376,-0.7113344669342041,0.7113344669342041,-0.7028536200523376,1072.6766357421875,1095.0284423828125)" style="opacity: 1;"></path><path  d="M 597 599 L 1080 1088" id="v-9434" fill="none" style="cursor: default;"></path><g ><g id="v-9427"  label-idx="0" cursor="move" transform="matrix(1,0,0,1,838.5,843.5)" style="cursor: default; opacity: 1;"><rect joint-selector="rect" id="v-9430" fill="#ffffff" rx="3" ry="3" pointer-events="none" width="198.8182373046875" height="120.04210662841797" transform="matrix(1,0,0,1,-99.4000015258789,-60)"></rect><text joint-selector="text" id="v-9429" font-size="24px" xml:space="preserve" y="0.8em" fill="#707070" text-anchor="middle" pointer-events="none" font-family="Open Sans" font-weight="normal" transform="matrix(1,0,0,1,0,-53.5)"><tspan  dy="0">Publish activities</tspan><tspan dy="1.2em" x="0" >&amp; Offers, Manage</tspan><tspan dy="1.2em" x="0" >bookings, Provide</tspan><tspan dy="1.2em" x="0" >information</tspan></text></g><g id="v-9428"  label-idx="1" cursor="move" transform="matrix(1,0,0,1,828.5,913.0999755859375)" style="cursor: default; opacity: 1;"><rect joint-selector="rect" id="v-9432" fill="#ffffff" rx="3" ry="3"  width="0" height="0" transform="matrix(1,0,0,1,0,0)" display="none"></rect><text joint-selector="text" id="v-9431" fill="#000000" font-size="14" text-anchor="middle" pointer-events="none"></text></g></g><g  display="none"></g><g  id="v-9437" display="none"><g  id="v-9425"><path  end="source" d="M 26 0 L 0 13 L 26 26 z"></path></g><g  id="v-9426"><path  end="target" d="M 26 0 L 0 13 L 26 26 z"></path></g></g><g  id="v-9436" display="none"><g  id="v-9424" transform="translate(625.1091414509776, 627.4583233323561) "><g  event="remove"><circle r="11"></circle><path transform="scale(.8) translate(-16, -16)" d="M24.778,21.419 19.276,15.917 24.777,10.415 21.949,7.585 16.447,13.087 10.945,7.585 8.117,10.415 13.618,15.917 8.116,21.419 10.946,24.248 16.447,18.746 21.948,24.248z"></path><title>Remove link.</title></g><g  event="link:options"><circle r="11" transform="translate(25)"></circle><path fill="white" transform="scale(.55) translate(29, -16)" d="M31.229,17.736c0.064-0.571,0.104-1.148,0.104-1.736s-0.04-1.166-0.104-1.737l-4.377-1.557c-0.218-0.716-0.504-1.401-0.851-2.05l1.993-4.192c-0.725-0.91-1.549-1.734-2.458-2.459l-4.193,1.994c-0.647-0.347-1.334-0.632-2.049-0.849l-1.558-4.378C17.165,0.708,16.588,0.667,16,0.667s-1.166,0.041-1.737,0.105L12.707,5.15c-0.716,0.217-1.401,0.502-2.05,0.849L6.464,4.005C5.554,4.73,4.73,5.554,4.005,6.464l1.994,4.192c-0.347,0.648-0.632,1.334-0.849,2.05l-4.378,1.557C0.708,14.834,0.667,15.412,0.667,16s0.041,1.165,0.105,1.736l4.378,1.558c0.217,0.715,0.502,1.401,0.849,2.049l-1.994,4.193c0.725,0.909,1.549,1.733,2.459,2.458l4.192-1.993c0.648,0.347,1.334,0.633,2.05,0.851l1.557,4.377c0.571,0.064,1.148,0.104,1.737,0.104c0.588,0,1.165-0.04,1.736-0.104l1.558-4.377c0.715-0.218,1.399-0.504,2.049-0.851l4.193,1.993c0.909-0.725,1.733-1.549,2.458-2.458l-1.993-4.193c0.347-0.647,0.633-1.334,0.851-2.049L31.229,17.736zM16,20.871c-2.69,0-4.872-2.182-4.872-4.871c0-2.69,2.182-4.872,4.872-4.872c2.689,0,4.871,2.182,4.871,4.872C20.871,18.689,18.689,20.871,16,20.871z"></path><title>Link options.</title></g></g></g></g><!--z-index:27--><g   id="j_432" ><path  stroke="#707070" d="M 1297 1388 L 1405 1625 C 1407.6666666666665 1631 1407.6666666666665 1637 1405 1643 L 1312 1849" id="v-9451" stroke-width="2" stroke-dasharray="30 30" fill="none" style="opacity: 1;"></path><path  fill="black" stroke="black" d="M 0 0 0 0" transform="matrix(0.4157072901725769,0.9094984531402588,-0.9094984531402588,0.4157072901725769,1296.56005859375,1388)"></path><path  fill="#707070" stroke="#707070" d="M 20 0 L 0 10 L 20 20 z" id="v-9453" transform="matrix(0.4119150936603546,-0.9112222194671631,0.9112222194671631,0.4119150936603546,1302.6978759765625,1844.880859375)" style="opacity: 1;"></path><path  d="M 1297 1388 L 1405 1625 C 1407.6666666666665 1631 1407.6666666666665 1637 1405 1643 L 1312 1849" id="v-9452" fill="none" style="cursor: default;"></path><g ><g id="v-9445"  label-idx="0" cursor="move" transform="matrix(1,0,0,1,1401.7130126953125,1617.7867431640625)" style="cursor: default; opacity: 1;"><rect joint-selector="rect" id="v-9448" fill="#ffffff" rx="3" ry="3" pointer-events="none" width="196.74034118652344" height="120.04210662841797" transform="matrix(1,0,0,1,-98.4000015258789,-60)"></rect><text joint-selector="text" id="v-9447" font-size="24px" xml:space="preserve" y="0.8em" fill="#707070" text-anchor="middle" pointer-events="none" font-family="Open Sans" font-weight="normal" transform="matrix(1,0,0,1,0,-53.5)"><tspan  dy="0">Handle payments</tspan><tspan dy="1.2em" x="0" >&amp; Donations,</tspan><tspan dy="1.2em" x="0" >Process</tspan><tspan dy="1.2em" x="0" >transactions</tspan></text></g><g id="v-9446"  label-idx="1" cursor="move" transform="matrix(1,0,0,1,1391.7130126953125,1687.38671875)" style="cursor: default; opacity: 1;"><rect joint-selector="rect" id="v-9450" fill="#ffffff" rx="3" ry="3"  width="0" height="0" transform="matrix(1,0,0,1,0,0)" display="none"></rect><text joint-selector="text" id="v-9449" fill="#000000" font-size="14" text-anchor="middle" pointer-events="none"></text></g></g><g  display="none"><g  transform="translate(1409, 1634)" id="v-9442"><circle  idx="0" r="10"></circle><path  idx="0" d="M16,5.333c-7.732,0-14,4.701-14,10.5c0,1.982,0.741,3.833,2.016,5.414L2,25.667l5.613-1.441c2.339,1.317,5.237,2.107,8.387,2.107c7.732,0,14-4.701,14-10.5C30,10.034,23.732,5.333,16,5.333z" transform="translate(5, -33)"></path><path  idx="0" transform="scale(.8) translate(9.5, -37)" d="M24.778,21.419 19.276,15.917 24.777,10.415 21.949,7.585 16.447,13.087 10.945,7.585 8.117,10.415 13.618,15.917 8.116,21.419 10.946,24.248 16.447,18.746 21.948,24.248z"><title>Remove vertex.</title></path></g></g><g  id="v-9455" display="none"><g  id="v-9443"><path  end="source" d="M 26 0 L 0 13 L 26 26 z"></path></g><g  id="v-9444"><path  end="target" d="M 26 0 L 0 13 L 26 26 z"></path></g></g><g  id="v-9454" display="none"><g  id="v-9441" transform="translate(1313.5868239236995, 1424.3988636103409) "><g  event="remove"><circle r="11"></circle><path transform="scale(.8) translate(-16, -16)" d="M24.778,21.419 19.276,15.917 24.777,10.415 21.949,7.585 16.447,13.087 10.945,7.585 8.117,10.415 13.618,15.917 8.116,21.419 10.946,24.248 16.447,18.746 21.948,24.248z"></path><title>Remove link.</title></g><g  event="link:options"><circle r="11" transform="translate(25)"></circle><path fill="white" transform="scale(.55) translate(29, -16)" d="M31.229,17.736c0.064-0.571,0.104-1.148,0.104-1.736s-0.04-1.166-0.104-1.737l-4.377-1.557c-0.218-0.716-0.504-1.401-0.851-2.05l1.993-4.192c-0.725-0.91-1.549-1.734-2.458-2.459l-4.193,1.994c-0.647-0.347-1.334-0.632-2.049-0.849l-1.558-4.378C17.165,0.708,16.588,0.667,16,0.667s-1.166,0.041-1.737,0.105L12.707,5.15c-0.716,0.217-1.401,0.502-2.05,0.849L6.464,4.005C5.554,4.73,4.73,5.554,4.005,6.464l1.994,4.192c-0.347,0.648-0.632,1.334-0.849,2.05l-4.378,1.557C0.708,14.834,0.667,15.412,0.667,16s0.041,1.165,0.105,1.736l4.378,1.558c0.217,0.715,0.502,1.401,0.849,2.049l-1.994,4.193c0.725,0.909,1.549,1.733,2.459,2.458l4.192-1.993c0.648,0.347,1.334,0.633,2.05,0.851l1.557,4.377c0.571,0.064,1.148,0.104,1.737,0.104c0.588,0,1.165-0.04,1.736-0.104l1.558-4.377c0.715-0.218,1.399-0.504,2.049-0.851l4.193,1.993c0.909-0.725,1.733-1.549,2.458-2.458l-1.993-4.193c0.347-0.647,0.633-1.334,0.851-2.049L31.229,17.736zM16,20.871c-2.69,0-4.872-2.182-4.872-4.871c0-2.69,2.182-4.872,4.872-4.872c2.689,0,4.871,2.182,4.871,4.872C20.871,18.689,18.689,20.871,16,20.871z"></path><title>Link options.</title></g></g></g></g><!--z-index:28--><g   id="j_433" ><path  stroke="#707070" d="M 1819 1235 L 1453 1237" id="v-9468" stroke-width="2" stroke-dasharray="30 30" fill="none" style="opacity: 1;"></path><path  fill="black" stroke="black" d="M 0 0 0 0" transform="matrix(-0.9999879002571106,0.0049180397763848305,-0.0049180397763848305,-0.9999879002571106,1819,1235.0999755859375)"></path><path  fill="#707070" stroke="#707070" d="M 20 0 L 0 10 L 20 20 z" id="v-9470" transform="matrix(0.9999879002571106,-0.0049177734181284904,0.0049177734181284904,0.9999879002571106,1452.9508056640625,1226.900146484375)" style="opacity: 1;"></path><path  d="M 1819 1235 L 1453 1237" id="v-9469" fill="none" style="cursor: default;"></path><g ><g id="v-9462"  label-idx="0" cursor="move" transform="matrix(1,0,0,1,1636,1236)" style="cursor: default; opacity: 1;"><rect joint-selector="rect" id="v-9465" fill="#ffffff" rx="3" ry="3" pointer-events="none" width="192.35366821289062" height="148.84210968017578" transform="matrix(1,0,0,1,-96.19999694824219,-74.4000015258789)"></rect><text joint-selector="text" id="v-9464" font-size="24px" xml:space="preserve" y="0.8em" fill="#707070" text-anchor="middle" pointer-events="none" font-family="Open Sans" font-weight="normal" transform="matrix(1,0,0,1,0,-67.9000015258789)"><tspan  dy="0">Provides</tspan><tspan dy="1.2em" x="0" >real-time data on</tspan><tspan dy="1.2em" x="0" >travel conditions,</tspan><tspan dy="1.2em" x="0" >environmental</tspan><tspan dy="1.2em" x="0" >impact, etc.</tspan></text></g><g id="v-9463"  label-idx="1" cursor="move" transform="matrix(1,0,0,1,1626,1320)" style="cursor: default; opacity: 1;"><rect joint-selector="rect" id="v-9467" fill="#ffffff" rx="3" ry="3"  width="0" height="0" transform="matrix(1,0,0,1,0,0)" display="none"></rect><text joint-selector="text" id="v-9466" fill="#000000" font-size="14" text-anchor="middle" pointer-events="none"></text></g></g><g  display="none"></g><g  id="v-9472" display="none"><g  id="v-9460"><path  end="source" d="M 26 0 L 0 13 L 26 26 z"></path></g><g  id="v-9461"><path  end="target" d="M 26 0 L 0 13 L 26 26 z"></path></g></g><g  id="v-9471" display="none"><g  id="v-9459" transform="translate(1779.00059719765, 1235.2185759715976) "><g  event="remove"><circle r="11"></circle><path transform="scale(.8) translate(-16, -16)" d="M24.778,21.419 19.276,15.917 24.777,10.415 21.949,7.585 16.447,13.087 10.945,7.585 8.117,10.415 13.618,15.917 8.116,21.419 10.946,24.248 16.447,18.746 21.948,24.248z"></path><title>Remove link.</title></g><g  event="link:options"><circle r="11" transform="translate(25)"></circle><path fill="white" transform="scale(.55) translate(29, -16)" d="M31.229,17.736c0.064-0.571,0.104-1.148,0.104-1.736s-0.04-1.166-0.104-1.737l-4.377-1.557c-0.218-0.716-0.504-1.401-0.851-2.05l1.993-4.192c-0.725-0.91-1.549-1.734-2.458-2.459l-4.193,1.994c-0.647-0.347-1.334-0.632-2.049-0.849l-1.558-4.378C17.165,0.708,16.588,0.667,16,0.667s-1.166,0.041-1.737,0.105L12.707,5.15c-0.716,0.217-1.401,0.502-2.05,0.849L6.464,4.005C5.554,4.73,4.73,5.554,4.005,6.464l1.994,4.192c-0.347,0.648-0.632,1.334-0.849,2.05l-4.378,1.557C0.708,14.834,0.667,15.412,0.667,16s0.041,1.165,0.105,1.736l4.378,1.558c0.217,0.715,0.502,1.401,0.849,2.049l-1.994,4.193c0.725,0.909,1.549,1.733,2.459,2.458l4.192-1.993c0.648,0.347,1.334,0.633,2.05,0.851l1.557,4.377c0.571,0.064,1.148,0.104,1.737,0.104c0.588,0,1.165-0.04,1.736-0.104l1.558-4.377c0.715-0.218,1.399-0.504,2.049-0.851l4.193,1.993c0.909-0.725,1.733-1.549,2.458-2.458l-1.993-4.193c0.347-0.647,0.633-1.334,0.851-2.049L31.229,17.736zM16,20.871c-2.69,0-4.872-2.182-4.872-4.871c0-2.69,2.182-4.872,4.872-4.872c2.689,0,4.871,2.182,4.871,4.872C20.871,18.689,18.689,20.871,16,20.871z"></path><title>Link options.</title></g></g></g></g><!--z-index:29--><g   id="j_434" ><path  stroke="#707070" d="M 1003 1359 L 808 1464 C 802 1467.3333333333333 796 1467.3333333333333 790 1464 L 619 1362" id="v-9489" stroke-width="2" stroke-dasharray="30 30" fill="none" style="opacity: 1;"></path><path  fill="black" stroke="black" d="M 0 0 0 0" transform="matrix(-0.8804641962051392,0.4741126298904419,-0.4741126298904419,-0.8804641962051392,1003,1359.1500244140625)"></path><path  fill="#707070" stroke="#707070" d="M 20 0 L 0 10 L 20 20 z" id="v-9491" transform="matrix(0.8604731559753418,0.509495735168457,-0.509495735168457,0.8604731559753418,624.094970703125,1353.8153076171875)" style="opacity: 1;"></path><path  d="M 1003 1359 L 808 1464 C 802 1467.3333333333333 796 1467.3333333333333 790 1464 L 619 1362" id="v-9490" fill="none" style="cursor: default;"></path><g ><g id="v-9480"  label-idx="0" cursor="move" transform="matrix(1,0,0,1,809.5310668945312,1463.175537109375)" style="cursor: default; opacity: 1;"><rect joint-selector="rect" id="v-9484" fill="#ffffff" rx="3" ry="3" pointer-events="none" width="174.5431365966797" height="177.6421127319336" transform="matrix(1,0,0,1,-87.30000305175781,-88.80000305175781)"></rect><text joint-selector="text" id="v-9483" font-size="24px" xml:space="preserve" y="0.8em" fill="#707070" text-anchor="middle" pointer-events="none" font-family="Open Sans" font-weight="normal" transform="matrix(1,0,0,1,0,-82.30000305175781)"><tspan  dy="0">Enables</tspan><tspan dy="1.2em" x="0" >communication</tspan><tspan dy="1.2em" x="0" >between</tspan><tspan dy="1.2em" x="0" >organizations</tspan><tspan dy="1.2em" x="0" >and interested</tspan><tspan dy="1.2em" x="0" >travellers</tspan></text></g><g id="v-9481"  label-idx="1" cursor="move" transform="matrix(1,0,0,1,809.5310668945312,1561.5755615234375)" style="cursor: default; opacity: 1;"><rect joint-selector="rect" id="v-9486" fill="#ffffff" rx="3" ry="3" pointer-events="none" width="94.65963745117188" height="23.747366905212402" transform="matrix(1,0,0,1,-47.29999923706055,-11.899999618530273)"></rect><text joint-selector="text" id="v-9485" font-size="17px" xml:space="preserve" y="0.8em" fill="#707070" text-anchor="middle" pointer-events="none" font-family="Open Sans" font-weight="normal" transform="matrix(1,0,0,1,0,-7.699999809265137)"><tspan  dy="0">[Messaging]</tspan></text></g><g id="v-9482"  label-idx="2" cursor="move" transform="matrix(1,0,0,1,799.5310668945312,1569.9755859375)" style="cursor: default; opacity: 1;"><rect joint-selector="rect" id="v-9488" fill="#ffffff" rx="3" ry="3"  width="0" height="0" transform="matrix(1,0,0,1,0,0)" display="none"></rect><text joint-selector="text" id="v-9487" fill="#000000" font-size="14" text-anchor="middle" pointer-events="none"></text></g></g><g  display="none"><g  transform="translate(799, 1469)" id="v-9477"><circle  idx="0" r="10"></circle><path  idx="0" d="M16,5.333c-7.732,0-14,4.701-14,10.5c0,1.982,0.741,3.833,2.016,5.414L2,25.667l5.613-1.441c2.339,1.317,5.237,2.107,8.387,2.107c7.732,0,14-4.701,14-10.5C30,10.034,23.732,5.333,16,5.333z" transform="translate(5, -33)"></path><path  idx="0" transform="scale(.8) translate(9.5, -37)" d="M24.778,21.419 19.276,15.917 24.777,10.415 21.949,7.585 16.447,13.087 10.945,7.585 8.117,10.415 13.618,15.917 8.116,21.419 10.946,24.248 16.447,18.746 21.948,24.248z"><title>Remove vertex.</title></path></g></g><g  id="v-9493" display="none"><g  id="v-9478"><path  end="source" d="M 26 0 L 0 13 L 26 26 z"></path></g><g  id="v-9479"><path  end="target" d="M 26 0 L 0 13 L 26 26 z"></path></g></g><g  id="v-9492" display="none"><g  id="v-9476" transform="translate(967.781156003113, 1377.9639929214006) "><g  event="remove"><circle r="11"></circle><path transform="scale(.8) translate(-16, -16)" d="M24.778,21.419 19.276,15.917 24.777,10.415 21.949,7.585 16.447,13.087 10.945,7.585 8.117,10.415 13.618,15.917 8.116,21.419 10.946,24.248 16.447,18.746 21.948,24.248z"></path><title>Remove link.</title></g><g  event="link:options"><circle r="11" transform="translate(25)"></circle><path fill="white" transform="scale(.55) translate(29, -16)" d="M31.229,17.736c0.064-0.571,0.104-1.148,0.104-1.736s-0.04-1.166-0.104-1.737l-4.377-1.557c-0.218-0.716-0.504-1.401-0.851-2.05l1.993-4.192c-0.725-0.91-1.549-1.734-2.458-2.459l-4.193,1.994c-0.647-0.347-1.334-0.632-2.049-0.849l-1.558-4.378C17.165,0.708,16.588,0.667,16,0.667s-1.166,0.041-1.737,0.105L12.707,5.15c-0.716,0.217-1.401,0.502-2.05,0.849L6.464,4.005C5.554,4.73,4.73,5.554,4.005,6.464l1.994,4.192c-0.347,0.648-0.632,1.334-0.849,2.05l-4.378,1.557C0.708,14.834,0.667,15.412,0.667,16s0.041,1.165,0.105,1.736l4.378,1.558c0.217,0.715,0.502,1.401,0.849,2.049l-1.994,4.193c0.725,0.909,1.549,1.733,2.459,2.458l4.192-1.993c0.648,0.347,1.334,0.633,2.05,0.851l1.557,4.377c0.571,0.064,1.148,0.104,1.737,0.104c0.588,0,1.165-0.04,1.736-0.104l1.558-4.377c0.715-0.218,1.399-0.504,2.049-0.851l4.193,1.993c0.909-0.725,1.733-1.549,2.458-2.458l-1.993-4.193c0.347-0.647,0.633-1.334,0.851-2.049L31.229,17.736zM16,20.871c-2.69,0-4.872-2.182-4.872-4.871c0-2.69,2.182-4.872,4.872-4.872c2.689,0,4.871,2.182,4.871,4.872C20.871,18.689,18.689,20.871,16,20.871z"></path><title>Link options.</title></g></g></g></g><!--z-index:30--><g   id="j_435" ><path  stroke="#707070" d="M 1176 1088 L 1097 863 C 1095 856.9999999999999 1095 850.9999999999999 1097 845 L 1161 659" id="v-9510" stroke-width="2" stroke-dasharray="30 30" fill="none" style="opacity: 1;"></path><path  fill="black" stroke="black" d="M 0 0 0 0" transform="matrix(-0.32948747277259827,-0.9441599249839783,0.9441599249839783,-0.32948747277259827,1175.6600341796875,1088)"></path><path  fill="#707070" stroke="#707070" d="M 20 0 L 0 10 L 20 20 z" id="v-9512" transform="matrix(-0.32342469692230225,0.9462538957595825,-0.9462538957595825,-0.32342469692230225,1170.112548828125,662.2342529296875)" style="opacity: 1;"></path><path  d="M 1176 1088 L 1097 863 C 1095 856.9999999999999 1095 850.9999999999999 1097 845 L 1161 659" id="v-9511" fill="none" style="cursor: default;"></path><g ><g id="v-9501"  label-idx="0" cursor="move" transform="matrix(1,0,0,1,1100.8826904296875,874.0582275390625)" style="cursor: default; opacity: 1;"><rect joint-selector="rect" id="v-9505" fill="#ffffff" rx="3" ry="3" pointer-events="none" width="174.5431365966797" height="177.6421127319336" transform="matrix(1,0,0,1,-87.30000305175781,-88.80000305175781)"></rect><text joint-selector="text" id="v-9504" font-size="24px" xml:space="preserve" y="0.8em" fill="#707070" text-anchor="middle" pointer-events="none" font-family="Open Sans" font-weight="normal" transform="matrix(1,0,0,1,0,-82.30000305175781)"><tspan  dy="0">Enables</tspan><tspan dy="1.2em" x="0" >communication</tspan><tspan dy="1.2em" x="0" >between</tspan><tspan dy="1.2em" x="0" >organizations</tspan><tspan dy="1.2em" x="0" >and interested</tspan><tspan dy="1.2em" x="0" >travellers</tspan></text></g><g id="v-9502"  label-idx="1" cursor="move" transform="matrix(1,0,0,1,1100.8826904296875,972.4581909179688)" style="cursor: default; opacity: 1;"><rect joint-selector="rect" id="v-9507" fill="#ffffff" rx="3" ry="3" pointer-events="none" width="94.65963745117188" height="23.747366905212402" transform="matrix(1,0,0,1,-47.29999923706055,-11.899999618530273)"></rect><text joint-selector="text" id="v-9506" font-size="17px" xml:space="preserve" y="0.8em" fill="#707070" text-anchor="middle" pointer-events="none" font-family="Open Sans" font-weight="normal" transform="matrix(1,0,0,1,0,-7.699999809265137)"><tspan  dy="0">[Messaging]</tspan></text></g><g id="v-9503"  label-idx="2" cursor="move" transform="matrix(1,0,0,1,1090.8826904296875,980.8582153320312)" style="cursor: default; opacity: 1;"><rect joint-selector="rect" id="v-9509" fill="#ffffff" rx="3" ry="3"  width="0" height="0" transform="matrix(1,0,0,1,0,0)" display="none"></rect><text joint-selector="text" id="v-9508" fill="#000000" font-size="14" text-anchor="middle" pointer-events="none"></text></g></g><g  display="none"><g  transform="translate(1094, 854)" id="v-9498"><circle  idx="0" r="10"></circle><path  idx="0" d="M16,5.333c-7.732,0-14,4.701-14,10.5c0,1.982,0.741,3.833,2.016,5.414L2,25.667l5.613-1.441c2.339,1.317,5.237,2.107,8.387,2.107c7.732,0,14-4.701,14-10.5C30,10.034,23.732,5.333,16,5.333z" transform="translate(5, -33)"></path><path  idx="0" transform="scale(.8) translate(9.5, -37)" d="M24.778,21.419 19.276,15.917 24.777,10.415 21.949,7.585 16.447,13.087 10.945,7.585 8.117,10.415 13.618,15.917 8.116,21.419 10.946,24.248 16.447,18.746 21.948,24.248z"><title>Remove vertex.</title></path></g></g><g  id="v-9514" display="none"><g  id="v-9499"><path  end="source" d="M 26 0 L 0 13 L 26 26 z"></path></g><g  id="v-9500"><path  end="target" d="M 26 0 L 0 13 L 26 26 z"></path></g></g><g  id="v-9513" display="none"><g  id="v-9497" transform="translate(1162.748631162402, 1050.258759639753) "><g  event="remove"><circle r="11"></circle><path transform="scale(.8) translate(-16, -16)" d="M24.778,21.419 19.276,15.917 24.777,10.415 21.949,7.585 16.447,13.087 10.945,7.585 8.117,10.415 13.618,15.917 8.116,21.419 10.946,24.248 16.447,18.746 21.948,24.248z"></path><title>Remove link.</title></g><g  event="link:options"><circle r="11" transform="translate(25)"></circle><path fill="white" transform="scale(.55) translate(29, -16)" d="M31.229,17.736c0.064-0.571,0.104-1.148,0.104-1.736s-0.04-1.166-0.104-1.737l-4.377-1.557c-0.218-0.716-0.504-1.401-0.851-2.05l1.993-4.192c-0.725-0.91-1.549-1.734-2.458-2.459l-4.193,1.994c-0.647-0.347-1.334-0.632-2.049-0.849l-1.558-4.378C17.165,0.708,16.588,0.667,16,0.667s-1.166,0.041-1.737,0.105L12.707,5.15c-0.716,0.217-1.401,0.502-2.05,0.849L6.464,4.005C5.554,4.73,4.73,5.554,4.005,6.464l1.994,4.192c-0.347,0.648-0.632,1.334-0.849,2.05l-4.378,1.557C0.708,14.834,0.667,15.412,0.667,16s0.041,1.165,0.105,1.736l4.378,1.558c0.217,0.715,0.502,1.401,0.849,2.049l-1.994,4.193c0.725,0.909,1.549,1.733,2.459,2.458l4.192-1.993c0.648,0.347,1.334,0.633,2.05,0.851l1.557,4.377c0.571,0.064,1.148,0.104,1.737,0.104c0.588,0,1.165-0.04,1.736-0.104l1.558-4.377c0.715-0.218,1.399-0.504,2.049-0.851l4.193,1.993c0.909-0.725,1.733-1.549,2.458-2.458l-1.993-4.193c0.347-0.647,0.633-1.334,0.851-2.049L31.229,17.736zM16,20.871c-2.69,0-4.872-2.182-4.872-4.871c0-2.69,2.182-4.872,4.872-4.872c2.689,0,4.871,2.182,4.871,4.872C20.871,18.689,18.689,20.871,16,20.871z"></path><title>Link options.</title></g></g></g></g><!--z-index:31--><g   id="j_436" ><path  stroke="#707070" d="M 1151 1849 L 1019 1637 C 1015.6666666666666 1631.6666666666665 1015.6666666666666 1626 1019 1620 L 1146 1388" id="v-9528" stroke-width="2" stroke-dasharray="30 30" fill="none" style="opacity: 1;"></path><path  fill="black" stroke="black" d="M 0 0 0 0" transform="matrix(-0.5279432535171509,-0.8492796421051025,0.8492796421051025,-0.5279432535171509,1150.760009765625,1849)"></path><path  fill="#707070" stroke="#707070" d="M 20 0 L 0 10 L 20 20 z" id="v-9530" transform="matrix(-0.4801012873649597,0.8772130608558655,-0.8772130608558655,-0.4801012873649597,1154.672119140625,1392.801025390625)" style="opacity: 1;"></path><path  d="M 1151 1849 L 1019 1637 C 1015.6666666666666 1631.6666666666665 1015.6666666666666 1626 1019 1620 L 1146 1388" id="v-9529" fill="none" style="cursor: default;"></path><g ><g id="v-9519"  label-idx="0" cursor="move" transform="matrix(1,0,0,1,1018.27978515625,1621.400146484375)" style="cursor: default; opacity: 1;"><rect joint-selector="rect" id="v-9523" fill="#ffffff" rx="3" ry="3" pointer-events="none" width="92.77964782714844" height="33.64210510253906" transform="matrix(1,0,0,1,-46.400001525878906,-16.799999237060547)"></rect><text joint-selector="text" id="v-9522" font-size="24px" xml:space="preserve" y="0.8em" fill="#707070" text-anchor="middle" pointer-events="none" font-family="Open Sans" font-weight="normal" transform="matrix(1,0,0,1,0,-10.300000190734863)"><tspan  dy="0">Callback</tspan></text></g><g id="v-9520"  label-idx="1" cursor="move" transform="matrix(1,0,0,1,1018.27978515625,1647.8001708984375)" style="cursor: default; opacity: 1;"><rect joint-selector="rect" id="v-9525" fill="#ffffff" rx="3" ry="3" pointer-events="none" width="49.67157745361328" height="23.747366905212402" transform="matrix(1,0,0,1,-24.799999237060547,-11.899999618530273)"></rect><text joint-selector="text" id="v-9524" font-size="17px" xml:space="preserve" y="0.8em" fill="#707070" text-anchor="middle" pointer-events="none" font-family="Open Sans" font-weight="normal" transform="matrix(1,0,0,1,0,-7.699999809265137)"><tspan  dy="0">[REST]</tspan></text></g><g id="v-9521"  label-idx="2" cursor="move" transform="matrix(1,0,0,1,1008.27978515625,1656.2001953125)" style="cursor: default; opacity: 1;"><rect joint-selector="rect" id="v-9527" fill="#ffffff" rx="3" ry="3"  width="0" height="0" transform="matrix(1,0,0,1,0,0)" display="none"></rect><text joint-selector="text" id="v-9526" fill="#000000" font-size="14" text-anchor="middle" pointer-events="none"></text></g></g><g  display="none"><g  transform="translate(1014, 1629)" id="v-9516"><circle  idx="0" r="10"></circle><path  idx="0" d="M16,5.333c-7.732,0-14,4.701-14,10.5c0,1.982,0.741,3.833,2.016,5.414L2,25.667l5.613-1.441c2.339,1.317,5.237,2.107,8.387,2.107c7.732,0,14-4.701,14-10.5C30,10.034,23.732,5.333,16,5.333z" transform="translate(5, -33)"></path><path  idx="0" transform="scale(.8) translate(9.5, -37)" d="M24.778,21.419 19.276,15.917 24.777,10.415 21.949,7.585 16.447,13.087 10.945,7.585 8.117,10.415 13.618,15.917 8.116,21.419 10.946,24.248 16.447,18.746 21.948,24.248z"><title>Remove vertex.</title></path></g></g><g  id="v-9532" display="none"><g  id="v-9517"><path  end="source" d="M 26 0 L 0 13 L 26 26 z"></path></g><g  id="v-9518"><path  end="target" d="M 26 0 L 0 13 L 26 26 z"></path></g></g><g  id="v-9531" display="none"><g  id="v-9515" transform="translate(1129.8576618902, 1815.0441236418362) "><g  event="remove"><circle r="11"></circle><path transform="scale(.8) translate(-16, -16)" d="M24.778,21.419 19.276,15.917 24.777,10.415 21.949,7.585 16.447,13.087 10.945,7.585 8.117,10.415 13.618,15.917 8.116,21.419 10.946,24.248 16.447,18.746 21.948,24.248z"></path><title>Remove link.</title></g><g  event="link:options"><circle r="11" transform="translate(25)"></circle><path fill="white" transform="scale(.55) translate(29, -16)" d="M31.229,17.736c0.064-0.571,0.104-1.148,0.104-1.736s-0.04-1.166-0.104-1.737l-4.377-1.557c-0.218-0.716-0.504-1.401-0.851-2.05l1.993-4.192c-0.725-0.91-1.549-1.734-2.458-2.459l-4.193,1.994c-0.647-0.347-1.334-0.632-2.049-0.849l-1.558-4.378C17.165,0.708,16.588,0.667,16,0.667s-1.166,0.041-1.737,0.105L12.707,5.15c-0.716,0.217-1.401,0.502-2.05,0.849L6.464,4.005C5.554,4.73,4.73,5.554,4.005,6.464l1.994,4.192c-0.347,0.648-0.632,1.334-0.849,2.05l-4.378,1.557C0.708,14.834,0.667,15.412,0.667,16s0.041,1.165,0.105,1.736l4.378,1.558c0.217,0.715,0.502,1.401,0.849,2.049l-1.994,4.193c0.725,0.909,1.549,1.733,2.459,2.458l4.192-1.993c0.648,0.347,1.334,0.633,2.05,0.851l1.557,4.377c0.571,0.064,1.148,0.104,1.737,0.104c0.588,0,1.165-0.04,1.736-0.104l1.558-4.377c0.715-0.218,1.399-0.504,2.049-0.851l4.193,1.993c0.909-0.725,1.733-1.549,2.458-2.458l-1.993-4.193c0.347-0.647,0.633-1.334,0.851-2.049L31.229,17.736zM16,20.871c-2.69,0-4.872-2.182-4.872-4.871c0-2.69,2.182-4.872,4.872-4.872c2.689,0,4.871,2.182,4.871,4.872C20.871,18.689,18.689,20.871,16,20.871z"></path><title>Link options.</title></g></g></g></g><!--z-index:32--><!--z-index:33--><!--z-index:34--><!--z-index:35--><!--z-index:36--><!--z-index:37--><!--z-index:38--><!--z-index:39--><!--z-index:40--><!--z-index:41--><!--z-index:42--><!--z-index:43--><!--z-index:44--><!--z-index:45--><!--z-index:46--><!--z-index:47--><!--z-index:48--><!--z-index:49--><!--z-index:50--><!--z-index:51--><!--z-index:52--><!--z-index:53--><!--z-index:54--><!--z-index:55--><!--z-index:56--><!--z-index:57--><!--z-index:58--><!--z-index:59--><!--z-index:60--><!--z-index:61--><!--z-index:62--><!--z-index:63--><!--z-index:64--><!--z-index:65--><!--z-index:66--><!--z-index:67--><!--z-index:68--><!--z-index:69--><!--z-index:70--><!--z-index:71--><!--z-index:72--><!--z-index:73--><!--z-index:74--><!--z-index:75--><!--z-index:76--><!--z-index:77--><!--z-index:78--><!--z-index:79--><!--z-index:80--><!--z-index:81--><!--z-index:82--><!--z-index:83--><!--z-index:84--><!--z-index:85--><!--z-index:86--><!--z-index:87--><!--z-index:88--><!--z-index:89--><!--z-index:90--><!--z-index:91--><!--z-index:92--><!--z-index:93--><!--z-index:94--><!--z-index:95--><!--z-index:96--><!--z-index:97--><!--z-index:98--><!--z-index:99--><!--z-index:100--><!--z-index:101--><!--z-index:102--><!--z-index:103--><!--z-index:104--><!--z-index:105--><!--z-index:106--><!--z-index:107--><!--z-index:108--><!--z-index:109--><!--z-index:110--><!--z-index:111--><!--z-index:112--><!--z-index:113--><!--z-index:114--><!--z-index:115--><!--z-index:116--><!--z-index:117--><!--z-index:118--><!--z-index:119--><!--z-index:120--><!--z-index:121--><!--z-index:122--><!--z-index:123--><!--z-index:124--><!--z-index:125--><!--z-index:126--><!--z-index:127--><!--z-index:128--><!--z-index:129--><!--z-index:130--><!--z-index:131--><!--z-index:132--><!--z-index:133--><!--z-index:134--><!--z-index:135--><!--z-index:136--><!--z-index:137--><!--z-index:138--><!--z-index:139--><!--z-index:140--><!--z-index:141--><!--z-index:142--><!--z-index:143--><!--z-index:144--><!--z-index:145--><!--z-index:146--><!--z-index:147--><!--z-index:148--><!--z-index:149--><!--z-index:150--><!--z-index:151--><!--z-index:152--><!--z-index:153--><!--z-index:154--><!--z-index:155--><!--z-index:156--><!--z-index:157--><!--z-index:158--><!--z-index:159--><!--z-index:160--><!--z-index:161--><!--z-index:162--><!--z-index:163--><!--z-index:164--><!--z-index:165--><!--z-index:166--><!--z-index:167--><!--z-index:168--><!--z-index:169--><!--z-index:170--><!--z-index:171--><!--z-index:172--><!--z-index:173--><!--z-index:174--><!--z-index:175--><!--z-index:176--><!--z-index:177--><!--z-index:178--><!--z-index:179--><!--z-index:180--><!--z-index:181--><!--z-index:182--><!--z-index:183--><!--z-index:184--><!--z-index:185--><!--z-index:186--><!--z-index:187--><!--z-index:188--><!--z-index:189--><!--z-index:190--><!--z-index:191--><!--z-index:192--><!--z-index:193--><!--z-index:194--><!--z-index:195--><!--z-index:196--><!--z-index:197--><!--z-index:198--><!--z-index:199--><!--z-index:200--><!--z-index:201--><!--z-index:202--><!--z-index:203--><!--z-index:204--><!--z-index:205--><!--z-index:206--><!--z-index:207--><!--z-index:208--><!--z-index:209--><!--z-index:210--><!--z-index:211--><!--z-index:212--><!--z-index:213--><!--z-index:214--><!--z-index:215--><!--z-index:216--><!--z-index:217--><!--z-index:218--><!--z-index:219--><!--z-index:220--><!--z-index:221--><!--z-index:222--><!--z-index:223--><!--z-index:224--><!--z-index:225--><!--z-index:226--><!--z-index:227--><!--z-index:228--><!--z-index:229--><!--z-index:230--><!--z-index:231--><!--z-index:232--><!--z-index:233--><!--z-index:234--><!--z-index:235--><!--z-index:236--><!--z-index:237--><!--z-index:238--><!--z-index:239--><!--z-index:240--><!--z-index:241--><!--z-index:242--><!--z-index:243--><!--z-index:244--><!--z-index:245--><!--z-index:246--><!--z-index:247--><!--z-index:248--><!--z-index:249--></g><g ></g><g ></g><g ></g></g></svg>