<svg width="424" height="304" xmlns="http://www.w3.org/2000/svg" xmlns:xlink="http://www.w3.org/1999/xlink" xml:space="preserve" overflow="hidden"><defs><clipPath id="clip0"><rect x="490" y="163" width="424" height="304"/></clipPath></defs><g clip-path="url(#clip0)" transform="translate(-490 -163)"><path d="M224.769 243.571C224.769 234.567 232.078 227.259 241.082 227.259" stroke="#404040" stroke-width="2.11847" stroke-miterlimit="10" fill="none" transform="matrix(1.00072 0 0 1 490 163)"/><path d="M134.576 243.571C134.576 234.567 127.267 227.259 118.263 227.259M87.1219 292.401 200.407 292.401" stroke="#404040" stroke-width="2.11847" stroke-miterlimit="10" fill="none" transform="matrix(1.00072 0 0 1 490 163)"/><path d="M175.621 292.401C175.621 297.023 171.874 300.769 167.253 300.769 162.631 300.769 158.885 297.023 158.885 292.401 158.885 287.78 162.632 284.033 167.253 284.033 171.874 284.033 175.621 287.78 175.621 292.401Z" stroke="#404040" stroke-width="2.11847" stroke-miterlimit="10" fill="#4ED1A1" transform="matrix(1.00072 0 0 1 490 163)"/><path d="M200.46 292.401C200.46 297.023 196.713 300.769 192.092 300.769 187.471 300.769 183.724 297.023 183.724 292.401 183.724 287.78 187.471 284.033 192.092 284.033 196.713 284.033 200.46 287.78 200.46 292.401Z" stroke="#404040" stroke-width="2.11847" stroke-miterlimit="10" fill="#4ED1A1" transform="matrix(1.00072 0 0 1 490 163)"/><path d="M136.8 292.401C136.8 297.023 133.054 300.769 128.432 300.769 123.811 300.769 120.064 297.023 120.064 292.401 120.064 287.78 123.811 284.033 128.432 284.033 133.054 284.033 136.8 287.78 136.8 292.401Z" stroke="#404040" stroke-width="2.11847" stroke-miterlimit="10" fill="#4ED1A1" transform="matrix(1.00072 0 0 1 490 163)"/><path d="M411.089 227.259 95.278 227.259" stroke="#404040" stroke-width="2.11847" stroke-miterlimit="10" fill="none" transform="matrix(1.00072 0 0 1 490 163)"/><path d="M265.338 227.259C265.338 231.88 261.592 235.626 256.97 235.626 252.349 235.626 248.602 231.88 248.602 227.259 248.602 222.637 252.349 218.891 256.97 218.891 261.592 218.891 265.338 222.637 265.338 227.259Z" stroke="#404040" stroke-width="2.11847" stroke-miterlimit="10" fill="#B18BE8" transform="matrix(1.00072 0 0 1 490 163)"/><path d="M175.621 227.259C175.621 231.88 171.874 235.626 167.253 235.626 162.631 235.626 158.885 231.88 158.885 227.259 158.885 222.637 162.632 218.891 167.253 218.891 171.874 218.891 175.621 222.637 175.621 227.259Z" stroke="#404040" stroke-width="2.11847" stroke-miterlimit="10" fill="#B18BE8" transform="matrix(1.00072 0 0 1 490 163)"/><path d="M419.456 227.259C419.456 231.88 415.71 235.626 411.089 235.626 406.467 235.626 402.721 231.88 402.721 227.259 402.721 222.637 406.467 218.891 411.089 218.891 415.71 218.891 419.456 222.637 419.456 227.259Z" stroke="#404040" stroke-width="2.11847" stroke-miterlimit="10" fill="#B18BE8" transform="matrix(1.00072 0 0 1 490 163)"/><path d="M134.576 243.571C134.576 252.574 141.884 259.883 150.888 259.883L208.033 259.883M44.9645 145.645C44.9645 154.648 52.2732 161.957 61.2767 161.957L70.439 161.957" stroke="#404040" stroke-width="2.11847" stroke-miterlimit="10" fill="none" transform="matrix(1.00072 0 0 1 490 163)"/><path d="M175.621 259.83C175.621 264.451 171.874 268.198 167.253 268.198 162.631 268.198 158.885 264.451 158.885 259.83 158.885 255.208 162.632 251.462 167.253 251.462 171.874 251.462 175.621 255.208 175.621 259.83Z" stroke="#404040" stroke-width="2.11847" stroke-miterlimit="10" fill="#4ED1A1" transform="matrix(1.00072 0 0 1 490 163)"/><path d="M200.46 259.83C200.46 264.451 196.713 268.198 192.092 268.198 187.471 268.198 183.724 264.451 183.724 259.83 183.724 255.208 187.471 251.462 192.092 251.462 196.713 251.462 200.46 255.208 200.46 259.83Z" stroke="#404040" stroke-width="2.11847" stroke-miterlimit="10" fill="#4ED1A1" transform="matrix(1.00072 0 0 1 490 163)"/><path d="M208.033 259.83 208.51 259.83C217.514 259.83 224.822 252.521 224.822 243.518" stroke="#404040" stroke-width="2.11847" stroke-miterlimit="10" fill="none" transform="matrix(1.00072 0 0 1 490 163)"/><path d="M30.2941 162.116 11.3868 162.116" stroke="#CCCCCC" stroke-width="2.11847" stroke-linecap="round" stroke-linejoin="round" stroke-dasharray="0 7.57622" fill="none" transform="matrix(1.00072 0 0 1 490 163)"/><path d="" stroke="#CCCCCC" stroke-width="2.11847" stroke-linecap="round" stroke-linejoin="round" fill="none" transform="matrix(1.00072 0 0 1 490 163)"/><path d="M403.621 162.116 129.703 162.116" stroke="#CCCCCC" stroke-width="2.11847" stroke-linecap="round" stroke-linejoin="round" stroke-dasharray="0 7.50409" fill="none" transform="matrix(1.00072 0 0 1 490 163)"/><path d="" stroke="#CCCCCC" stroke-width="2.11847" stroke-linecap="round" stroke-linejoin="round" fill="none" transform="matrix(1.00072 0 0 1 490 163)"/><path d="M281.491 194.687 11.2808 194.687" stroke="#CCCCCC" stroke-width="2.11847" stroke-linecap="round" stroke-linejoin="round" stroke-dasharray="0 7.40341" fill="none" transform="matrix(1.00072 0 0 1 490 163)"/><path d="" stroke="#CCCCCC" stroke-width="2.11847" stroke-linecap="round" stroke-linejoin="round" fill="none" transform="matrix(1.00072 0 0 1 490 163)"/><path d="M403.303 194.687 375.869 194.687" stroke="#CCCCCC" stroke-width="2.11847" stroke-linecap="round" stroke-linejoin="round" stroke-dasharray="0 7.83181" fill="none" transform="matrix(1.00072 0 0 1 490 163)"/><path d="" stroke="#CCCCCC" stroke-width="2.11847" stroke-linecap="round" stroke-linejoin="round" fill="none" transform="matrix(1.00072 0 0 1 490 163)"/><path d="M403.197 129.544 359.61 129.544" stroke="#CCCCCC" stroke-width="2.11847" stroke-linecap="round" stroke-linejoin="round" stroke-dasharray="0 7.92476" fill="none" transform="matrix(1.00072 0 0 1 490 163)"/><path d="M44.9645 145.856C44.9645 136.853 37.6557 129.544 28.6523 129.544M112.12 145.645C112.12 154.648 104.811 161.957 95.8077 161.957L70.3861 161.957M112.12 145.856C112.12 136.853 119.429 129.544 128.432 129.544M144.691 227.259C135.688 227.259 128.379 219.95 128.379 210.946L128.379 178.216M128.379 178.216C128.379 169.213 121.07 161.904 112.067 161.904" stroke="#404040" stroke-width="2.11847" stroke-miterlimit="10" fill="none" transform="matrix(1.00072 0 0 1 490 163)"/><path d="M87.1219 292.401C87.1219 297.023 83.3755 300.769 78.754 300.769 74.1325 300.769 70.3861 297.023 70.3861 292.401 70.3861 287.78 74.1325 284.033 78.754 284.033 83.3755 284.033 87.1219 287.78 87.1219 292.401Z" stroke="#404040" stroke-width="2.11847" stroke-miterlimit="10" fill="#4ED1A1" transform="matrix(1.00072 0 0 1 490 163)"/><path d="M341.603 129.544 20.761 129.544" stroke="#404040" stroke-width="2.11847" stroke-miterlimit="10" fill="none" transform="matrix(1.00072 0 0 1 490 163)"/><path d="M20.8142 129.546C20.8142 134.168 17.0677 137.914 12.4462 137.914 7.82462 137.914 4.07811 134.168 4.07811 129.546 4.07811 124.925 7.82462 121.178 12.4462 121.178 17.0677 121.178 20.8142 124.925 20.8142 129.546Z" stroke="#404040" stroke-width="2.1185" stroke-miterlimit="10" fill="#B3E3FF" transform="matrix(1.00061 -0.0151461 0.015157 0.999885 488.038 163.203)"/><path d="M175.621 129.544C175.621 134.166 171.874 137.912 167.253 137.912 162.631 137.912 158.885 134.166 158.885 129.544 158.885 124.923 162.632 121.176 167.253 121.176 171.874 121.176 175.621 124.923 175.621 129.544Z" stroke="#404040" stroke-width="2.11847" stroke-miterlimit="10" fill="#B3E3FF" transform="matrix(1.00072 0 0 1 490 163)"/><path d="M349.971 129.544C349.971 134.166 346.224 137.912 341.603 137.912 336.981 137.912 333.235 134.166 333.235 129.544 333.235 124.923 336.981 121.176 341.603 121.176 346.224 121.176 349.971 124.923 349.971 129.544Z" stroke="#404040" stroke-width="2.11847" stroke-miterlimit="10" fill="#B3E3FF" transform="matrix(1.00072 0 0 1 490 163)"/><path d="M25.9512 73.6697 48.4599 73.6697 48.4599 93.5303 25.9512 93.5303 25.9512 73.6697Z" stroke="#404040" stroke-width="2.11847" stroke-linecap="round" stroke-linejoin="round" stroke-miterlimit="10" fill="#B3E3FF" transform="matrix(1.00072 0 0 1 490 163)"/><path d="M33.154 86.0098 32.5185 86.0098 31.1944 82.6732 31.9359 82.6732 32.8892 85.2153 33.8425 82.6732 34.531 82.6732 33.154 86.0098ZM35.6432 82.1436C35.908 81.7199 36.3847 81.4021 37.0202 81.4021 37.6557 81.4021 38.0794 81.6669 38.3972 82.1436 38.715 82.5672 38.8209 83.1498 38.8209 83.7854 38.8209 84.4209 38.715 84.9505 38.3972 85.4272 38.1324 85.8509 37.6557 86.1686 37.0202 86.1686 36.3847 86.1686 35.961 85.9038 35.6432 85.4272 35.3254 85.0035 35.2195 84.4209 35.2195 83.7854 35.2195 83.1498 35.3254 82.5672 35.6432 82.1436ZM36.2787 85.2153C36.4376 85.3742 36.6495 85.4801 36.9672 85.4801 37.285 85.4801 37.4969 85.3742 37.6557 85.2153 37.9206 84.9505 38.0265 84.4739 38.0265 83.7854 38.0265 83.0969 37.9206 82.6202 37.6557 82.3554 37.4969 82.1965 37.285 82.0906 36.9672 82.0906 36.6495 82.0906 36.4376 82.1965 36.2787 82.3554 36.0139 82.6202 35.908 83.0969 35.908 83.7854 35.908 84.4739 36.0139 84.8976 36.2787 85.2153ZM40.1449 85.0564C40.4098 85.0564 40.6216 85.2683 40.6216 85.5331 40.6216 85.7979 40.4098 86.0098 40.1449 86.0098 39.8801 86.0098 39.6683 85.7979 39.6683 85.5331 39.6683 85.2683 39.8801 85.0564 40.1449 85.0564ZM42.2104 86.0098 42.2104 82.885 41.1512 82.885 41.1512 82.4084C41.7868 82.4084 42.2104 82.0376 42.3164 81.561L42.899 81.561 42.899 86.0098C42.899 86.0098 42.2104 86.0098 42.2104 86.0098Z" fill="#404040" transform="matrix(1.00072 0 0 1 490 163)"/><path d="M37.2321 111.59 37.2321 102.269M41.5749 108.148 37.2321 112.491 32.9422 108.148" stroke="#404040" stroke-width="2.11847" stroke-linecap="round" stroke-linejoin="round" stroke-miterlimit="10" fill="none" transform="matrix(1.00072 0 0 1 490 163)"/><path d="M156.025 73.6697 178.534 73.6697 178.534 93.5303 156.025 93.5303 156.025 73.6697Z" stroke="#404040" stroke-width="2.11847" stroke-linecap="round" stroke-linejoin="round" stroke-miterlimit="10" fill="#B3E3FF" transform="matrix(1.00072 0 0 1 490 163)"/><path d="M162.328 86.0098 161.692 86.0098 160.368 82.6732 161.109 82.6732 162.063 85.2153 163.016 82.6732 163.705 82.6732 162.328 86.0098 162.328 86.0098ZM164.817 82.1436C165.082 81.7199 165.558 81.4021 166.194 81.4021 166.829 81.4021 167.253 81.6669 167.571 82.1436 167.889 82.5672 167.994 83.1498 167.994 83.7854 167.994 84.4209 167.889 84.9505 167.571 85.4272 167.306 85.8509 166.829 86.1686 166.194 86.1686 165.558 86.1686 165.134 85.9038 164.817 85.4272 164.499 85.0035 164.393 84.4209 164.393 83.7854 164.393 83.1498 164.499 82.5672 164.817 82.1436ZM165.452 85.2153C165.611 85.3742 165.823 85.4801 166.141 85.4801 166.459 85.4801 166.67 85.3742 166.829 85.2153 167.094 84.9505 167.2 84.4739 167.2 83.7854 167.2 83.0969 167.094 82.6202 166.829 82.3554 166.67 82.1965 166.459 82.0906 166.141 82.0906 165.823 82.0906 165.611 82.1965 165.452 82.3554 165.187 82.6202 165.082 83.0969 165.082 83.7854 165.082 84.4739 165.187 84.8976 165.452 85.2153ZM169.318 85.0564C169.583 85.0564 169.795 85.2683 169.795 85.5331 169.795 85.7979 169.583 86.0098 169.318 86.0098 169.054 86.0098 168.842 85.7979 168.842 85.5331 168.842 85.2683 169.054 85.0564 169.318 85.0564ZM170.907 83.0439 170.907 82.885C170.907 82.1436 171.49 81.4551 172.443 81.4551 173.397 81.4551 173.926 82.0906 173.926 82.8321 173.926 83.4146 173.608 83.8913 173.079 84.2091L172.178 84.7916C171.914 84.9505 171.702 85.1624 171.649 85.4272L173.926 85.4272 173.926 86.0627 170.801 86.0627C170.801 85.3213 171.119 84.7916 171.861 84.262L172.602 83.7854C173.026 83.5206 173.238 83.2028 173.238 82.8321 173.238 82.4084 172.973 82.0376 172.39 82.0376 171.808 82.0376 171.543 82.4613 171.543 82.938L171.543 83.1498 170.907 83.0439 170.907 83.0439Z" fill="#404040" transform="matrix(1.00072 0 0 1 490 163)"/><path d="M167.253 111.59 167.253 102.269M171.596 108.148 167.253 112.491 162.963 108.148" stroke="#404040" stroke-width="2.11847" stroke-linecap="round" stroke-linejoin="round" stroke-miterlimit="10" fill="none" transform="matrix(1.00072 0 0 1 490 163)"/><path d="M330.375 73.6697 352.884 73.6697 352.884 93.5303 330.375 93.5303 330.375 73.6697Z" stroke="#404040" stroke-width="2.11847" stroke-linecap="round" stroke-linejoin="round" stroke-miterlimit="10" fill="#B3E3FF" transform="matrix(1.00072 0 0 1 490 163)"/><path d="M337.26 86.0098 336.624 86.0098 335.3 82.6732 336.042 82.6732 336.995 85.2153 337.948 82.6732 338.637 82.6732 337.26 86.0098ZM340.226 86.0098 340.226 82.885 339.167 82.885 339.167 82.4084C339.802 82.4084 340.226 82.0376 340.332 81.561L340.914 81.561 340.914 86.0098 340.226 86.0098ZM342.662 85.0564C342.927 85.0564 343.139 85.2683 343.139 85.5331 343.139 85.7979 342.927 86.0098 342.662 86.0098 342.397 86.0098 342.185 85.7979 342.185 85.5331 342.185 85.2683 342.397 85.0564 342.662 85.0564ZM344.569 82.1436C344.833 81.7199 345.31 81.4021 345.946 81.4021 346.581 81.4021 347.005 81.6669 347.323 82.1436 347.64 82.5672 347.746 83.1498 347.746 83.7854 347.746 84.4209 347.64 84.9505 347.323 85.4272 347.058 85.8509 346.581 86.1686 345.946 86.1686 345.31 86.1686 344.886 85.9038 344.569 85.4272 344.251 85.0035 344.145 84.4209 344.145 83.7854 344.145 83.1498 344.304 82.5672 344.569 82.1436ZM345.257 85.2153C345.416 85.3742 345.628 85.4801 345.946 85.4801 346.263 85.4801 346.475 85.3742 346.634 85.2153 346.899 84.9505 347.005 84.4739 347.005 83.7854 347.005 83.0969 346.899 82.6202 346.634 82.3554 346.475 82.1965 346.263 82.0906 345.946 82.0906 345.628 82.0906 345.416 82.1965 345.257 82.3554 344.992 82.6202 344.886 83.0969 344.886 83.7854 344.886 84.4739 344.992 84.8976 345.257 85.2153Z" fill="#404040" transform="matrix(1.00072 0 0 1 490 163)"/><path d="M341.603 111.59 341.603 102.269M345.946 108.148 341.603 112.491 337.313 108.148" stroke="#404040" stroke-width="2.11847" stroke-linecap="round" stroke-linejoin="round" stroke-miterlimit="10" fill="none" transform="matrix(1.00072 0 0 1 490 163)"/><path d="M34.1603 227.259 10.9101 227.259" stroke="#CCCCCC" stroke-width="2.11847" stroke-linecap="round" stroke-linejoin="round" stroke-dasharray="0 6.64298" fill="none" transform="matrix(1.00072 0 0 1 490 163)"/><path d="" stroke="#CCCCCC" stroke-width="2.11847" stroke-linecap="round" stroke-linejoin="round" fill="none" transform="matrix(1.00072 0 0 1 490 163)"/><path d="M130.762 259.83 11.2279 259.83" stroke="#CCCCCC" stroke-width="2.11847" stroke-linecap="round" stroke-linejoin="round" stroke-dasharray="0 7.24749" fill="none" transform="matrix(1.00072 0 0 1 490 163)"/><path d="" stroke="#CCCCCC" stroke-width="2.11847" stroke-linecap="round" stroke-linejoin="round" fill="none" transform="matrix(1.00072 0 0 1 490 163)"/><path d="M403.833 259.83 225.14 259.83" stroke="#CCCCCC" stroke-width="2.11847" stroke-linecap="round" stroke-linejoin="round" stroke-dasharray="0 7.29372" fill="none" transform="matrix(1.00072 0 0 1 490 163)"/><path d="" stroke="#CCCCCC" stroke-width="2.11847" stroke-linecap="round" stroke-linejoin="round" fill="none" transform="matrix(1.00072 0 0 1 490 163)"/><path d="M58.2049 292.401 11.1749 292.401" stroke="#CCCCCC" stroke-width="2.11847" stroke-linecap="round" stroke-linejoin="round" stroke-dasharray="0 7.22884" fill="none" transform="matrix(1.00072 0 0 1 490 163)"/><path d="" stroke="#CCCCCC" stroke-width="2.11847" stroke-linecap="round" stroke-linejoin="round" fill="none" transform="matrix(1.00072 0 0 1 490 163)"/><path d="M403.727 292.401 208.563 292.401" stroke="#CCCCCC" stroke-width="2.11847" stroke-linecap="round" stroke-linejoin="round" stroke-dasharray="0 7.36538" fill="none" transform="matrix(1.00072 0 0 1 490 163)"/><path d="M150.146 2.75401 201.095 2.75401 201.095 29.2348 150.146 29.2348 150.146 2.75401Z" stroke="#404040" stroke-width="2.11847" stroke-linecap="round" stroke-linejoin="round" stroke-miterlimit="10" fill="#4CD3D6" transform="matrix(1.00072 0 0 1 490 163)"/><path d="M163.546 16.8418 162.698 16.8418 162.698 19.1192 161.904 19.1192 161.904 13.5582 164.022 13.5582C165.082 13.5582 165.77 14.2997 165.77 15.253 165.77 16.0474 165.24 16.6829 164.393 16.8418L165.717 19.2251 164.817 19.2251 163.546 16.8418 163.546 16.8418ZM163.916 16.1533C164.552 16.1533 164.976 15.7826 164.976 15.2 164.976 14.6174 164.552 14.2467 163.916 14.2467L162.751 14.2467 162.751 16.1533C162.751 16.1533 163.916 16.1533 163.916 16.1533ZM170.325 18.0599C170.113 18.7484 169.477 19.278 168.63 19.278 167.624 19.278 166.723 18.5366 166.723 17.2125 166.723 15.9944 167.571 15.2 168.577 15.2 169.742 15.2 170.431 15.9944 170.431 17.2125L170.431 17.4774 167.571 17.4774C167.571 18.1659 168.1 18.6425 168.736 18.6425 169.371 18.6425 169.689 18.3247 169.795 17.8481L170.325 18.0599ZM169.583 16.8418C169.583 16.3122 169.213 15.8885 168.524 15.8885 167.889 15.8885 167.518 16.3652 167.465 16.8418L169.583 16.8418ZM171.702 19.1721 171.702 13.3993 172.443 13.3993 172.443 19.1721 171.702 19.1721ZM177.475 18.0599C177.263 18.7484 176.627 19.278 175.78 19.278 174.774 19.278 173.873 18.5366 173.873 17.2125 173.873 15.9944 174.721 15.2 175.727 15.2 176.892 15.2 177.58 15.9944 177.58 17.2125L177.58 17.4774 174.721 17.4774C174.721 18.1659 175.25 18.6425 175.886 18.6425 176.521 18.6425 176.839 18.3247 176.945 17.8481L177.475 18.0599ZM176.733 16.8418C176.733 16.3122 176.362 15.8885 175.674 15.8885 175.038 15.8885 174.668 16.3652 174.615 16.8418L176.733 16.8418ZM179.752 17.0007 180.811 16.8418C181.023 16.7889 181.129 16.6829 181.129 16.577 181.129 16.2063 180.864 15.8885 180.282 15.8885 179.752 15.8885 179.487 16.2063 179.434 16.6829L178.693 16.524C178.799 15.7826 179.434 15.3059 180.282 15.3059 181.447 15.3059 181.87 15.9415 181.87 16.6829L181.87 18.5366C181.87 18.8544 181.923 19.0662 181.923 19.1721L181.129 19.1721C181.129 19.0662 181.076 18.9073 181.076 18.6425 180.917 18.9073 180.546 19.278 179.858 19.278 179.063 19.278 178.587 18.7484 178.587 18.1129 178.587 17.4774 179.116 17.0537 179.752 17.0007L179.752 17.0007ZM181.076 17.5303 181.076 17.3714 179.911 17.5303C179.593 17.5833 179.381 17.7422 179.381 18.1129 179.381 18.3777 179.646 18.6425 180.017 18.6425 180.599 18.6425 181.076 18.3777 181.076 17.5303ZM183.724 17.954C183.777 18.3777 184.095 18.6425 184.624 18.6425 185.048 18.6425 185.26 18.3777 185.26 18.1129 185.26 17.901 185.101 17.6892 184.783 17.6362L184.148 17.4774C183.565 17.3714 183.194 16.9477 183.194 16.4181 183.194 15.7826 183.83 15.2 184.571 15.2 185.631 15.2 185.948 15.8885 186.001 16.2063L185.366 16.4711C185.313 16.2592 185.154 15.8355 184.571 15.8355 184.201 15.8355 183.936 16.1003 183.936 16.3652 183.936 16.577 184.095 16.7889 184.36 16.8418L184.995 17.0007C185.684 17.1596 186.054 17.5833 186.054 18.1129 186.054 18.6425 185.578 19.278 184.677 19.278 183.618 19.278 183.194 18.5895 183.141 18.1659L183.724 17.954 183.724 17.954ZM190.662 18.0599C190.45 18.7484 189.815 19.278 188.967 19.278 187.961 19.278 187.061 18.5366 187.061 17.2125 187.061 15.9944 187.908 15.2 188.914 15.2 190.079 15.2 190.768 15.9944 190.768 17.2125L190.768 17.4774 187.908 17.4774C187.908 18.1659 188.438 18.6425 189.073 18.6425 189.709 18.6425 190.026 18.3247 190.132 17.8481L190.662 18.0599ZM189.921 16.8418C189.921 16.3122 189.55 15.8885 188.861 15.8885 188.226 15.8885 187.855 16.3652 187.802 16.8418L189.921 16.8418Z" fill="#404040" transform="matrix(1.00072 0 0 1 490 163)"/><path d="M223.128 2.75401 274.077 2.75401 274.077 29.2348 223.128 29.2348 223.128 2.75401Z" stroke="#404040" stroke-width="2.11847" stroke-linecap="round" stroke-linejoin="round" stroke-miterlimit="10" fill="#B18BE8" transform="matrix(1.00072 0 0 1 490 163)"/><path d="M233.932 19.1721 233.932 13.5582 235.891 13.5582C237.321 13.5582 238.592 14.5115 238.592 16.3652 238.592 18.2188 237.321 19.1721 235.891 19.1721L233.932 19.1721ZM235.838 18.4836C236.898 18.4836 237.745 17.7951 237.745 16.3652 237.745 14.9352 236.898 14.2467 235.838 14.2467L234.673 14.2467 234.673 18.4836 235.838 18.4836ZM243.253 18.0599C243.041 18.7484 242.406 19.278 241.558 19.278 240.552 19.278 239.652 18.5366 239.652 17.2125 239.652 15.9944 240.499 15.2 241.452 15.2 242.617 15.2 243.306 15.9944 243.306 17.2125L243.306 17.4774 240.446 17.4774C240.446 18.1659 240.976 18.6425 241.611 18.6425 242.247 18.6425 242.564 18.3247 242.67 17.8481L243.253 18.0599ZM242.511 16.8418C242.511 16.3122 242.141 15.8885 241.452 15.8885 240.817 15.8885 240.446 16.3652 240.393 16.8418L242.511 16.8418ZM246.484 19.1721 245.742 19.1721 244.153 15.3589 245.001 15.3589 246.113 18.3247 247.225 15.3589 248.02 15.3589 246.484 19.1721 246.484 19.1721ZM252.151 18.0599C251.939 18.7484 251.303 19.278 250.456 19.278 249.449 19.278 248.549 18.5366 248.549 17.2125 248.549 15.9944 249.396 15.2 250.403 15.2 251.568 15.2 252.256 15.9944 252.256 17.2125L252.256 17.4774 249.396 17.4774C249.396 18.1659 249.926 18.6425 250.562 18.6425 251.197 18.6425 251.515 18.3247 251.621 17.8481L252.151 18.0599ZM251.409 16.8418C251.409 16.3122 251.038 15.8885 250.35 15.8885 249.714 15.8885 249.344 16.3652 249.291 16.8418L251.409 16.8418ZM253.528 19.1721 253.528 13.3993 254.269 13.3993 254.269 19.1721 253.528 19.1721ZM259.565 17.2655C259.565 18.4307 258.771 19.278 257.606 19.278 256.44 19.278 255.646 18.4307 255.646 17.2655 255.646 16.1003 256.44 15.253 257.606 15.253 258.718 15.2 259.565 16.1003 259.565 17.2655ZM258.771 17.2655C258.771 16.3652 258.241 15.8885 257.606 15.8885 256.97 15.8885 256.44 16.3652 256.44 17.2655 256.44 18.1659 256.97 18.6425 257.606 18.6425 258.241 18.6425 258.771 18.1129 258.771 17.2655ZM260.889 20.6551 260.889 15.3589 261.631 15.3589 261.631 15.9415C261.842 15.5707 262.266 15.253 262.902 15.253 264.067 15.253 264.649 16.1533 264.649 17.2655 264.649 18.3777 264.014 19.278 262.849 19.278 262.266 19.278 261.79 19.0132 261.631 18.6425L261.631 20.6551 260.889 20.6551ZM262.743 15.9415C262.054 15.9415 261.631 16.524 261.631 17.2655 261.631 18.0599 262.107 18.6425 262.743 18.6425 263.431 18.6425 263.855 18.0599 263.855 17.2655 263.908 16.4711 263.484 15.9415 262.743 15.9415Z" fill="#404040" transform="matrix(1.00072 0 0 1 490 163)"/><path d="M77.2181 2.75401 128.167 2.75401 128.167 29.2348 77.2181 29.2348 77.2181 2.75401Z" stroke="#404040" stroke-width="2.11847" stroke-linecap="round" stroke-linejoin="round" stroke-miterlimit="10" fill="#FC8363" transform="matrix(1.00072 0 0 1 490 163)"/><path d="M95.8077 19.1721 95.8077 16.6829 92.9477 16.6829 92.9477 19.1721 92.1533 19.1721 92.1533 13.5582 92.9477 13.5582 92.9477 15.9415 95.8077 15.9415 95.8077 13.5582 96.6021 13.5582 96.6021 19.1721 95.8077 19.1721ZM101.898 17.2655C101.898 18.4307 101.104 19.278 99.9387 19.278 98.7735 19.278 97.9791 18.4307 97.9791 17.2655 97.9791 16.1003 98.7735 15.253 99.9387 15.253 101.104 15.2 101.898 16.1003 101.898 17.2655ZM101.157 17.2655C101.157 16.3652 100.627 15.8885 99.9916 15.8885 99.3561 15.8885 98.8265 16.3652 98.8265 17.2655 98.8265 18.1659 99.3561 18.6425 99.9916 18.6425 100.627 18.6425 101.157 18.1129 101.157 17.2655ZM104.229 15.3589 105.076 15.3589 105.076 16.0474 104.229 16.0474 104.229 18.007C104.229 18.3777 104.387 18.5366 104.758 18.5366 104.864 18.5366 104.97 18.5366 105.076 18.4836L105.076 19.1192C105.023 19.1192 104.811 19.1721 104.546 19.1721 103.911 19.1721 103.487 18.7484 103.487 18.0599L103.487 15.9415 102.746 15.9415 102.746 15.3589 102.957 15.3589C103.381 15.3589 103.54 15.0941 103.54 14.7763L103.54 14.1408 104.229 14.1408 104.229 15.3589 104.229 15.3589ZM108.36 13.4523 108.36 14.1408C108.307 14.1408 108.201 14.0878 108.042 14.0878 107.777 14.0878 107.459 14.1937 107.459 14.7233L107.459 15.3589 110.001 15.3589 110.001 19.1721 109.26 19.1721 109.26 16.0474 107.459 16.0474 107.459 19.1721 106.665 19.1721 106.665 16.0474 105.976 16.0474 105.976 15.3589 106.665 15.3589 106.665 14.7233C106.665 13.876 107.247 13.3993 107.936 13.3993 108.148 13.3993 108.307 13.4523 108.36 13.4523ZM109.578 13.3463C109.895 13.3463 110.107 13.5582 110.107 13.876 110.107 14.1937 109.843 14.4056 109.578 14.4056 109.26 14.4056 109.048 14.1408 109.048 13.876 109.048 13.5582 109.313 13.3463 109.578 13.3463ZM112.491 17.2125 111.114 15.3589 112.014 15.3589 112.967 16.6829 113.868 15.3589 114.768 15.3589 113.391 17.2125C113.603 17.5303 114.556 18.8544 114.821 19.1721L113.921 19.1721 112.914 17.7422 111.961 19.1721 111.061 19.1721 112.491 17.2125 112.491 17.2125Z" fill="#404040" transform="matrix(1.00072 0 0 1 490 163)"/><path d="M296.109 2.75401 347.058 2.75401 347.058 29.2348 296.109 29.2348 296.109 2.75401Z" stroke="#404040" stroke-width="2.11847" stroke-linecap="round" stroke-linejoin="round" stroke-miterlimit="10" fill="#4ED1A1" transform="matrix(1.00072 0 0 1 490 163)"/><path d="M308.025 18.9073 308.025 13.2934 311.468 13.2934 311.468 14.0348 308.819 14.0348 308.819 15.8355 311.203 15.8355 311.203 16.577 308.819 16.577 308.819 18.9603 308.025 18.9073 308.025 18.9073ZM315.81 17.7951C315.599 18.4836 314.963 19.0132 314.116 19.0132 313.109 19.0132 312.209 18.2718 312.209 16.9477 312.209 15.7296 313.056 14.9352 314.063 14.9352 315.228 14.9352 315.916 15.7296 315.916 16.9477L315.916 17.2125 313.056 17.2125C313.056 17.901 313.586 18.3777 314.222 18.3777 314.857 18.3777 315.175 18.0599 315.281 17.5833L315.81 17.7951ZM315.016 16.577C315.016 16.0474 314.645 15.6237 313.957 15.6237 313.321 15.6237 312.951 16.1003 312.898 16.577L315.016 16.577ZM318.088 16.7359 319.147 16.577C319.359 16.524 319.465 16.4181 319.465 16.3122 319.465 15.9415 319.2 15.6237 318.617 15.6237 318.088 15.6237 317.823 15.9415 317.77 16.4181L317.082 16.2592C317.187 15.5178 317.823 15.0411 318.67 15.0411 319.836 15.0411 320.259 15.6767 320.259 16.4181L320.259 18.3247C320.259 18.6425 320.312 18.8544 320.312 18.9603L319.571 18.9603C319.571 18.8544 319.518 18.6955 319.518 18.4307 319.359 18.6955 318.988 19.0662 318.3 19.0662 317.505 19.0662 317.029 18.5366 317.029 17.901 316.923 17.2125 317.399 16.7889 318.088 16.7359ZM319.412 17.2655 319.412 17.1066 318.247 17.2655C317.929 17.3185 317.717 17.4774 317.717 17.8481 317.717 18.1129 317.982 18.3777 318.353 18.3777 318.935 18.3777 319.412 18.1129 319.412 17.2655ZM322.695 15.0941 323.543 15.0941 323.543 15.7826 322.695 15.7826 322.695 17.7951C322.695 18.1659 322.854 18.3247 323.225 18.3247 323.331 18.3247 323.437 18.3247 323.543 18.2718L323.543 18.9073C323.49 18.9073 323.278 18.9603 323.013 18.9603 322.378 18.9603 321.954 18.5366 321.954 17.8481L321.954 15.7296 321.213 15.7296 321.213 15.0411 321.424 15.0411C321.848 15.0411 322.007 14.7763 322.007 14.4585L322.007 13.823 322.695 13.823 322.695 15.0941 322.695 15.0941ZM326.297 19.0132C325.397 19.0132 324.867 18.3247 324.867 17.4774L324.867 15.0941 325.608 15.0941 325.608 17.3714C325.608 17.901 325.873 18.3777 326.456 18.3777 327.038 18.3777 327.356 17.954 327.356 17.4244L327.356 15.147 328.098 15.147 328.098 18.2718C328.098 18.5895 328.098 18.8544 328.151 18.9603L327.462 18.9603C327.462 18.8544 327.409 18.6425 327.409 18.4836 327.25 18.8544 326.773 19.0132 326.297 19.0132L326.297 19.0132ZM331.964 15.8355 331.646 15.8355C331.01 15.8355 330.587 16.1533 330.587 17.0007L330.587 18.9073 329.845 18.9073 329.845 15.0941 330.587 15.0941 330.587 15.7826C330.852 15.2 331.328 15.0411 331.752 15.0411L332.017 15.0411 332.017 15.8355 331.964 15.8355ZM336.413 17.7951C336.201 18.4836 335.565 19.0132 334.718 19.0132 333.711 19.0132 332.811 18.2718 332.811 16.9477 332.811 15.7296 333.659 14.9352 334.665 14.9352 335.83 14.9352 336.518 15.7296 336.518 16.9477L336.518 17.2125 333.659 17.2125C333.659 17.901 334.188 18.3777 334.824 18.3777 335.459 18.3777 335.777 18.0599 335.883 17.5833L336.413 17.7951ZM335.671 16.577C335.671 16.0474 335.3 15.6237 334.612 15.6237 333.976 15.6237 333.606 16.1003 333.553 16.577L335.671 16.577Z" fill="#404040" transform="matrix(1.00072 0 0 1 490 163)"/><path d="M369.037 2.75401 419.986 2.75401 419.986 29.2348 369.037 29.2348 369.037 2.75401Z" stroke="#404040" stroke-width="2.11847" stroke-linecap="round" stroke-linejoin="round" stroke-miterlimit="10" fill="#4ED1A1" transform="matrix(1.00072 0 0 1 490 163)"/><path d="M381.006 18.9073 381.006 13.2934 384.449 13.2934 384.449 14.0348 381.801 14.0348 381.801 15.8355 384.184 15.8355 384.184 16.577 381.801 16.577 381.801 18.9603 381.006 18.9073 381.006 18.9073ZM388.739 17.7951C388.527 18.4836 387.891 19.0132 387.044 19.0132 386.038 19.0132 385.137 18.2718 385.137 16.9477 385.137 15.7296 385.985 14.9352 386.938 14.9352 388.103 14.9352 388.792 15.7296 388.792 16.9477L388.792 17.2125 385.932 17.2125C385.932 17.901 386.461 18.3777 387.097 18.3777 387.732 18.3777 388.05 18.0599 388.156 17.5833L388.739 17.7951ZM387.997 16.577C387.997 16.0474 387.626 15.6237 386.938 15.6237 386.302 15.6237 385.932 16.1003 385.879 16.577L387.997 16.577ZM391.069 16.7359 392.075 16.577C392.287 16.524 392.393 16.4181 392.393 16.3122 392.393 15.9415 392.128 15.6237 391.546 15.6237 391.016 15.6237 390.751 15.9415 390.698 16.4181L389.957 16.2592C390.063 15.5178 390.698 15.0411 391.546 15.0411 392.711 15.0411 393.134 15.6767 393.134 16.4181L393.134 18.3247C393.134 18.6425 393.187 18.8544 393.187 18.9603L392.446 18.9603C392.446 18.8544 392.393 18.6955 392.393 18.4307 392.234 18.6955 391.863 19.0662 391.175 19.0662 390.38 19.0662 389.904 18.5366 389.904 17.901 389.904 17.2125 390.38 16.7889 391.069 16.7359ZM392.393 17.2655 392.393 17.1066 391.228 17.2655C390.91 17.3185 390.698 17.4774 390.698 17.8481 390.698 18.1129 390.91 18.3777 391.334 18.3777 391.863 18.3777 392.393 18.1129 392.393 17.2655ZM395.677 15.0941 396.524 15.0941 396.524 15.7826 395.677 15.7826 395.677 17.7951C395.677 18.1659 395.836 18.3247 396.206 18.3247 396.312 18.3247 396.418 18.3247 396.524 18.2718L396.524 18.9073C396.471 18.9073 396.259 18.9603 395.994 18.9603 395.359 18.9603 394.935 18.5366 394.935 17.8481L394.935 15.7296 394.194 15.7296 394.194 15.0411 394.406 15.0411C394.829 15.0411 394.988 14.7763 394.988 14.4585L394.988 13.823 395.677 13.823 395.677 15.0941 395.677 15.0941ZM399.278 19.0132C398.378 19.0132 397.848 18.3247 397.848 17.4774L397.848 15.0941 398.59 15.0941 398.59 17.3714C398.59 17.901 398.854 18.3777 399.437 18.3777 400.02 18.3777 400.337 17.954 400.337 17.4244L400.337 15.147 401.079 15.147 401.079 18.2718C401.079 18.5895 401.079 18.8544 401.132 18.9603L400.443 18.9603C400.443 18.8544 400.39 18.6425 400.39 18.4836 400.231 18.8544 399.755 19.0132 399.278 19.0132L399.278 19.0132ZM404.892 15.8355 404.574 15.8355C403.939 15.8355 403.515 16.1533 403.515 17.0007L403.515 18.9073 402.773 18.9073 402.773 15.0941 403.515 15.0941 403.515 15.7826C403.78 15.2 404.256 15.0411 404.68 15.0411L404.945 15.0411 404.945 15.8355 404.892 15.8355ZM409.394 17.7951C409.182 18.4836 408.546 19.0132 407.699 19.0132 406.693 19.0132 405.792 18.2718 405.792 16.9477 405.792 15.7296 406.64 14.9352 407.646 14.9352 408.811 14.9352 409.5 15.7296 409.5 16.9477L409.5 17.2125 406.64 17.2125C406.64 17.901 407.169 18.3777 407.805 18.3777 408.44 18.3777 408.758 18.0599 408.864 17.5833L409.394 17.7951ZM408.652 16.577C408.652 16.0474 408.282 15.6237 407.593 15.6237 406.957 15.6237 406.587 16.1003 406.534 16.577L408.652 16.577Z" fill="#404040" transform="matrix(1.00072 0 0 1 490 163)"/><path d="M44.9645 145.645 44.9645 210.999C44.9645 220.003 52.2732 227.311 61.2767 227.311L111.961 227.311" stroke="#404040" stroke-width="2.11847" stroke-miterlimit="10" fill="none" transform="matrix(1.00072 0 0 1 490 163)"/><path d="M111.908 227.259C111.908 231.851 108.185 235.574 103.593 235.574 99.0008 235.574 95.2781 231.851 95.2781 227.259 95.2781 222.666 99.0008 218.944 103.593 218.944 108.185 218.944 111.908 222.666 111.908 227.259Z" stroke="#404040" stroke-width="2.11847" stroke-miterlimit="10" fill="#B18BE8" transform="matrix(1.00072 0 0 1 490 163)"/><path d="M87.1219 227.259C87.1219 231.88 83.3755 235.626 78.754 235.626 74.1325 235.626 70.3861 231.88 70.3861 227.259 70.3861 222.637 74.1325 218.891 78.754 218.891 83.3755 218.891 87.1219 222.637 87.1219 227.259Z" stroke="#404040" stroke-width="2.11847" stroke-miterlimit="10" fill="#B18BE8" transform="matrix(1.00072 0 0 1 490 163)"/><path d="M87.1219 162.116C87.1219 166.737 83.3755 170.484 78.754 170.484 74.1325 170.484 70.3861 166.737 70.3861 162.116 70.3861 157.494 74.1325 153.748 78.754 153.748 83.3755 153.748 87.1219 157.494 87.1219 162.116Z" stroke="#404040" stroke-width="2.11847" stroke-linecap="round" stroke-linejoin="round" stroke-miterlimit="10" fill="#FC8363" transform="matrix(1.00072 0 0 1 490 163)"/><path d="M284.139 210.999C284.139 220.003 276.831 227.311 267.827 227.311M374.28 210.999C374.28 220.003 381.589 227.311 390.592 227.311L402.773 227.311M300.875 194.687 300.399 194.687C291.395 194.687 284.086 201.996 284.086 210.999M374.28 210.999C374.28 201.996 366.971 194.687 357.968 194.687L300.875 194.687" stroke="#404040" stroke-width="2.11847" stroke-miterlimit="10" fill="none" transform="matrix(1.00072 0 0 1 490 163)"/><path d="M349.971 194.687C349.971 199.309 346.224 203.055 341.603 203.055 336.981 203.055 333.235 199.309 333.235 194.687 333.235 190.066 336.981 186.319 341.603 186.319 346.224 186.319 349.971 190.066 349.971 194.687Z" stroke="#404040" stroke-width="2.11847" stroke-linejoin="round" stroke-miterlimit="10" fill="#4CD3D6" transform="matrix(1.00072 0 0 1 490 163)"/><path d="M325.185 194.687C325.185 199.309 321.438 203.055 316.817 203.055 312.195 203.055 308.449 199.309 308.449 194.687 308.449 190.066 312.195 186.319 316.817 186.319 321.438 186.319 325.185 190.066 325.185 194.687Z" stroke="#404040" stroke-width="2.11847" stroke-linejoin="round" stroke-miterlimit="10" fill="#4CD3D6" transform="matrix(1.00072 0 0 1 490 163)"/><path d="M78.754 235.626 78.754 284.086M87.1219 161.904 112.12 161.904M341.603 186.372 341.603 137.912" stroke="#404040" stroke-width="2.11847" stroke-miterlimit="10" fill="none" transform="matrix(1.00072 0 0 1 490 163)"/><path d="M4.23693 2.75401 55.1861 2.75401 55.1861 29.2348 4.23693 29.2348 4.23693 2.75401Z" stroke="#404040" stroke-width="2.11847" stroke-linecap="round" stroke-linejoin="round" stroke-miterlimit="10" fill="#B3E3FF" transform="matrix(1.00072 0 0 1 490 163)"/><path d="M21.6613 19.2251 21.6613 13.9289 22.7206 13.9289 23.9916 17.6892C24.0976 18.0599 24.2035 18.3247 24.2564 18.4836 24.3094 18.2718 24.4153 18.007 24.5213 17.6362L25.7923 13.9289 26.7456 13.9289 26.7456 19.2251 26.0571 19.2251 26.0571 14.7763 24.5213 19.2251 23.8857 19.2251 22.3498 14.7233 22.3498 19.2251 21.6613 19.2251Z" fill="#414141" transform="matrix(1.00072 0 0 1 490 163)"/><path d="M30.6648 18.7484C30.4 18.9603 30.1882 19.1192 29.9763 19.1721 29.7645 19.278 29.4997 19.278 29.2348 19.278 28.8111 19.278 28.4934 19.1721 28.2815 18.9603 28.0697 18.7484 27.9638 18.4836 27.9638 18.1659 27.9638 17.954 28.0167 17.7951 28.0697 17.6362 28.1756 17.4774 28.2815 17.3714 28.3875 17.2655 28.5463 17.1596 28.7052 17.1066 28.8641 17.0537 28.97 17.0007 29.1819 17.0007 29.4467 16.9477 29.9763 16.8948 30.347 16.7889 30.6118 16.7359 30.6118 16.63 30.6118 16.577 30.6118 16.577 30.6118 16.3122 30.5589 16.1003 30.453 15.9944 30.2941 15.8355 30.0293 15.7826 29.7115 15.7826 29.3937 15.7826 29.1819 15.8355 29.023 15.9415 28.8641 16.0474 28.7582 16.2592 28.7052 16.524L28.0697 16.4181C28.1226 16.1533 28.2286 15.9415 28.3345 15.7826 28.4934 15.6237 28.6523 15.4648 28.9171 15.4118 29.1819 15.3059 29.4467 15.253 29.7645 15.253 30.0822 15.253 30.347 15.3059 30.5589 15.3589 30.7707 15.4118 30.9296 15.5178 31.0355 15.6767 31.1415 15.7826 31.1944 15.9415 31.2474 16.1003 31.2474 16.2063 31.3003 16.4181 31.3003 16.6829L31.3003 17.5303C31.3003 18.1129 31.3003 18.5366 31.3533 18.6955 31.4063 18.8544 31.4592 19.0132 31.5122 19.1721L30.8237 19.1721C30.7178 19.1192 30.6648 18.9603 30.6648 18.7484ZM30.6118 17.3185C30.4 17.4244 30.0293 17.4774 29.5526 17.5833 29.2878 17.6362 29.076 17.6892 28.97 17.6892 28.8641 17.6892 28.7582 17.7951 28.7052 17.901 28.6523 18.007 28.5993 18.1129 28.5993 18.2188 28.5993 18.3777 28.6523 18.5366 28.8111 18.6425 28.9171 18.7484 29.1289 18.8014 29.3937 18.8014 29.6585 18.8014 29.8704 18.7484 30.0822 18.6425 30.2941 18.5366 30.4 18.3777 30.5059 18.1659 30.5589 18.007 30.6118 17.7951 30.6118 17.5303L30.6118 17.3185 30.6118 17.3185Z" fill="#414141" transform="matrix(1.00072 0 0 1 490 163)"/><path d="M32.6244 14.6704 32.6244 13.9289 33.2599 13.9289 33.2599 14.6704 32.6244 14.6704ZM32.6244 19.2251 32.6244 15.3589 33.2599 15.3589 33.2599 19.2251 32.6244 19.2251Z" fill="#414141" transform="matrix(1.00072 0 0 1 490 163)"/><path d="M34.6369 19.2251 34.6369 15.3589 35.2195 15.3589 35.2195 15.8885C35.4843 15.4648 35.908 15.253 36.4376 15.253 36.6495 15.253 36.8613 15.3059 37.0732 15.3589 37.285 15.4648 37.3909 15.5707 37.4969 15.6767 37.6028 15.7826 37.6557 15.9944 37.7087 16.1533 37.7087 16.2592 37.7617 16.4711 37.7617 16.7889L37.7617 19.1721 37.1261 19.1721 37.1261 16.8418C37.1261 16.577 37.1261 16.3652 37.0732 16.2592 37.0202 16.1533 36.9143 16.0474 36.8084 15.9415 36.7024 15.8885 36.5436 15.8355 36.3317 15.8355 36.0669 15.8355 35.8021 15.9415 35.5902 16.1003 35.3784 16.2592 35.2725 16.63 35.2725 17.1066L35.2725 19.2251 34.6369 19.2251Z" fill="#414141" transform="matrix(1.00072 0 0 1 490 163)"/></g></svg>